<?xml version="1.0" encoding="UTF-8"?>
<svg xmlns="http://www.w3.org/2000/svg" xmlns:xlink="http://www.w3.org/1999/xlink" width="176" height="205.333333" viewBox="0 0 176 205.333333" version="1.1">
<g id="surface1">
<path style=" stroke:none;fill-rule:nonzero;fill:rgb(100%,100%,100%);fill-opacity:1;" d="M 1.863281 204.265625 L 80.265625 204.265625 L 80.265625 177.597656 L 1.863281 177.597656 Z M 1.863281 204.265625 "/>
<path style="fill:none;stroke-width:1;stroke-linecap:round;stroke-linejoin:round;stroke:rgb(0%,0%,0%);stroke-opacity:1;stroke-miterlimit:10;" d="M 269.397461 299.198242 L 328.199219 299.198242 L 328.199219 319.199219 L 269.397461 319.199219 Z M 269.397461 299.198242 " transform="matrix(1.333333,0,0,1.333333,-357.333333,-221.333333)"/>
<path style=" stroke:none;fill-rule:nonzero;fill:rgb(0%,0%,0%);fill-opacity:1;" d="M 21.863281 196.265625 L 21.863281 187.683594 L 23.03125 187.683594 L 27.53125 194.414062 L 27.53125 187.683594 L 28.636719 187.683594 L 28.636719 196.265625 L 27.46875 196.265625 L 22.949219 189.515625 L 22.949219 196.265625 Z M 21.863281 196.265625 "/>
<path style=" stroke:none;fill-rule:nonzero;fill:rgb(0%,0%,0%);fill-opacity:1;" d="M 30.011719 193.164062 C 30.011719 192.011719 30.328125 191.15625 30.96875 190.601562 C 31.511719 190.140625 32.160156 189.914062 32.925781 189.914062 C 33.785156 189.914062 34.488281 190.195312 35.03125 190.746094 C 35.574219 191.304688 35.84375 192.074219 35.84375 193.058594 C 35.84375 193.867188 35.71875 194.496094 35.46875 194.953125 C 35.230469 195.414062 34.886719 195.777344 34.425781 196.039062 C 33.96875 196.289062 33.46875 196.414062 32.925781 196.414062 C 32.050781 196.414062 31.34375 196.136719 30.800781 195.578125 C 30.269531 195.011719 30.011719 194.203125 30.011719 193.164062 Z M 31.09375 193.164062 C 31.09375 193.953125 31.265625 194.554688 31.613281 194.953125 C 31.957031 195.34375 32.394531 195.539062 32.925781 195.539062 C 33.453125 195.539062 33.890625 195.34375 34.238281 194.953125 C 34.582031 194.554688 34.761719 193.945312 34.761719 193.121094 C 34.761719 192.359375 34.582031 191.777344 34.238281 191.371094 C 33.890625 190.96875 33.453125 190.765625 32.925781 190.765625 C 32.394531 190.765625 31.957031 190.96875 31.613281 191.371094 C 31.265625 191.761719 31.09375 192.359375 31.09375 193.164062 Z M 31.09375 193.164062 "/>
<path style=" stroke:none;fill-rule:nonzero;fill:rgb(0%,0%,0%);fill-opacity:1;" d="M 37.082031 188.890625 L 37.082031 187.683594 L 38.144531 187.683594 L 38.144531 188.890625 Z M 37.082031 196.265625 L 37.082031 190.039062 L 38.144531 190.039062 L 38.144531 196.265625 Z M 37.082031 196.265625 "/>
<path style=" stroke:none;fill-rule:nonzero;fill:rgb(0%,0%,0%);fill-opacity:1;" d="M 39.328125 194.414062 L 40.371094 194.246094 C 40.421875 194.664062 40.585938 194.984375 40.851562 195.203125 C 41.125 195.429688 41.5 195.539062 41.976562 195.539062 C 42.460938 195.539062 42.820312 195.445312 43.058594 195.246094 C 43.292969 195.054688 43.414062 194.824219 43.414062 194.558594 C 43.414062 194.308594 43.308594 194.121094 43.101562 193.996094 C 42.945312 193.902344 42.585938 193.777344 42.015625 193.621094 C 41.234375 193.429688 40.695312 193.261719 40.390625 193.121094 C 40.101562 192.984375 39.875 192.789062 39.726562 192.539062 C 39.570312 192.289062 39.496094 192.011719 39.496094 191.703125 C 39.496094 191.429688 39.558594 191.171875 39.683594 190.933594 C 39.808594 190.699219 39.980469 190.496094 40.203125 190.328125 C 40.371094 190.21875 40.589844 190.121094 40.871094 190.039062 C 41.164062 189.953125 41.464844 189.914062 41.789062 189.914062 C 42.273438 189.914062 42.695312 189.984375 43.058594 190.121094 C 43.433594 190.261719 43.710938 190.449219 43.890625 190.683594 C 44.070312 190.921875 44.195312 191.242188 44.265625 191.640625 L 43.226562 191.789062 C 43.183594 191.46875 43.042969 191.21875 42.808594 191.039062 C 42.585938 190.859375 42.273438 190.765625 41.871094 190.765625 C 41.382812 190.765625 41.039062 190.851562 40.828125 191.015625 C 40.621094 191.171875 40.515625 191.359375 40.515625 191.578125 C 40.515625 191.71875 40.558594 191.839844 40.640625 191.933594 C 40.726562 192.058594 40.859375 192.15625 41.058594 192.226562 C 41.152344 192.265625 41.460938 192.359375 41.976562 192.496094 C 42.726562 192.695312 43.246094 192.851562 43.539062 192.976562 C 43.839844 193.101562 44.078125 193.289062 44.246094 193.539062 C 44.414062 193.777344 44.496094 194.074219 44.496094 194.433594 C 44.496094 194.796875 44.390625 195.132812 44.183594 195.433594 C 43.976562 195.742188 43.671875 195.984375 43.289062 196.164062 C 42.914062 196.328125 42.476562 196.414062 41.976562 196.414062 C 41.167969 196.414062 40.546875 196.246094 40.121094 195.914062 C 39.703125 195.570312 39.4375 195.070312 39.328125 194.414062 Z M 39.328125 194.414062 "/>
<path style=" stroke:none;fill-rule:nonzero;fill:rgb(0%,0%,0%);fill-opacity:1;" d="M 49.996094 194.265625 L 51.101562 194.390625 C 50.917969 195.03125 50.589844 195.53125 50.121094 195.890625 C 49.664062 196.242188 49.070312 196.414062 48.351562 196.414062 C 47.445312 196.414062 46.726562 196.136719 46.183594 195.578125 C 45.652344 195.011719 45.390625 194.21875 45.390625 193.203125 C 45.390625 192.164062 45.664062 191.359375 46.203125 190.789062 C 46.746094 190.203125 47.445312 189.914062 48.308594 189.914062 C 49.140625 189.914062 49.8125 190.199219 50.328125 190.765625 C 50.855469 191.324219 51.121094 192.117188 51.121094 193.140625 C 51.121094 193.214844 51.121094 193.308594 51.121094 193.433594 L 46.476562 193.433594 C 46.515625 194.117188 46.710938 194.636719 47.058594 194.996094 C 47.402344 195.359375 47.839844 195.539062 48.371094 195.539062 C 48.757812 195.539062 49.085938 195.445312 49.351562 195.246094 C 49.625 195.039062 49.839844 194.714844 49.996094 194.265625 Z M 46.539062 192.558594 L 50.015625 192.558594 C 49.976562 192.03125 49.839844 191.636719 49.621094 191.371094 C 49.289062 190.96875 48.851562 190.765625 48.308594 190.765625 C 47.820312 190.765625 47.414062 190.933594 47.078125 191.265625 C 46.757812 191.589844 46.578125 192.015625 46.539062 192.558594 Z M 46.539062 192.558594 "/>
<path style=" stroke:none;fill-rule:nonzero;fill:rgb(0%,0%,0%);fill-opacity:1;" d="M 61.042969 189.601562 L 61.042969 189.414062 L 56.503906 189.414062 L 56.003906 191.265625 L 56.253906 191.328125 C 56.585938 190.515625 56.878906 190.371094 57.710938 190.371094 L 59.898438 190.371094 L 54.917969 196.328125 L 55.066406 196.476562 C 55.335938 196.265625 55.542969 196.183594 55.792969 196.183594 C 56.210938 196.183594 56.710938 196.390625 57.480469 196.851562 C 58.273438 197.351562 58.816406 197.558594 59.273438 197.558594 C 60.167969 197.558594 60.773438 196.996094 60.773438 196.351562 C 60.773438 195.996094 60.542969 195.746094 60.210938 195.746094 C 59.960938 195.746094 59.691406 196.015625 59.691406 196.308594 C 59.691406 196.433594 59.710938 196.558594 59.816406 196.746094 C 59.855469 196.851562 59.898438 196.914062 59.898438 196.996094 C 59.898438 197.121094 59.710938 197.226562 59.460938 197.226562 C 59.066406 197.226562 58.753906 197.039062 58.335938 196.433594 C 57.691406 195.476562 57.335938 195.308594 56.417969 195.101562 Z M 61.042969 189.601562 "/>
<path style=" stroke:none;fill-rule:nonzero;fill:rgb(69.803923%,85.09804%,100%);fill-opacity:1;" d="M 1.863281 160 L 80.265625 160 L 80.265625 133.332031 L 1.863281 133.332031 Z M 1.863281 160 "/>
<path style="fill:none;stroke-width:1;stroke-linecap:round;stroke-linejoin:round;stroke:rgb(0%,0%,0%);stroke-opacity:1;stroke-miterlimit:10;" d="M 269.397461 265.999023 L 328.199219 265.999023 L 328.199219 286 L 269.397461 286 Z M 269.397461 265.999023 " transform="matrix(1.333333,0,0,1.333333,-357.333333,-221.333333)"/>
<path style=" stroke:none;fill-rule:nonzero;fill:rgb(0%,0%,0%);fill-opacity:1;" d="M 18.988281 147.09375 L 18.988281 146.09375 L 22.636719 146.09375 L 22.636719 149.28125 C 22.078125 149.730469 21.5 150.0625 20.90625 150.28125 C 20.308594 150.5 19.699219 150.617188 19.074219 150.617188 C 18.238281 150.617188 17.472656 150.4375 16.78125 150.074219 C 16.082031 149.714844 15.5625 149.195312 15.21875 148.511719 C 14.871094 147.835938 14.699219 147.070312 14.699219 146.21875 C 14.699219 145.386719 14.871094 144.609375 15.21875 143.886719 C 15.5625 143.152344 16.0625 142.609375 16.71875 142.261719 C 17.386719 141.917969 18.140625 141.742188 18.988281 141.742188 C 19.613281 141.742188 20.175781 141.84375 20.675781 142.054688 C 21.175781 142.25 21.5625 142.527344 21.84375 142.886719 C 22.136719 143.234375 22.355469 143.699219 22.511719 144.28125 L 21.488281 144.554688 C 21.347656 144.125 21.183594 143.78125 20.988281 143.53125 C 20.808594 143.28125 20.535156 143.085938 20.175781 142.929688 C 19.828125 142.777344 19.433594 142.699219 18.988281 142.699219 C 18.472656 142.699219 18.019531 142.78125 17.636719 142.949219 C 17.261719 143.105469 16.953125 143.3125 16.71875 143.574219 C 16.496094 143.824219 16.324219 144.105469 16.199219 144.40625 C 15.972656 144.949219 15.863281 145.527344 15.863281 146.136719 C 15.863281 146.917969 15.996094 147.5625 16.261719 148.074219 C 16.519531 148.589844 16.90625 148.96875 17.40625 149.21875 C 17.90625 149.46875 18.4375 149.59375 19.011719 149.59375 C 19.511719 149.59375 19.988281 149.507812 20.449219 149.324219 C 20.917969 149.132812 21.28125 148.921875 21.53125 148.699219 L 21.53125 147.09375 Z M 18.988281 147.09375 "/>
<path style=" stroke:none;fill-rule:nonzero;fill:rgb(0%,0%,0%);fill-opacity:1;" d="M 28.425781 148.46875 L 29.53125 148.59375 C 29.347656 149.234375 29.019531 149.734375 28.550781 150.09375 C 28.09375 150.445312 27.5 150.617188 26.78125 150.617188 C 25.875 150.617188 25.15625 150.339844 24.613281 149.78125 C 24.082031 149.214844 23.824219 148.421875 23.824219 147.40625 C 23.824219 146.367188 24.09375 145.5625 24.636719 144.992188 C 25.175781 144.40625 25.875 144.117188 26.738281 144.117188 C 27.574219 144.117188 28.246094 144.402344 28.761719 144.96875 C 29.285156 145.527344 29.550781 146.320312 29.550781 147.34375 C 29.550781 147.417969 29.550781 147.511719 29.550781 147.636719 L 24.90625 147.636719 C 24.949219 148.320312 25.140625 148.839844 25.488281 149.199219 C 25.832031 149.5625 26.269531 149.742188 26.800781 149.742188 C 27.1875 149.742188 27.515625 149.648438 27.78125 149.449219 C 28.058594 149.242188 28.269531 148.917969 28.425781 148.46875 Z M 24.96875 146.761719 L 28.449219 146.761719 C 28.40625 146.234375 28.269531 145.839844 28.050781 145.574219 C 27.71875 145.171875 27.28125 144.96875 26.738281 144.96875 C 26.25 144.96875 25.84375 145.136719 25.511719 145.46875 C 25.1875 145.792969 25.011719 146.21875 24.96875 146.761719 Z M 24.96875 146.761719 "/>
<path style=" stroke:none;fill-rule:nonzero;fill:rgb(0%,0%,0%);fill-opacity:1;" d="M 30.851562 150.46875 L 30.851562 144.242188 L 31.808594 144.242188 L 31.808594 145.136719 C 32.253906 144.460938 32.914062 144.117188 33.789062 144.117188 C 34.164062 144.117188 34.503906 144.1875 34.808594 144.324219 C 35.128906 144.449219 35.363281 144.625 35.519531 144.84375 C 35.667969 145.054688 35.777344 145.3125 35.851562 145.617188 C 35.894531 145.8125 35.914062 146.152344 35.914062 146.636719 L 35.914062 150.46875 L 34.851562 150.46875 L 34.851562 146.679688 C 34.851562 146.25 34.808594 145.929688 34.726562 145.71875 C 34.644531 145.511719 34.496094 145.34375 34.289062 145.21875 C 34.082031 145.085938 33.835938 145.011719 33.558594 145.011719 C 33.113281 145.011719 32.726562 145.15625 32.394531 145.449219 C 32.070312 145.730469 31.914062 146.273438 31.914062 147.074219 L 31.914062 150.46875 Z M 30.851562 150.46875 "/>
<path style=" stroke:none;fill-rule:nonzero;fill:rgb(0%,0%,0%);fill-opacity:1;" d="M 41.777344 148.46875 L 42.878906 148.59375 C 42.699219 149.234375 42.371094 149.734375 41.902344 150.09375 C 41.441406 150.445312 40.847656 150.617188 40.128906 150.617188 C 39.222656 150.617188 38.503906 150.339844 37.964844 149.78125 C 37.433594 149.214844 37.171875 148.421875 37.171875 147.40625 C 37.171875 146.367188 37.441406 145.5625 37.984375 144.992188 C 38.527344 144.40625 39.222656 144.117188 40.089844 144.117188 C 40.921875 144.117188 41.59375 144.402344 42.109375 144.96875 C 42.636719 145.527344 42.902344 146.320312 42.902344 147.34375 C 42.902344 147.417969 42.902344 147.511719 42.902344 147.636719 L 38.253906 147.636719 C 38.296875 148.320312 38.488281 148.839844 38.839844 149.199219 C 39.183594 149.5625 39.621094 149.742188 40.152344 149.742188 C 40.535156 149.742188 40.863281 149.648438 41.128906 149.449219 C 41.40625 149.242188 41.621094 148.917969 41.777344 148.46875 Z M 38.316406 146.761719 L 41.796875 146.761719 C 41.753906 146.234375 41.621094 145.839844 41.402344 145.574219 C 41.066406 145.171875 40.628906 144.96875 40.089844 144.96875 C 39.597656 144.96875 39.191406 145.136719 38.859375 145.46875 C 38.535156 145.792969 38.359375 146.21875 38.316406 146.761719 Z M 38.316406 146.761719 "/>
<path style=" stroke:none;fill-rule:nonzero;fill:rgb(0%,0%,0%);fill-opacity:1;" d="M 44.179688 150.46875 L 44.179688 144.242188 L 45.136719 144.242188 L 45.136719 145.199219 C 45.371094 144.757812 45.597656 144.464844 45.804688 144.324219 C 46.011719 144.1875 46.242188 144.117188 46.492188 144.117188 C 46.835938 144.117188 47.199219 144.230469 47.574219 144.449219 L 47.199219 145.429688 C 46.949219 145.277344 46.691406 145.199219 46.429688 145.199219 C 46.207031 145.199219 45.996094 145.273438 45.804688 145.40625 C 45.621094 145.546875 45.492188 145.742188 45.410156 145.992188 C 45.292969 146.367188 45.242188 146.777344 45.242188 147.21875 L 45.242188 150.46875 Z M 44.179688 150.46875 "/>
<path style=" stroke:none;fill-rule:nonzero;fill:rgb(0%,0%,0%);fill-opacity:1;" d="M 52.257812 149.699219 C 51.867188 150.03125 51.492188 150.273438 51.132812 150.40625 C 50.769531 150.542969 50.382812 150.617188 49.96875 150.617188 C 49.285156 150.617188 48.757812 150.449219 48.382812 150.117188 C 48.019531 149.78125 47.84375 149.355469 47.84375 148.824219 C 47.84375 148.523438 47.910156 148.242188 48.050781 147.992188 C 48.1875 147.742188 48.367188 147.542969 48.59375 147.386719 C 48.8125 147.234375 49.0625 147.117188 49.34375 147.03125 C 49.550781 146.992188 49.863281 146.945312 50.28125 146.886719 C 51.140625 146.792969 51.769531 146.667969 52.175781 146.511719 C 52.175781 146.375 52.175781 146.28125 52.175781 146.242188 C 52.175781 145.8125 52.078125 145.511719 51.882812 145.34375 C 51.601562 145.09375 51.203125 144.96875 50.675781 144.96875 C 50.175781 144.96875 49.804688 145.0625 49.570312 145.242188 C 49.332031 145.40625 49.160156 145.714844 49.050781 146.15625 L 48.03125 146.03125 C 48.113281 145.589844 48.257812 145.234375 48.46875 144.96875 C 48.6875 144.695312 49 144.484375 49.40625 144.34375 C 49.820312 144.195312 50.289062 144.117188 50.820312 144.117188 C 51.363281 144.117188 51.789062 144.179688 52.113281 144.304688 C 52.445312 144.429688 52.6875 144.589844 52.84375 144.78125 C 53.007812 144.964844 53.117188 145.199219 53.175781 145.492188 C 53.21875 145.671875 53.238281 145.992188 53.238281 146.449219 L 53.238281 147.867188 C 53.238281 148.839844 53.257812 149.460938 53.300781 149.71875 C 53.34375 149.984375 53.429688 150.234375 53.570312 150.46875 L 52.46875 150.46875 C 52.351562 150.25 52.285156 149.992188 52.257812 149.699219 Z M 52.175781 147.34375 C 51.785156 147.5 51.207031 147.632812 50.445312 147.742188 C 50.015625 147.8125 49.707031 147.886719 49.53125 147.96875 C 49.347656 148.042969 49.207031 148.152344 49.113281 148.304688 C 49.015625 148.460938 48.96875 148.625 48.96875 148.804688 C 48.96875 149.085938 49.070312 149.320312 49.28125 149.511719 C 49.488281 149.695312 49.800781 149.78125 50.21875 149.78125 C 50.617188 149.78125 50.976562 149.695312 51.300781 149.511719 C 51.617188 149.335938 51.851562 149.089844 52.007812 148.78125 C 52.117188 148.546875 52.175781 148.199219 52.175781 147.742188 Z M 52.175781 147.34375 "/>
<path style=" stroke:none;fill-rule:nonzero;fill:rgb(0%,0%,0%);fill-opacity:1;" d="M 57.183594 149.53125 L 57.328125 150.449219 C 57.023438 150.515625 56.757812 150.554688 56.539062 150.554688 C 56.148438 150.554688 55.851562 150.492188 55.640625 150.367188 C 55.433594 150.242188 55.277344 150.085938 55.183594 149.886719 C 55.101562 149.695312 55.058594 149.28125 55.058594 148.65625 L 55.058594 145.074219 L 54.289062 145.074219 L 54.289062 144.242188 L 55.058594 144.242188 L 55.058594 142.699219 L 56.121094 142.074219 L 56.121094 144.242188 L 57.183594 144.242188 L 57.183594 145.074219 L 56.121094 145.074219 L 56.121094 148.699219 C 56.121094 149.007812 56.132812 149.199219 56.164062 149.28125 C 56.203125 149.367188 56.265625 149.4375 56.351562 149.492188 C 56.433594 149.546875 56.546875 149.574219 56.703125 149.574219 C 56.828125 149.574219 56.984375 149.5625 57.183594 149.53125 Z M 57.183594 149.53125 "/>
<path style=" stroke:none;fill-rule:nonzero;fill:rgb(0%,0%,0%);fill-opacity:1;" d="M 57.808594 147.367188 C 57.808594 146.214844 58.125 145.359375 58.765625 144.804688 C 59.308594 144.34375 59.960938 144.117188 60.726562 144.117188 C 61.585938 144.117188 62.289062 144.398438 62.828125 144.949219 C 63.371094 145.507812 63.640625 146.277344 63.640625 147.261719 C 63.640625 148.070312 63.515625 148.699219 63.265625 149.15625 C 63.027344 149.617188 62.683594 149.980469 62.226562 150.242188 C 61.765625 150.492188 61.265625 150.617188 60.726562 150.617188 C 59.851562 150.617188 59.140625 150.339844 58.601562 149.78125 C 58.070312 149.214844 57.808594 148.40625 57.808594 147.367188 Z M 58.890625 147.367188 C 58.890625 148.15625 59.0625 148.757812 59.414062 149.15625 C 59.757812 149.546875 60.195312 149.742188 60.726562 149.742188 C 61.25 149.742188 61.6875 149.546875 62.039062 149.15625 C 62.382812 148.757812 62.558594 148.148438 62.558594 147.324219 C 62.558594 146.5625 62.382812 145.980469 62.039062 145.574219 C 61.6875 145.171875 61.25 144.96875 60.726562 144.96875 C 60.195312 144.96875 59.757812 145.171875 59.414062 145.574219 C 59.0625 145.964844 58.890625 146.5625 58.890625 147.367188 Z M 58.890625 147.367188 "/>
<path style=" stroke:none;fill-rule:nonzero;fill:rgb(0%,0%,0%);fill-opacity:1;" d="M 64.859375 150.46875 L 64.859375 144.242188 L 65.816406 144.242188 L 65.816406 145.199219 C 66.050781 144.757812 66.273438 144.464844 66.484375 144.324219 C 66.691406 144.1875 66.921875 144.117188 67.171875 144.117188 C 67.515625 144.117188 67.878906 144.230469 68.253906 144.449219 L 67.878906 145.429688 C 67.628906 145.277344 67.367188 145.199219 67.109375 145.199219 C 66.882812 145.199219 66.675781 145.273438 66.484375 145.40625 C 66.300781 145.546875 66.171875 145.742188 66.085938 145.992188 C 65.972656 146.367188 65.921875 146.777344 65.921875 147.21875 L 65.921875 150.46875 Z M 64.859375 150.46875 "/>
<path style=" stroke:none;fill-rule:nonzero;fill:rgb(69.803923%,85.09804%,100%);fill-opacity:1;" d="M 42.933594 72.265625 L 140.800781 72.265625 L 140.800781 45.597656 L 42.933594 45.597656 Z M 42.933594 72.265625 "/>
<path style="fill:none;stroke-width:1;stroke-linecap:round;stroke-linejoin:round;stroke:rgb(0%,0%,0%);stroke-opacity:1;stroke-miterlimit:10;" d="M 300.200195 200.198242 L 373.600586 200.198242 L 373.600586 220.199219 L 300.200195 220.199219 Z M 300.200195 200.198242 " transform="matrix(1.333333,0,0,1.333333,-357.333333,-221.333333)"/>
<path style=" stroke:none;fill-rule:nonzero;fill:rgb(0%,0%,0%);fill-opacity:1;" d="M 57.78125 62.738281 L 57.78125 54.152344 L 60.738281 54.152344 C 61.414062 54.152344 61.929688 54.195312 62.28125 54.277344 C 62.765625 54.394531 63.179688 54.589844 63.53125 54.882812 C 63.988281 55.273438 64.328125 55.769531 64.550781 56.363281 C 64.769531 56.945312 64.882812 57.628906 64.882812 58.402344 C 64.882812 59.058594 64.804688 59.632812 64.65625 60.132812 C 64.5 60.632812 64.304688 61.050781 64.070312 61.382812 C 63.832031 61.714844 63.570312 61.980469 63.28125 62.175781 C 63 62.355469 62.660156 62.496094 62.257812 62.589844 C 61.867188 62.691406 61.410156 62.738281 60.882812 62.738281 Z M 58.925781 61.714844 L 60.757812 61.714844 C 61.328125 61.714844 61.769531 61.667969 62.09375 61.570312 C 62.410156 61.460938 62.664062 61.308594 62.863281 61.113281 C 63.125 60.851562 63.332031 60.488281 63.488281 60.027344 C 63.640625 59.570312 63.71875 59.023438 63.71875 58.382812 C 63.71875 57.480469 63.570312 56.792969 63.28125 56.320312 C 62.988281 55.835938 62.625 55.507812 62.195312 55.339844 C 61.890625 55.214844 61.40625 55.152344 60.738281 55.152344 L 58.925781 55.152344 Z M 58.925781 61.714844 "/>
<path style=" stroke:none;fill-rule:nonzero;fill:rgb(0%,0%,0%);fill-opacity:1;" d="M 66.320312 55.363281 L 66.320312 54.152344 L 67.382812 54.152344 L 67.382812 55.363281 Z M 66.320312 62.738281 L 66.320312 56.507812 L 67.382812 56.507812 L 67.382812 62.738281 Z M 66.320312 62.738281 "/>
<path style=" stroke:none;fill-rule:nonzero;fill:rgb(0%,0%,0%);fill-opacity:1;" d="M 68.570312 60.882812 L 69.613281 60.714844 C 69.664062 61.132812 69.824219 61.457031 70.089844 61.675781 C 70.367188 61.898438 70.742188 62.007812 71.214844 62.007812 C 71.699219 62.007812 72.058594 61.914062 72.300781 61.714844 C 72.535156 61.523438 72.652344 61.292969 72.652344 61.027344 C 72.652344 60.777344 72.550781 60.589844 72.339844 60.464844 C 72.183594 60.371094 71.824219 60.246094 71.257812 60.089844 C 70.476562 59.898438 69.933594 59.730469 69.632812 59.589844 C 69.339844 59.457031 69.117188 59.257812 68.964844 59.007812 C 68.808594 58.757812 68.738281 58.480469 68.738281 58.175781 C 68.738281 57.898438 68.800781 57.644531 68.925781 57.402344 C 69.050781 57.167969 69.222656 56.964844 69.445312 56.800781 C 69.613281 56.691406 69.832031 56.589844 70.113281 56.507812 C 70.402344 56.425781 70.707031 56.382812 71.027344 56.382812 C 71.511719 56.382812 71.933594 56.457031 72.300781 56.589844 C 72.675781 56.730469 72.949219 56.917969 73.132812 57.152344 C 73.308594 57.394531 73.433594 57.710938 73.507812 58.113281 L 72.464844 58.257812 C 72.425781 57.941406 72.285156 57.691406 72.050781 57.507812 C 71.824219 57.332031 71.511719 57.238281 71.113281 57.238281 C 70.621094 57.238281 70.277344 57.320312 70.070312 57.488281 C 69.863281 57.644531 69.757812 57.832031 69.757812 58.050781 C 69.757812 58.191406 69.800781 58.308594 69.882812 58.402344 C 69.964844 58.527344 70.101562 58.628906 70.300781 58.695312 C 70.394531 58.738281 70.699219 58.832031 71.214844 58.964844 C 71.964844 59.164062 72.488281 59.320312 72.777344 59.445312 C 73.082031 59.570312 73.320312 59.757812 73.488281 60.007812 C 73.652344 60.246094 73.738281 60.542969 73.738281 60.902344 C 73.738281 61.269531 73.632812 61.601562 73.425781 61.902344 C 73.214844 62.210938 72.914062 62.457031 72.527344 62.632812 C 72.152344 62.800781 71.714844 62.882812 71.214844 62.882812 C 70.410156 62.882812 69.789062 62.714844 69.363281 62.382812 C 68.945312 62.039062 68.679688 61.539062 68.570312 60.882812 Z M 68.570312 60.882812 "/>
<path style=" stroke:none;fill-rule:nonzero;fill:rgb(0%,0%,0%);fill-opacity:1;" d="M 79.050781 60.464844 L 80.089844 60.589844 C 79.976562 61.316406 79.683594 61.878906 79.214844 62.277344 C 78.742188 62.683594 78.164062 62.882812 77.488281 62.882812 C 76.636719 62.882812 75.957031 62.605469 75.445312 62.050781 C 74.929688 61.496094 74.675781 60.695312 74.675781 59.652344 C 74.675781 58.976562 74.785156 58.382812 75.007812 57.882812 C 75.226562 57.382812 75.558594 57.007812 76.007812 56.757812 C 76.464844 56.507812 76.964844 56.382812 77.507812 56.382812 C 78.175781 56.382812 78.722656 56.558594 79.152344 56.902344 C 79.582031 57.238281 79.863281 57.714844 79.988281 58.339844 L 78.964844 58.507812 C 78.867188 58.089844 78.695312 57.777344 78.445312 57.570312 C 78.195312 57.351562 77.894531 57.238281 77.550781 57.238281 C 77.007812 57.238281 76.570312 57.433594 76.238281 57.820312 C 75.914062 58.195312 75.757812 58.792969 75.757812 59.613281 C 75.757812 60.460938 75.914062 61.070312 76.238281 61.445312 C 76.554688 61.820312 76.972656 62.007812 77.488281 62.007812 C 77.902344 62.007812 78.246094 61.882812 78.527344 61.632812 C 78.804688 61.382812 78.976562 60.996094 79.050781 60.464844 Z M 79.050781 60.464844 "/>
<path style=" stroke:none;fill-rule:nonzero;fill:rgb(0%,0%,0%);fill-opacity:1;" d="M 80.964844 62.738281 L 80.964844 56.507812 L 81.925781 56.507812 L 81.925781 57.464844 C 82.160156 57.023438 82.382812 56.730469 82.589844 56.589844 C 82.800781 56.457031 83.027344 56.382812 83.277344 56.382812 C 83.621094 56.382812 83.988281 56.496094 84.363281 56.714844 L 83.988281 57.695312 C 83.738281 57.542969 83.476562 57.464844 83.214844 57.464844 C 82.992188 57.464844 82.785156 57.539062 82.589844 57.675781 C 82.410156 57.816406 82.277344 58.007812 82.195312 58.257812 C 82.082031 58.632812 82.027344 59.042969 82.027344 59.488281 L 82.027344 62.738281 Z M 80.964844 62.738281 "/>
<path style=" stroke:none;fill-rule:nonzero;fill:rgb(0%,0%,0%);fill-opacity:1;" d="M 84.984375 55.363281 L 84.984375 54.152344 L 86.046875 54.152344 L 86.046875 55.363281 Z M 84.984375 62.738281 L 84.984375 56.507812 L 86.046875 56.507812 L 86.046875 62.738281 Z M 84.984375 62.738281 "/>
<path style=" stroke:none;fill-rule:nonzero;fill:rgb(0%,0%,0%);fill-opacity:1;" d="M 87.648438 62.738281 L 87.648438 56.507812 L 88.585938 56.507812 L 88.585938 57.382812 C 88.78125 57.082031 89.035156 56.835938 89.359375 56.652344 C 89.691406 56.476562 90.066406 56.382812 90.484375 56.382812 C 90.941406 56.382812 91.316406 56.480469 91.609375 56.675781 C 91.898438 56.855469 92.109375 57.121094 92.234375 57.464844 C 92.734375 56.746094 93.367188 56.382812 94.148438 56.382812 C 94.773438 56.382812 95.253906 56.558594 95.585938 56.902344 C 95.921875 57.238281 96.085938 57.757812 96.085938 58.464844 L 96.085938 62.738281 L 95.023438 62.738281 L 95.023438 58.820312 C 95.023438 58.394531 94.988281 58.085938 94.921875 57.902344 C 94.863281 57.726562 94.742188 57.582031 94.566406 57.464844 C 94.382812 57.339844 94.171875 57.277344 93.921875 57.277344 C 93.488281 57.277344 93.128906 57.425781 92.835938 57.714844 C 92.546875 58.007812 92.398438 58.476562 92.398438 59.113281 L 92.398438 62.738281 L 91.335938 62.738281 L 91.335938 58.695312 C 91.335938 58.226562 91.253906 57.871094 91.085938 57.632812 C 90.921875 57.398438 90.640625 57.277344 90.253906 57.277344 C 89.945312 57.277344 89.671875 57.363281 89.421875 57.527344 C 89.171875 57.683594 88.988281 57.914062 88.878906 58.214844 C 88.765625 58.507812 88.710938 58.941406 88.710938 59.507812 L 88.710938 62.738281 Z M 87.648438 62.738281 "/>
<path style=" stroke:none;fill-rule:nonzero;fill:rgb(0%,0%,0%);fill-opacity:1;" d="M 97.644531 55.363281 L 97.644531 54.152344 L 98.707031 54.152344 L 98.707031 55.363281 Z M 97.644531 62.738281 L 97.644531 56.507812 L 98.707031 56.507812 L 98.707031 62.738281 Z M 97.644531 62.738281 "/>
<path style=" stroke:none;fill-rule:nonzero;fill:rgb(0%,0%,0%);fill-opacity:1;" d="M 100.3125 62.738281 L 100.3125 56.507812 L 101.269531 56.507812 L 101.269531 57.402344 C 101.714844 56.726562 102.375 56.382812 103.25 56.382812 C 103.625 56.382812 103.964844 56.457031 104.269531 56.589844 C 104.589844 56.714844 104.824219 56.894531 104.980469 57.113281 C 105.128906 57.320312 105.238281 57.582031 105.3125 57.882812 C 105.355469 58.082031 105.375 58.417969 105.375 58.902344 L 105.375 62.738281 L 104.3125 62.738281 L 104.3125 58.945312 C 104.3125 58.519531 104.269531 58.195312 104.1875 57.988281 C 104.105469 57.777344 103.957031 57.613281 103.75 57.488281 C 103.542969 57.351562 103.296875 57.277344 103.019531 57.277344 C 102.574219 57.277344 102.1875 57.425781 101.855469 57.714844 C 101.53125 57.996094 101.375 58.539062 101.375 59.339844 L 101.375 62.738281 Z M 100.3125 62.738281 "/>
<path style=" stroke:none;fill-rule:nonzero;fill:rgb(0%,0%,0%);fill-opacity:1;" d="M 111.050781 61.964844 C 110.660156 62.300781 110.285156 62.539062 109.925781 62.675781 C 109.558594 62.808594 109.175781 62.882812 108.757812 62.882812 C 108.074219 62.882812 107.550781 62.714844 107.175781 62.382812 C 106.808594 62.050781 106.632812 61.621094 106.632812 61.089844 C 106.632812 60.789062 106.699219 60.507812 106.839844 60.257812 C 106.976562 60.007812 107.160156 59.808594 107.382812 59.652344 C 107.601562 59.503906 107.851562 59.382812 108.132812 59.300781 C 108.339844 59.257812 108.652344 59.210938 109.070312 59.152344 C 109.929688 59.058594 110.558594 58.933594 110.964844 58.777344 C 110.964844 58.644531 110.964844 58.550781 110.964844 58.507812 C 110.964844 58.082031 110.867188 57.777344 110.675781 57.613281 C 110.394531 57.363281 109.992188 57.238281 109.464844 57.238281 C 108.964844 57.238281 108.597656 57.332031 108.363281 57.507812 C 108.121094 57.675781 107.949219 57.980469 107.839844 58.425781 L 106.820312 58.300781 C 106.902344 57.855469 107.050781 57.503906 107.257812 57.238281 C 107.476562 56.960938 107.789062 56.753906 108.195312 56.613281 C 108.613281 56.460938 109.082031 56.382812 109.613281 56.382812 C 110.152344 56.382812 110.582031 56.445312 110.902344 56.570312 C 111.238281 56.695312 111.476562 56.855469 111.632812 57.050781 C 111.800781 57.230469 111.910156 57.464844 111.964844 57.757812 C 112.007812 57.941406 112.027344 58.257812 112.027344 58.714844 L 112.027344 60.132812 C 112.027344 61.105469 112.050781 61.726562 112.089844 61.988281 C 112.132812 62.253906 112.222656 62.503906 112.363281 62.738281 L 111.257812 62.738281 C 111.144531 62.519531 111.074219 62.257812 111.050781 61.964844 Z M 110.964844 59.613281 C 110.574219 59.769531 109.996094 59.898438 109.238281 60.007812 C 108.804688 60.082031 108.496094 60.152344 108.320312 60.238281 C 108.136719 60.308594 107.996094 60.417969 107.902344 60.570312 C 107.804688 60.726562 107.757812 60.894531 107.757812 61.070312 C 107.757812 61.351562 107.863281 61.585938 108.070312 61.777344 C 108.277344 61.960938 108.589844 62.050781 109.007812 62.050781 C 109.410156 62.050781 109.769531 61.960938 110.089844 61.777344 C 110.410156 61.601562 110.644531 61.355469 110.800781 61.050781 C 110.910156 60.816406 110.964844 60.464844 110.964844 60.007812 Z M 110.964844 59.613281 "/>
<path style=" stroke:none;fill-rule:nonzero;fill:rgb(0%,0%,0%);fill-opacity:1;" d="M 115.972656 61.800781 L 116.121094 62.714844 C 115.8125 62.785156 115.546875 62.820312 115.328125 62.820312 C 114.9375 62.820312 114.640625 62.757812 114.433594 62.632812 C 114.222656 62.507812 114.066406 62.351562 113.972656 62.152344 C 113.890625 61.960938 113.847656 61.550781 113.847656 60.925781 L 113.847656 57.339844 L 113.078125 57.339844 L 113.078125 56.507812 L 113.847656 56.507812 L 113.847656 54.964844 L 114.910156 54.339844 L 114.910156 56.507812 L 115.972656 56.507812 L 115.972656 57.339844 L 114.910156 57.339844 L 114.910156 60.964844 C 114.910156 61.273438 114.921875 61.464844 114.953125 61.550781 C 114.996094 61.632812 115.058594 61.707031 115.140625 61.757812 C 115.222656 61.816406 115.339844 61.839844 115.496094 61.839844 C 115.621094 61.839844 115.777344 61.832031 115.972656 61.800781 Z M 115.972656 61.800781 "/>
<path style=" stroke:none;fill-rule:nonzero;fill:rgb(0%,0%,0%);fill-opacity:1;" d="M 116.597656 59.632812 C 116.597656 58.480469 116.917969 57.628906 117.558594 57.070312 C 118.097656 56.613281 118.75 56.382812 119.515625 56.382812 C 120.375 56.382812 121.078125 56.664062 121.621094 57.214844 C 122.160156 57.773438 122.433594 58.542969 122.433594 59.527344 C 122.433594 60.335938 122.308594 60.964844 122.058594 61.425781 C 121.816406 61.882812 121.472656 62.246094 121.015625 62.507812 C 120.558594 62.757812 120.058594 62.882812 119.515625 62.882812 C 118.640625 62.882812 117.933594 62.605469 117.390625 62.050781 C 116.859375 61.480469 116.597656 60.675781 116.597656 59.632812 Z M 117.683594 59.632812 C 117.683594 60.425781 117.855469 61.023438 118.203125 61.425781 C 118.546875 61.816406 118.984375 62.007812 119.515625 62.007812 C 120.042969 62.007812 120.480469 61.816406 120.828125 61.425781 C 121.171875 61.023438 121.347656 60.414062 121.347656 59.589844 C 121.347656 58.832031 121.171875 58.246094 120.828125 57.839844 C 120.480469 57.441406 120.042969 57.238281 119.515625 57.238281 C 118.984375 57.238281 118.546875 57.441406 118.203125 57.839844 C 117.855469 58.230469 117.683594 58.832031 117.683594 59.632812 Z M 117.683594 59.632812 "/>
<path style=" stroke:none;fill-rule:nonzero;fill:rgb(0%,0%,0%);fill-opacity:1;" d="M 123.648438 62.738281 L 123.648438 56.507812 L 124.605469 56.507812 L 124.605469 57.464844 C 124.839844 57.023438 125.066406 56.730469 125.273438 56.589844 C 125.480469 56.457031 125.710938 56.382812 125.960938 56.382812 C 126.304688 56.382812 126.667969 56.496094 127.042969 56.714844 L 126.667969 57.695312 C 126.417969 57.542969 126.160156 57.464844 125.898438 57.464844 C 125.675781 57.464844 125.464844 57.539062 125.273438 57.675781 C 125.089844 57.816406 124.960938 58.007812 124.878906 58.257812 C 124.761719 58.632812 124.710938 59.042969 124.710938 59.488281 L 124.710938 62.738281 Z M 123.648438 62.738281 "/>
<path style=" stroke:none;fill-rule:nonzero;fill:rgb(100%,100%,100%);fill-opacity:1;" d="M 96.53125 116.136719 L 174.933594 116.136719 L 174.933594 89.46875 L 96.53125 89.46875 Z M 96.53125 116.136719 "/>
<path style="fill:none;stroke-width:1;stroke-linecap:round;stroke-linejoin:round;stroke:rgb(0%,0%,0%);stroke-opacity:1;stroke-miterlimit:10;" d="M 340.398438 233.101562 L 399.200195 233.101562 L 399.200195 253.102539 L 340.398438 253.102539 Z M 340.398438 233.101562 " transform="matrix(1.333333,0,0,1.333333,-357.333333,-221.333333)"/>
<path style=" stroke:none;fill-rule:nonzero;fill:rgb(0%,0%,0%);fill-opacity:1;" d="M 119.113281 108.132812 L 119.113281 99.550781 L 122.925781 99.550781 C 123.683594 99.550781 124.269531 99.628906 124.675781 99.777344 C 125.074219 99.933594 125.394531 100.207031 125.632812 100.589844 C 125.867188 100.980469 125.988281 101.414062 125.988281 101.882812 C 125.988281 102.496094 125.785156 103.007812 125.382812 103.425781 C 124.992188 103.839844 124.386719 104.105469 123.570312 104.214844 C 123.863281 104.371094 124.089844 104.519531 124.257812 104.652344 C 124.589844 104.960938 124.902344 105.339844 125.195312 105.800781 L 126.695312 108.132812 L 125.257812 108.132812 L 124.113281 106.339844 C 123.789062 105.832031 123.519531 105.441406 123.300781 105.175781 C 123.089844 104.898438 122.894531 104.707031 122.714844 104.589844 C 122.550781 104.480469 122.382812 104.402344 122.214844 104.363281 C 122.074219 104.335938 121.863281 104.320312 121.570312 104.320312 L 120.257812 104.320312 L 120.257812 108.132812 Z M 120.257812 103.339844 L 122.695312 103.339844 C 123.222656 103.339844 123.632812 103.289062 123.925781 103.175781 C 124.214844 103.066406 124.433594 102.894531 124.589844 102.652344 C 124.742188 102.417969 124.820312 102.164062 124.820312 101.882812 C 124.820312 101.480469 124.664062 101.148438 124.363281 100.882812 C 124.070312 100.621094 123.601562 100.488281 122.964844 100.488281 L 120.257812 100.488281 Z M 120.257812 103.339844 "/>
<path style=" stroke:none;fill-rule:nonzero;fill:rgb(0%,0%,0%);fill-opacity:1;" d="M 131.882812 106.132812 L 132.988281 106.257812 C 132.804688 106.898438 132.476562 107.398438 132.007812 107.757812 C 131.550781 108.105469 130.957031 108.277344 130.238281 108.277344 C 129.332031 108.277344 128.613281 108.003906 128.070312 107.445312 C 127.539062 106.878906 127.277344 106.085938 127.277344 105.070312 C 127.277344 104.027344 127.550781 103.226562 128.089844 102.652344 C 128.632812 102.070312 129.332031 101.777344 130.195312 101.777344 C 131.027344 101.777344 131.699219 102.066406 132.214844 102.632812 C 132.742188 103.191406 133.007812 103.980469 133.007812 105.007812 C 133.007812 105.082031 133.007812 105.175781 133.007812 105.300781 L 128.363281 105.300781 C 128.402344 105.980469 128.597656 106.503906 128.945312 106.863281 C 129.289062 107.226562 129.726562 107.402344 130.257812 107.402344 C 130.644531 107.402344 130.972656 107.308594 131.238281 107.113281 C 131.511719 106.902344 131.726562 106.582031 131.882812 106.132812 Z M 128.425781 104.425781 L 131.902344 104.425781 C 131.863281 103.898438 131.726562 103.503906 131.507812 103.238281 C 131.175781 102.835938 130.738281 102.632812 130.195312 102.632812 C 129.707031 102.632812 129.300781 102.800781 128.964844 103.132812 C 128.644531 103.457031 128.464844 103.882812 128.425781 104.425781 Z M 128.425781 104.425781 "/>
<path style=" stroke:none;fill-rule:nonzero;fill:rgb(0%,0%,0%);fill-opacity:1;" d="M 138.371094 107.363281 C 137.980469 107.695312 137.605469 107.933594 137.246094 108.070312 C 136.878906 108.207031 136.496094 108.277344 136.078125 108.277344 C 135.394531 108.277344 134.871094 108.113281 134.496094 107.777344 C 134.128906 107.445312 133.953125 107.019531 133.953125 106.488281 C 133.953125 106.183594 134.019531 105.902344 134.160156 105.652344 C 134.296875 105.402344 134.480469 105.207031 134.703125 105.050781 C 134.921875 104.898438 135.171875 104.777344 135.453125 104.695312 C 135.660156 104.652344 135.972656 104.605469 136.390625 104.550781 C 137.25 104.457031 137.878906 104.332031 138.285156 104.175781 C 138.285156 104.039062 138.285156 103.945312 138.285156 103.902344 C 138.285156 103.476562 138.1875 103.175781 137.996094 103.007812 C 137.714844 102.757812 137.3125 102.632812 136.785156 102.632812 C 136.285156 102.632812 135.917969 102.726562 135.683594 102.902344 C 135.441406 103.070312 135.269531 103.378906 135.160156 103.820312 L 134.140625 103.695312 C 134.222656 103.253906 134.371094 102.898438 134.578125 102.632812 C 134.796875 102.355469 135.109375 102.148438 135.515625 102.007812 C 135.933594 101.855469 136.402344 101.777344 136.933594 101.777344 C 137.472656 101.777344 137.902344 101.839844 138.222656 101.964844 C 138.558594 102.089844 138.796875 102.253906 138.953125 102.445312 C 139.121094 102.628906 139.230469 102.863281 139.285156 103.152344 C 139.328125 103.335938 139.347656 103.652344 139.347656 104.113281 L 139.347656 105.527344 C 139.347656 106.503906 139.371094 107.121094 139.410156 107.382812 C 139.453125 107.648438 139.542969 107.898438 139.683594 108.132812 L 138.578125 108.132812 C 138.464844 107.914062 138.394531 107.652344 138.371094 107.363281 Z M 138.285156 105.007812 C 137.894531 105.164062 137.316406 105.292969 136.558594 105.402344 C 136.125 105.476562 135.816406 105.550781 135.640625 105.632812 C 135.457031 105.707031 135.316406 105.816406 135.222656 105.964844 C 135.125 106.121094 135.078125 106.289062 135.078125 106.464844 C 135.078125 106.746094 135.183594 106.980469 135.390625 107.175781 C 135.597656 107.355469 135.910156 107.445312 136.328125 107.445312 C 136.730469 107.445312 137.089844 107.355469 137.410156 107.175781 C 137.730469 106.996094 137.964844 106.753906 138.121094 106.445312 C 138.230469 106.210938 138.285156 105.863281 138.285156 105.402344 Z M 138.285156 105.007812 "/>
<path style=" stroke:none;fill-rule:nonzero;fill:rgb(0%,0%,0%);fill-opacity:1;" d="M 140.960938 108.132812 L 140.960938 99.550781 L 142.003906 99.550781 L 142.003906 108.132812 Z M 140.960938 108.132812 "/>
<path style=" stroke:none;fill-rule:nonzero;fill:rgb(0%,0%,0%);fill-opacity:1;" d="M 150.082031 102.445312 C 149.855469 101.363281 149.667969 101.070312 149.25 101.070312 C 148.894531 101.070312 148.355469 101.195312 147.394531 101.550781 L 147.207031 101.613281 L 147.25 101.863281 L 147.542969 101.777344 C 147.855469 101.695312 148.042969 101.675781 148.167969 101.675781 C 148.5625 101.675781 148.6875 101.800781 148.917969 102.757812 L 149.355469 104.738281 L 148.042969 106.589844 C 147.707031 107.070312 147.394531 107.382812 147.230469 107.382812 C 147.125 107.382812 146.980469 107.339844 146.8125 107.238281 C 146.605469 107.132812 146.4375 107.070312 146.292969 107.070312 C 145.980469 107.070312 145.75 107.320312 145.75 107.632812 C 145.75 108.050781 146.0625 108.300781 146.5625 108.300781 C 147.042969 108.300781 147.375 108.175781 148.082031 107.214844 L 149.480469 105.320312 L 149.9375 107.214844 C 150.144531 108.027344 150.375 108.300781 150.894531 108.300781 C 151.5 108.300781 151.917969 107.925781 152.832031 106.488281 L 152.605469 106.339844 C 152.480469 106.507812 152.417969 106.589844 152.269531 106.777344 C 151.894531 107.277344 151.730469 107.425781 151.519531 107.425781 C 151.292969 107.425781 151.144531 107.214844 151.042969 106.777344 L 150.519531 104.632812 C 150.4375 104.238281 150.394531 104.027344 150.394531 103.902344 C 151.105469 102.675781 151.667969 101.964844 151.957031 101.964844 C 152.355469 101.964844 152.5 102.238281 152.792969 102.238281 C 153.125 102.238281 153.332031 102.007812 153.332031 101.675781 C 153.332031 101.320312 153.0625 101.070312 152.6875 101.070312 C 151.980469 101.070312 151.394531 101.652344 150.269531 103.363281 Z M 150.082031 102.445312 "/>
<path style=" stroke:none;fill-rule:nonzero;fill:rgb(100%,100%,100%);fill-opacity:1;" d="M 1.863281 116.136719 L 80.265625 116.136719 L 80.265625 89.46875 L 1.863281 89.46875 Z M 1.863281 116.136719 "/>
<path style="fill:none;stroke-width:1;stroke-linecap:round;stroke-linejoin:round;stroke:rgb(0%,0%,0%);stroke-opacity:1;stroke-miterlimit:10;" d="M 269.397461 233.101562 L 328.199219 233.101562 L 328.199219 253.102539 L 269.397461 253.102539 Z M 269.397461 233.101562 " transform="matrix(1.333333,0,0,1.333333,-357.333333,-221.333333)"/>
<path style=" stroke:none;fill-rule:nonzero;fill:rgb(0%,0%,0%);fill-opacity:1;" d="M 12.824219 108.132812 L 12.824219 99.550781 L 18.617188 99.550781 L 18.617188 100.550781 L 13.96875 100.550781 L 13.96875 103.214844 L 17.992188 103.214844 L 17.992188 104.238281 L 13.96875 104.238281 L 13.96875 108.132812 Z M 12.824219 108.132812 "/>
<path style=" stroke:none;fill-rule:nonzero;fill:rgb(0%,0%,0%);fill-opacity:1;" d="M 24.027344 107.363281 C 23.636719 107.695312 23.261719 107.933594 22.902344 108.070312 C 22.539062 108.207031 22.152344 108.277344 21.738281 108.277344 C 21.054688 108.277344 20.527344 108.113281 20.152344 107.777344 C 19.789062 107.445312 19.613281 107.019531 19.613281 106.488281 C 19.613281 106.183594 19.679688 105.902344 19.820312 105.652344 C 19.957031 105.402344 20.136719 105.207031 20.363281 105.050781 C 20.582031 104.898438 20.832031 104.777344 21.113281 104.695312 C 21.320312 104.652344 21.632812 104.605469 22.050781 104.550781 C 22.910156 104.457031 23.539062 104.332031 23.945312 104.175781 C 23.945312 104.039062 23.945312 103.945312 23.945312 103.902344 C 23.945312 103.476562 23.847656 103.175781 23.652344 103.007812 C 23.371094 102.757812 22.972656 102.632812 22.445312 102.632812 C 21.945312 102.632812 21.574219 102.726562 21.339844 102.902344 C 21.101562 103.070312 20.929688 103.378906 20.820312 103.820312 L 19.800781 103.695312 C 19.882812 103.253906 20.027344 102.898438 20.238281 102.632812 C 20.457031 102.355469 20.769531 102.148438 21.175781 102.007812 C 21.589844 101.855469 22.058594 101.777344 22.589844 101.777344 C 23.132812 101.777344 23.558594 101.839844 23.882812 101.964844 C 24.214844 102.089844 24.457031 102.253906 24.613281 102.445312 C 24.777344 102.628906 24.886719 102.863281 24.945312 103.152344 C 24.988281 103.335938 25.007812 103.652344 25.007812 104.113281 L 25.007812 105.527344 C 25.007812 106.503906 25.027344 107.121094 25.070312 107.382812 C 25.113281 107.648438 25.199219 107.898438 25.339844 108.132812 L 24.238281 108.132812 C 24.121094 107.914062 24.054688 107.652344 24.027344 107.363281 Z M 23.945312 105.007812 C 23.554688 105.164062 22.976562 105.292969 22.214844 105.402344 C 21.785156 105.476562 21.476562 105.550781 21.300781 105.632812 C 21.117188 105.707031 20.976562 105.816406 20.882812 105.964844 C 20.785156 106.121094 20.738281 106.289062 20.738281 106.464844 C 20.738281 106.746094 20.839844 106.980469 21.050781 107.175781 C 21.257812 107.355469 21.570312 107.445312 21.988281 107.445312 C 22.386719 107.445312 22.746094 107.355469 23.070312 107.175781 C 23.386719 106.996094 23.621094 106.753906 23.777344 106.445312 C 23.886719 106.210938 23.945312 105.863281 23.945312 105.402344 Z M 23.945312 105.007812 "/>
<path style=" stroke:none;fill-rule:nonzero;fill:rgb(0%,0%,0%);fill-opacity:1;" d="M 26.640625 108.132812 L 26.640625 99.550781 L 27.703125 99.550781 L 27.703125 104.445312 L 30.203125 101.902344 L 31.558594 101.902344 L 29.183594 104.214844 L 31.808594 108.132812 L 30.496094 108.132812 L 28.453125 104.945312 L 27.703125 105.675781 L 27.703125 108.132812 Z M 26.640625 108.132812 "/>
<path style=" stroke:none;fill-rule:nonzero;fill:rgb(0%,0%,0%);fill-opacity:1;" d="M 36.890625 106.132812 L 37.996094 106.257812 C 37.8125 106.898438 37.484375 107.398438 37.015625 107.757812 C 36.558594 108.105469 35.964844 108.277344 35.246094 108.277344 C 34.339844 108.277344 33.621094 108.003906 33.078125 107.445312 C 32.546875 106.878906 32.285156 106.085938 32.285156 105.070312 C 32.285156 104.027344 32.558594 103.226562 33.097656 102.652344 C 33.640625 102.070312 34.339844 101.777344 35.203125 101.777344 C 36.035156 101.777344 36.707031 102.066406 37.222656 102.632812 C 37.75 103.191406 38.015625 103.980469 38.015625 105.007812 C 38.015625 105.082031 38.015625 105.175781 38.015625 105.300781 L 33.371094 105.300781 C 33.410156 105.980469 33.605469 106.503906 33.953125 106.863281 C 34.296875 107.226562 34.734375 107.402344 35.265625 107.402344 C 35.652344 107.402344 35.980469 107.308594 36.246094 107.113281 C 36.519531 106.902344 36.734375 106.582031 36.890625 106.132812 Z M 33.433594 104.425781 L 36.910156 104.425781 C 36.871094 103.898438 36.734375 103.503906 36.515625 103.238281 C 36.183594 102.835938 35.746094 102.632812 35.203125 102.632812 C 34.714844 102.632812 34.308594 102.800781 33.972656 103.132812 C 33.652344 103.457031 33.472656 103.882812 33.433594 104.425781 Z M 33.433594 104.425781 "/>
<path style=" stroke:none;fill-rule:nonzero;fill:rgb(0%,0%,0%);fill-opacity:1;" d="M 53.398438 103.027344 L 49.128906 103.027344 L 49.128906 103.277344 L 49.648438 103.339844 C 50.167969 103.382812 50.398438 103.570312 50.398438 103.863281 C 50.398438 104.214844 50.316406 104.589844 49.980469 105.675781 C 49.628906 106.902344 49.542969 107.089844 49.355469 107.277344 C 49.003906 107.632812 48.398438 107.820312 47.691406 107.820312 C 45.605469 107.820312 44.441406 106.589844 44.441406 104.488281 C 44.441406 102.714844 45.105469 100.925781 46.148438 99.613281 C 46.917969 98.632812 48.003906 98.027344 49.273438 98.027344 C 50.253906 98.027344 51.023438 98.363281 51.523438 98.964844 C 51.878906 99.402344 52.085938 99.964844 52.105469 100.652344 L 52.398438 100.714844 L 53.191406 97.550781 L 52.941406 97.488281 C 52.667969 97.863281 52.398438 98.027344 51.980469 98.027344 C 51.816406 98.027344 51.648438 98.007812 51.273438 97.863281 C 50.585938 97.589844 49.792969 97.488281 49.128906 97.488281 C 47.878906 97.488281 46.648438 97.902344 45.605469 98.632812 C 43.898438 99.820312 42.691406 101.863281 42.691406 104.113281 C 42.691406 105.195312 43.128906 106.445312 43.878906 107.195312 C 44.691406 108.027344 45.898438 108.425781 47.273438 108.425781 C 48.691406 108.425781 49.835938 108.113281 51.066406 107.425781 L 51.855469 104.445312 C 52.105469 103.527344 52.378906 103.339844 53.398438 103.277344 Z M 53.398438 103.027344 "/>
<path style=" stroke:none;fill-rule:nonzero;fill:rgb(0%,0%,0%);fill-opacity:1;" d="M 58.242188 97.425781 C 56.761719 98.777344 55.886719 99.613281 55.261719 100.613281 C 54.429688 101.964844 54.074219 103.613281 54.074219 105.257812 C 54.074219 107.300781 54.636719 109.382812 55.660156 111.027344 L 55.949219 110.925781 C 55.367188 109.300781 55.179688 108.320312 55.179688 106.777344 C 55.179688 103.507812 56.011719 99.964844 58.449219 97.675781 Z M 58.242188 97.425781 "/>
<path style=" stroke:none;fill-rule:nonzero;fill:rgb(0%,0%,0%);fill-opacity:1;" d="M 64.820312 101.464844 L 64.820312 101.277344 L 60.277344 101.277344 L 59.777344 103.132812 L 60.027344 103.195312 C 60.363281 102.382812 60.652344 102.238281 61.488281 102.238281 L 63.675781 102.238281 L 58.695312 108.195312 L 58.839844 108.339844 C 59.113281 108.132812 59.320312 108.050781 59.570312 108.050781 C 59.988281 108.050781 60.488281 108.257812 61.257812 108.714844 C 62.050781 109.214844 62.589844 109.425781 63.050781 109.425781 C 63.945312 109.425781 64.550781 108.863281 64.550781 108.214844 C 64.550781 107.863281 64.320312 107.613281 63.988281 107.613281 C 63.738281 107.613281 63.464844 107.882812 63.464844 108.175781 C 63.464844 108.300781 63.488281 108.425781 63.589844 108.613281 C 63.632812 108.714844 63.675781 108.777344 63.675781 108.863281 C 63.675781 108.988281 63.488281 109.089844 63.238281 109.089844 C 62.839844 109.089844 62.527344 108.902344 62.113281 108.300781 C 61.464844 107.339844 61.113281 107.175781 60.195312 106.964844 Z M 64.820312 101.464844 "/>
<path style=" stroke:none;fill-rule:nonzero;fill:rgb(0%,0%,0%);fill-opacity:1;" d="M 67.691406 97.507812 C 68.230469 98.800781 68.480469 100.089844 68.480469 101.695312 C 68.480469 103.195312 68.191406 105.050781 67.691406 106.589844 C 67.148438 108.277344 66.566406 109.339844 65.210938 110.777344 L 65.417969 111.007812 C 66.878906 109.757812 67.710938 108.863281 68.335938 107.777344 C 69.128906 106.402344 69.585938 104.882812 69.585938 103.277344 C 69.585938 102.402344 69.480469 101.488281 69.273438 100.589844 C 69.003906 99.402344 68.753906 98.777344 68.003906 97.425781 Z M 67.691406 97.507812 "/>
<path style=" stroke:none;fill-rule:nonzero;fill:rgb(100%,100%,100%);fill-opacity:1;" d="M 42.933594 28.402344 L 140.800781 28.402344 L 140.800781 1.734375 L 42.933594 1.734375 Z M 42.933594 28.402344 "/>
<path style="fill:none;stroke-width:1;stroke-linecap:round;stroke-linejoin:round;stroke:rgb(0%,0%,0%);stroke-opacity:1;stroke-miterlimit:10;" d="M 300.200195 167.300781 L 373.600586 167.300781 L 373.600586 187.301758 L 300.200195 187.301758 Z M 300.200195 167.300781 " transform="matrix(1.333333,0,0,1.333333,-357.333333,-221.333333)"/>
<path style=" stroke:none;fill-rule:nonzero;fill:rgb(0%,0%,0%);fill-opacity:1;" d="M 56.644531 18.871094 L 56.644531 10.285156 L 57.769531 10.285156 L 57.769531 18.871094 Z M 56.644531 18.871094 "/>
<path style=" stroke:none;fill-rule:nonzero;fill:rgb(0%,0%,0%);fill-opacity:1;" d="M 59.226562 17.015625 L 60.269531 16.847656 C 60.320312 17.265625 60.480469 17.589844 60.746094 17.808594 C 61.023438 18.03125 61.398438 18.140625 61.871094 18.140625 C 62.355469 18.140625 62.714844 18.046875 62.957031 17.847656 C 63.191406 17.65625 63.308594 17.425781 63.308594 17.160156 C 63.308594 16.910156 63.207031 16.722656 62.996094 16.597656 C 62.839844 16.503906 62.480469 16.378906 61.914062 16.222656 C 61.132812 16.03125 60.589844 15.863281 60.289062 15.722656 C 59.996094 15.589844 59.773438 15.390625 59.621094 15.140625 C 59.464844 14.890625 59.394531 14.613281 59.394531 14.308594 C 59.394531 14.03125 59.457031 13.777344 59.582031 13.535156 C 59.707031 13.300781 59.878906 13.097656 60.101562 12.933594 C 60.269531 12.824219 60.488281 12.722656 60.769531 12.640625 C 61.058594 12.558594 61.363281 12.515625 61.683594 12.515625 C 62.167969 12.515625 62.589844 12.589844 62.957031 12.722656 C 63.332031 12.863281 63.605469 13.050781 63.789062 13.285156 C 63.964844 13.527344 64.089844 13.84375 64.164062 14.246094 L 63.121094 14.390625 C 63.082031 14.074219 62.941406 13.824219 62.707031 13.640625 C 62.480469 13.464844 62.167969 13.371094 61.769531 13.371094 C 61.277344 13.371094 60.933594 13.453125 60.726562 13.621094 C 60.519531 13.777344 60.414062 13.964844 60.414062 14.183594 C 60.414062 14.324219 60.457031 14.441406 60.539062 14.535156 C 60.621094 14.660156 60.757812 14.761719 60.957031 14.828125 C 61.050781 14.871094 61.355469 14.964844 61.871094 15.097656 C 62.621094 15.296875 63.144531 15.453125 63.433594 15.578125 C 63.738281 15.703125 63.976562 15.890625 64.144531 16.140625 C 64.308594 16.378906 64.394531 16.675781 64.394531 17.035156 C 64.394531 17.402344 64.289062 17.734375 64.082031 18.035156 C 63.871094 18.34375 63.570312 18.589844 63.183594 18.765625 C 62.808594 18.933594 62.371094 19.015625 61.871094 19.015625 C 61.066406 19.015625 60.445312 18.847656 60.019531 18.515625 C 59.601562 18.171875 59.335938 17.671875 59.226562 17.015625 Z M 59.226562 17.015625 "/>
<path style=" stroke:none;fill-rule:nonzero;fill:rgb(0%,0%,0%);fill-opacity:1;" d="M 68.957031 18.871094 L 68.957031 12.640625 L 69.914062 12.640625 L 69.914062 13.597656 C 70.148438 13.15625 70.371094 12.863281 70.582031 12.722656 C 70.789062 12.589844 71.019531 12.515625 71.269531 12.515625 C 71.613281 12.515625 71.976562 12.628906 72.351562 12.847656 L 71.976562 13.828125 C 71.726562 13.675781 71.464844 13.597656 71.207031 13.597656 C 70.980469 13.597656 70.773438 13.671875 70.582031 13.808594 C 70.398438 13.949219 70.269531 14.140625 70.183594 14.390625 C 70.070312 14.765625 70.019531 15.175781 70.019531 15.621094 L 70.019531 18.871094 Z M 68.957031 18.871094 "/>
<path style=" stroke:none;fill-rule:nonzero;fill:rgb(0%,0%,0%);fill-opacity:1;" d="M 77.222656 16.871094 L 78.328125 16.996094 C 78.144531 17.636719 77.816406 18.136719 77.347656 18.496094 C 76.890625 18.84375 76.296875 19.015625 75.578125 19.015625 C 74.671875 19.015625 73.953125 18.738281 73.410156 18.183594 C 72.878906 17.613281 72.617188 16.824219 72.617188 15.808594 C 72.617188 14.765625 72.890625 13.964844 73.429688 13.390625 C 73.972656 12.808594 74.671875 12.515625 75.535156 12.515625 C 76.367188 12.515625 77.039062 12.800781 77.554688 13.371094 C 78.082031 13.925781 78.347656 14.71875 78.347656 15.746094 C 78.347656 15.816406 78.347656 15.910156 78.347656 16.035156 L 73.703125 16.035156 C 73.742188 16.71875 73.9375 17.238281 74.285156 17.597656 C 74.628906 17.964844 75.066406 18.140625 75.597656 18.140625 C 75.984375 18.140625 76.3125 18.046875 76.578125 17.847656 C 76.851562 17.640625 77.066406 17.316406 77.222656 16.871094 Z M 73.765625 15.160156 L 77.242188 15.160156 C 77.203125 14.636719 77.066406 14.238281 76.847656 13.972656 C 76.515625 13.574219 76.078125 13.371094 75.535156 13.371094 C 75.046875 13.371094 74.640625 13.535156 74.304688 13.871094 C 73.984375 14.191406 73.804688 14.621094 73.765625 15.160156 Z M 73.765625 15.160156 "/>
<path style=" stroke:none;fill-rule:nonzero;fill:rgb(0%,0%,0%);fill-opacity:1;" d="M 83.710938 18.097656 C 83.320312 18.433594 82.945312 18.671875 82.585938 18.808594 C 82.21875 18.941406 81.835938 19.015625 81.417969 19.015625 C 80.734375 19.015625 80.210938 18.847656 79.835938 18.515625 C 79.46875 18.183594 79.292969 17.753906 79.292969 17.222656 C 79.292969 16.921875 79.359375 16.640625 79.5 16.390625 C 79.636719 16.140625 79.820312 15.941406 80.042969 15.785156 C 80.261719 15.636719 80.511719 15.515625 80.792969 15.433594 C 81 15.390625 81.3125 15.34375 81.730469 15.285156 C 82.589844 15.191406 83.21875 15.066406 83.625 14.910156 C 83.625 14.777344 83.625 14.683594 83.625 14.640625 C 83.625 14.214844 83.527344 13.910156 83.335938 13.746094 C 83.054688 13.496094 82.652344 13.371094 82.125 13.371094 C 81.625 13.371094 81.257812 13.464844 81.023438 13.640625 C 80.78125 13.808594 80.609375 14.113281 80.5 14.558594 L 79.480469 14.433594 C 79.5625 13.988281 79.710938 13.636719 79.917969 13.371094 C 80.136719 13.09375 80.449219 12.886719 80.855469 12.746094 C 81.273438 12.59375 81.742188 12.515625 82.273438 12.515625 C 82.8125 12.515625 83.242188 12.578125 83.5625 12.703125 C 83.898438 12.828125 84.136719 12.988281 84.292969 13.183594 C 84.460938 13.363281 84.570312 13.597656 84.625 13.890625 C 84.667969 14.074219 84.6875 14.390625 84.6875 14.847656 L 84.6875 16.265625 C 84.6875 17.238281 84.710938 17.859375 84.75 18.121094 C 84.792969 18.386719 84.882812 18.636719 85.023438 18.871094 L 83.917969 18.871094 C 83.804688 18.652344 83.734375 18.390625 83.710938 18.097656 Z M 83.625 15.746094 C 83.234375 15.902344 82.65625 16.03125 81.898438 16.140625 C 81.464844 16.214844 81.15625 16.285156 80.980469 16.371094 C 80.796875 16.441406 80.65625 16.550781 80.5625 16.703125 C 80.464844 16.859375 80.417969 17.027344 80.417969 17.203125 C 80.417969 17.484375 80.523438 17.71875 80.730469 17.910156 C 80.9375 18.09375 81.25 18.183594 81.667969 18.183594 C 82.070312 18.183594 82.429688 18.09375 82.75 17.910156 C 83.070312 17.734375 83.304688 17.488281 83.460938 17.183594 C 83.570312 16.949219 83.625 16.597656 83.625 16.140625 Z M 83.625 15.746094 "/>
<path style=" stroke:none;fill-rule:nonzero;fill:rgb(0%,0%,0%);fill-opacity:1;" d="M 86.300781 18.871094 L 86.300781 10.285156 L 87.34375 10.285156 L 87.34375 18.871094 Z M 86.300781 18.871094 "/>
<path style=" stroke:none;fill-rule:nonzero;fill:rgb(0%,0%,0%);fill-opacity:1;" d="M 91.925781 15.765625 C 91.925781 14.613281 92.242188 13.761719 92.882812 13.203125 C 93.425781 12.746094 94.078125 12.515625 94.84375 12.515625 C 95.703125 12.515625 96.40625 12.796875 96.945312 13.347656 C 97.488281 13.90625 97.757812 14.675781 97.757812 15.660156 C 97.757812 16.46875 97.632812 17.097656 97.382812 17.558594 C 97.144531 18.015625 96.800781 18.378906 96.34375 18.640625 C 95.882812 18.890625 95.382812 19.015625 94.84375 19.015625 C 93.96875 19.015625 93.257812 18.738281 92.71875 18.183594 C 92.1875 17.613281 91.925781 16.808594 91.925781 15.765625 Z M 93.007812 15.765625 C 93.007812 16.558594 93.179688 17.15625 93.53125 17.558594 C 93.875 17.949219 94.3125 18.140625 94.84375 18.140625 C 95.367188 18.140625 95.804688 17.949219 96.15625 17.558594 C 96.5 17.15625 96.675781 16.546875 96.675781 15.722656 C 96.675781 14.964844 96.5 14.378906 96.15625 13.972656 C 95.804688 13.574219 95.367188 13.371094 94.84375 13.371094 C 94.3125 13.371094 93.875 13.574219 93.53125 13.972656 C 93.179688 14.363281 93.007812 14.964844 93.007812 15.765625 Z M 93.007812 15.765625 "/>
<path style=" stroke:none;fill-rule:nonzero;fill:rgb(0%,0%,0%);fill-opacity:1;" d="M 98.976562 18.871094 L 98.976562 12.640625 L 99.933594 12.640625 L 99.933594 13.597656 C 100.167969 13.15625 100.390625 12.863281 100.601562 12.722656 C 100.808594 12.589844 101.039062 12.515625 101.289062 12.515625 C 101.632812 12.515625 101.996094 12.628906 102.371094 12.847656 L 101.996094 13.828125 C 101.746094 13.675781 101.484375 13.597656 101.226562 13.597656 C 101 13.597656 100.792969 13.671875 100.601562 13.808594 C 100.417969 13.949219 100.289062 14.140625 100.203125 14.390625 C 100.089844 14.765625 100.039062 15.175781 100.039062 15.621094 L 100.039062 18.871094 Z M 98.976562 18.871094 "/>
<path style=" stroke:none;fill-rule:nonzero;fill:rgb(0%,0%,0%);fill-opacity:1;" d="M 106.574219 18.871094 L 106.574219 13.472656 L 105.636719 13.472656 L 105.636719 12.640625 L 106.574219 12.640625 L 106.574219 11.996094 C 106.574219 11.566406 106.605469 11.253906 106.679688 11.058594 C 106.789062 10.78125 106.972656 10.558594 107.222656 10.390625 C 107.480469 10.222656 107.847656 10.140625 108.304688 10.140625 C 108.597656 10.140625 108.917969 10.175781 109.285156 10.246094 L 109.117188 11.160156 C 108.910156 11.121094 108.707031 11.097656 108.511719 11.097656 C 108.191406 11.097656 107.960938 11.171875 107.824219 11.308594 C 107.683594 11.449219 107.617188 11.703125 107.617188 12.078125 L 107.617188 12.640625 L 108.847656 12.640625 L 108.847656 13.472656 L 107.617188 13.472656 L 107.617188 18.871094 Z M 106.574219 18.871094 "/>
<path style=" stroke:none;fill-rule:nonzero;fill:rgb(0%,0%,0%);fill-opacity:1;" d="M 113.722656 18.097656 C 113.332031 18.433594 112.957031 18.671875 112.597656 18.808594 C 112.230469 18.941406 111.847656 19.015625 111.429688 19.015625 C 110.746094 19.015625 110.222656 18.847656 109.847656 18.515625 C 109.480469 18.183594 109.304688 17.753906 109.304688 17.222656 C 109.304688 16.921875 109.371094 16.640625 109.511719 16.390625 C 109.648438 16.140625 109.832031 15.941406 110.054688 15.785156 C 110.273438 15.636719 110.523438 15.515625 110.804688 15.433594 C 111.011719 15.390625 111.324219 15.34375 111.742188 15.285156 C 112.601562 15.191406 113.230469 15.066406 113.636719 14.910156 C 113.636719 14.777344 113.636719 14.683594 113.636719 14.640625 C 113.636719 14.214844 113.539062 13.910156 113.347656 13.746094 C 113.066406 13.496094 112.664062 13.371094 112.136719 13.371094 C 111.636719 13.371094 111.269531 13.464844 111.035156 13.640625 C 110.792969 13.808594 110.621094 14.113281 110.511719 14.558594 L 109.492188 14.433594 C 109.574219 13.988281 109.722656 13.636719 109.929688 13.371094 C 110.148438 13.09375 110.460938 12.886719 110.867188 12.746094 C 111.285156 12.59375 111.753906 12.515625 112.285156 12.515625 C 112.824219 12.515625 113.253906 12.578125 113.574219 12.703125 C 113.910156 12.828125 114.148438 12.988281 114.304688 13.183594 C 114.472656 13.363281 114.582031 13.597656 114.636719 13.890625 C 114.679688 14.074219 114.699219 14.390625 114.699219 14.847656 L 114.699219 16.265625 C 114.699219 17.238281 114.722656 17.859375 114.761719 18.121094 C 114.804688 18.386719 114.894531 18.636719 115.035156 18.871094 L 113.929688 18.871094 C 113.816406 18.652344 113.746094 18.390625 113.722656 18.097656 Z M 113.636719 15.746094 C 113.246094 15.902344 112.667969 16.03125 111.910156 16.140625 C 111.476562 16.214844 111.167969 16.285156 110.992188 16.371094 C 110.808594 16.441406 110.667969 16.550781 110.574219 16.703125 C 110.476562 16.859375 110.429688 17.027344 110.429688 17.203125 C 110.429688 17.484375 110.535156 17.71875 110.742188 17.910156 C 110.949219 18.09375 111.261719 18.183594 111.679688 18.183594 C 112.082031 18.183594 112.441406 18.09375 112.761719 17.910156 C 113.082031 17.734375 113.316406 17.488281 113.472656 17.183594 C 113.582031 16.949219 113.636719 16.597656 113.636719 16.140625 Z M 113.636719 15.746094 "/>
<path style=" stroke:none;fill-rule:nonzero;fill:rgb(0%,0%,0%);fill-opacity:1;" d="M 116.332031 18.871094 L 116.332031 10.285156 L 117.394531 10.285156 L 117.394531 15.183594 L 119.894531 12.640625 L 121.25 12.640625 L 118.875 14.953125 L 121.5 18.871094 L 120.1875 18.871094 L 118.144531 15.683594 L 117.394531 16.410156 L 117.394531 18.871094 Z M 116.332031 18.871094 "/>
<path style=" stroke:none;fill-rule:nonzero;fill:rgb(0%,0%,0%);fill-opacity:1;" d="M 126.582031 16.871094 L 127.6875 16.996094 C 127.503906 17.636719 127.175781 18.136719 126.707031 18.496094 C 126.25 18.84375 125.65625 19.015625 124.9375 19.015625 C 124.03125 19.015625 123.3125 18.738281 122.769531 18.183594 C 122.238281 17.613281 121.980469 16.824219 121.980469 15.808594 C 121.980469 14.765625 122.25 13.964844 122.792969 13.390625 C 123.332031 12.808594 124.03125 12.515625 124.894531 12.515625 C 125.730469 12.515625 126.402344 12.800781 126.917969 13.371094 C 127.441406 13.925781 127.707031 14.71875 127.707031 15.746094 C 127.707031 15.816406 127.707031 15.910156 127.707031 16.035156 L 123.0625 16.035156 C 123.105469 16.71875 123.296875 17.238281 123.644531 17.597656 C 123.988281 17.964844 124.425781 18.140625 124.957031 18.140625 C 125.34375 18.140625 125.671875 18.046875 125.9375 17.847656 C 126.214844 17.640625 126.425781 17.316406 126.582031 16.871094 Z M 123.125 15.160156 L 126.605469 15.160156 C 126.5625 14.636719 126.425781 14.238281 126.207031 13.972656 C 125.875 13.574219 125.4375 13.371094 124.894531 13.371094 C 124.40625 13.371094 124 13.535156 123.667969 13.871094 C 123.34375 14.191406 123.167969 14.621094 123.125 15.160156 Z M 123.125 15.160156 "/>
<path style="fill:none;stroke-width:1;stroke-linecap:round;stroke-linejoin:round;stroke:rgb(0%,0%,0%);stroke-opacity:1;stroke-miterlimit:10;" d="M 298.799805 299.198242 L 298.799805 291.897461 " transform="matrix(1.333333,0,0,1.333333,-357.333333,-221.333333)"/>
<path style="fill:none;stroke-width:1;stroke-linecap:butt;stroke-linejoin:miter;stroke:rgb(0%,0%,0%);stroke-opacity:1;stroke-miterlimit:10;" d="M 298.799805 287.898438 L 298.799805 291.897461 M 297.299805 291.897461 L 298.799805 287.898438 L 300.299805 291.897461 " transform="matrix(1.333333,0,0,1.333333,-357.333333,-221.333333)"/>
<path style="fill:none;stroke-width:1;stroke-linecap:round;stroke-linejoin:round;stroke:rgb(0%,0%,0%);stroke-opacity:1;stroke-miterlimit:10;" d="M 298.799805 265.999023 L 298.799805 259 " transform="matrix(1.333333,0,0,1.333333,-357.333333,-221.333333)"/>
<path style="fill:none;stroke-width:1;stroke-linecap:butt;stroke-linejoin:miter;stroke:rgb(0%,0%,0%);stroke-opacity:1;stroke-miterlimit:10;" d="M 298.799805 255.000977 L 298.799805 259 M 297.299805 259 L 298.799805 255.000977 L 300.299805 259 " transform="matrix(1.333333,0,0,1.333333,-357.333333,-221.333333)"/>
<path style="fill:none;stroke-width:1;stroke-linecap:round;stroke-linejoin:round;stroke:rgb(0%,0%,0%);stroke-opacity:1;stroke-miterlimit:10;" d="M 359.801758 233.101562 L 351.071289 224.371094 " transform="matrix(1.333333,0,0,1.333333,-357.333333,-221.333333)"/>
<path style="fill:none;stroke-width:1;stroke-linecap:butt;stroke-linejoin:miter;stroke:rgb(0%,0%,0%);stroke-opacity:1;stroke-miterlimit:10;" d="M 348.241211 221.543945 L 351.071289 224.371094 M 350.010742 225.43457 L 348.241211 221.543945 L 352.131836 223.313477 " transform="matrix(1.333333,0,0,1.333333,-357.333333,-221.333333)"/>
<path style="fill:none;stroke-width:1;stroke-linecap:round;stroke-linejoin:round;stroke:rgb(0%,0%,0%);stroke-opacity:1;stroke-miterlimit:10;" d="M 310.37793 233.101562 L 320.854492 224.054688 " transform="matrix(1.333333,0,0,1.333333,-357.333333,-221.333333)"/>
<path style="fill:none;stroke-width:1;stroke-linecap:butt;stroke-linejoin:miter;stroke:rgb(0%,0%,0%);stroke-opacity:1;stroke-miterlimit:10;" d="M 323.883789 221.441406 L 320.854492 224.054688 M 319.875977 222.920898 L 323.883789 221.441406 L 321.835938 225.191406 " transform="matrix(1.333333,0,0,1.333333,-357.333333,-221.333333)"/>
<path style="fill:none;stroke-width:1;stroke-linecap:round;stroke-linejoin:round;stroke:rgb(0%,0%,0%);stroke-opacity:1;stroke-miterlimit:10;" d="M 336.897461 200.198242 L 336.897461 193.199219 " transform="matrix(1.333333,0,0,1.333333,-357.333333,-221.333333)"/>
<path style="fill:none;stroke-width:1;stroke-linecap:butt;stroke-linejoin:miter;stroke:rgb(0%,0%,0%);stroke-opacity:1;stroke-miterlimit:10;" d="M 336.897461 189.200195 L 336.897461 193.199219 M 335.397461 193.199219 L 336.897461 189.200195 L 338.397461 193.199219 " transform="matrix(1.333333,0,0,1.333333,-357.333333,-221.333333)"/>
</g>
</svg>
