<?xml version="1.0" encoding="UTF-8"?>
<svg xmlns="http://www.w3.org/2000/svg" xmlns:xlink="http://www.w3.org/1999/xlink" width="405.333333" height="45.333333" viewBox="0 0 405.333333 45.333333" version="1.1">
<g id="surface1">
<path style="fill-rule:nonzero;fill:rgb(69.803923%,85.09804%,100%);fill-opacity:1;stroke-width:1;stroke-linecap:round;stroke-linejoin:round;stroke:rgb(0%,0%,0%);stroke-opacity:1;stroke-miterlimit:10;" d="M 123.749023 58.999023 L 175.147461 58.999023 L 175.147461 91.199219 L 123.749023 91.199219 Z M 123.749023 58.999023 " transform="matrix(1.333333,0,0,1.333333,-82.666667,-77.333333)"/>
<path style=" stroke:none;fill-rule:nonzero;fill:rgb(0%,0%,0%);fill-opacity:1;" d="M 95.210938 26.132812 L 95.210938 17.550781 L 101.417969 17.550781 L 101.417969 18.550781 L 96.335938 18.550781 L 96.335938 21.195312 L 101.085938 21.195312 L 101.085938 22.195312 L 96.335938 22.195312 L 96.335938 25.113281 L 101.605469 25.113281 L 101.605469 26.132812 Z M 95.210938 26.132812 "/>
<path style=" stroke:none;fill-rule:nonzero;fill:rgb(0%,0%,0%);fill-opacity:1;" d="M 103.046875 26.132812 L 103.046875 19.902344 L 104.007812 19.902344 L 104.007812 20.800781 C 104.449219 20.121094 105.109375 19.777344 105.984375 19.777344 C 106.359375 19.777344 106.699219 19.851562 107.007812 19.988281 C 107.324219 20.113281 107.558594 20.289062 107.714844 20.507812 C 107.867188 20.714844 107.976562 20.976562 108.046875 21.277344 C 108.089844 21.476562 108.109375 21.816406 108.109375 22.300781 L 108.109375 26.132812 L 107.046875 26.132812 L 107.046875 22.339844 C 107.046875 21.914062 107.007812 21.589844 106.921875 21.382812 C 106.839844 21.175781 106.695312 21.007812 106.484375 20.882812 C 106.277344 20.746094 106.03125 20.675781 105.757812 20.675781 C 105.308594 20.675781 104.921875 20.820312 104.589844 21.113281 C 104.265625 21.394531 104.109375 21.933594 104.109375 22.738281 L 104.109375 26.132812 Z M 103.046875 26.132812 "/>
<path style=" stroke:none;fill-rule:nonzero;fill:rgb(0%,0%,0%);fill-opacity:1;" d="M 113.785156 23.863281 L 114.828125 23.988281 C 114.710938 24.710938 114.421875 25.273438 113.953125 25.675781 C 113.476562 26.082031 112.898438 26.277344 112.222656 26.277344 C 111.375 26.277344 110.691406 26.003906 110.179688 25.445312 C 109.664062 24.894531 109.410156 24.089844 109.410156 23.050781 C 109.410156 22.371094 109.519531 21.777344 109.742188 21.277344 C 109.960938 20.777344 110.296875 20.402344 110.742188 20.152344 C 111.203125 19.902344 111.703125 19.777344 112.242188 19.777344 C 112.910156 19.777344 113.457031 19.957031 113.890625 20.300781 C 114.316406 20.632812 114.597656 21.113281 114.722656 21.738281 L 113.703125 21.902344 C 113.601562 21.488281 113.429688 21.175781 113.179688 20.964844 C 112.929688 20.746094 112.628906 20.632812 112.285156 20.632812 C 111.742188 20.632812 111.304688 20.832031 110.972656 21.214844 C 110.648438 21.589844 110.492188 22.191406 110.492188 23.007812 C 110.492188 23.855469 110.648438 24.464844 110.972656 24.839844 C 111.289062 25.214844 111.707031 25.402344 112.222656 25.402344 C 112.640625 25.402344 112.984375 25.277344 113.265625 25.027344 C 113.539062 24.777344 113.710938 24.394531 113.785156 23.863281 Z M 113.785156 23.863281 "/>
<path style=" stroke:none;fill-rule:nonzero;fill:rgb(0%,0%,0%);fill-opacity:1;" d="M 115.328125 23.027344 C 115.328125 21.878906 115.644531 21.023438 116.285156 20.464844 C 116.828125 20.007812 117.476562 19.777344 118.242188 19.777344 C 119.101562 19.777344 119.804688 20.058594 120.347656 20.613281 C 120.890625 21.167969 121.160156 21.941406 121.160156 22.925781 C 121.160156 23.730469 121.035156 24.363281 120.785156 24.820312 C 120.546875 25.277344 120.203125 25.644531 119.742188 25.902344 C 119.285156 26.152344 118.785156 26.277344 118.242188 26.277344 C 117.367188 26.277344 116.660156 26.003906 116.117188 25.445312 C 115.585938 24.878906 115.328125 24.070312 115.328125 23.027344 Z M 116.410156 23.027344 C 116.410156 23.820312 116.582031 24.417969 116.929688 24.820312 C 117.273438 25.210938 117.710938 25.402344 118.242188 25.402344 C 118.769531 25.402344 119.207031 25.210938 119.554688 24.820312 C 119.898438 24.417969 120.078125 23.808594 120.078125 22.988281 C 120.078125 22.226562 119.898438 21.644531 119.554688 21.238281 C 119.207031 20.835938 118.769531 20.632812 118.242188 20.632812 C 117.710938 20.632812 117.273438 20.835938 116.929688 21.238281 C 116.582031 21.628906 116.410156 22.226562 116.410156 23.027344 Z M 116.410156 23.027344 "/>
<path style=" stroke:none;fill-rule:nonzero;fill:rgb(0%,0%,0%);fill-opacity:1;" d="M 126.4375 26.132812 L 126.4375 25.339844 C 126.03125 25.964844 125.449219 26.277344 124.6875 26.277344 C 124.199219 26.277344 123.75 26.136719 123.335938 25.863281 C 122.917969 25.585938 122.589844 25.207031 122.355469 24.714844 C 122.132812 24.230469 122.023438 23.667969 122.023438 23.027344 C 122.023438 22.402344 122.125 21.839844 122.335938 21.339844 C 122.542969 20.832031 122.84375 20.441406 123.25 20.175781 C 123.667969 19.914062 124.132812 19.777344 124.648438 19.777344 C 125.023438 19.777344 125.355469 19.855469 125.648438 20.007812 C 125.9375 20.164062 126.171875 20.371094 126.355469 20.632812 L 126.355469 17.550781 L 127.417969 17.550781 L 127.417969 26.132812 Z M 123.105469 23.027344 C 123.105469 23.820312 123.273438 24.417969 123.605469 24.820312 C 123.9375 25.210938 124.335938 25.402344 124.792969 25.402344 C 125.25 25.402344 125.636719 25.214844 125.960938 24.839844 C 126.292969 24.464844 126.460938 23.894531 126.460938 23.113281 C 126.460938 22.269531 126.292969 21.644531 125.960938 21.238281 C 125.625 20.835938 125.21875 20.632812 124.75 20.632812 C 124.277344 20.632812 123.882812 20.832031 123.5625 21.214844 C 123.257812 21.605469 123.105469 22.210938 123.105469 23.027344 Z M 123.105469 23.027344 "/>
<path style=" stroke:none;fill-rule:nonzero;fill:rgb(0%,0%,0%);fill-opacity:1;" d="M 133.320312 24.132812 L 134.425781 24.257812 C 134.242188 24.898438 133.914062 25.398438 133.445312 25.757812 C 132.988281 26.105469 132.394531 26.277344 131.675781 26.277344 C 130.769531 26.277344 130.050781 26.003906 129.507812 25.445312 C 128.976562 24.878906 128.71875 24.085938 128.71875 23.070312 C 128.71875 22.027344 128.988281 21.226562 129.53125 20.652344 C 130.070312 20.070312 130.769531 19.777344 131.632812 19.777344 C 132.46875 19.777344 133.140625 20.066406 133.65625 20.632812 C 134.179688 21.191406 134.445312 21.980469 134.445312 23.007812 C 134.445312 23.082031 134.445312 23.175781 134.445312 23.300781 L 129.800781 23.300781 C 129.84375 23.980469 130.035156 24.503906 130.382812 24.863281 C 130.726562 25.226562 131.164062 25.402344 131.695312 25.402344 C 132.082031 25.402344 132.410156 25.308594 132.675781 25.113281 C 132.953125 24.902344 133.164062 24.582031 133.320312 24.132812 Z M 129.863281 22.425781 L 133.34375 22.425781 C 133.300781 21.898438 133.164062 21.503906 132.945312 21.238281 C 132.613281 20.835938 132.175781 20.632812 131.632812 20.632812 C 131.144531 20.632812 130.738281 20.800781 130.40625 21.132812 C 130.082031 21.457031 129.90625 21.882812 129.863281 22.425781 Z M 129.863281 22.425781 "/>
<path style=" stroke:none;fill-rule:nonzero;fill:rgb(0%,0%,0%);fill-opacity:1;" d="M 135.726562 26.132812 L 135.726562 19.902344 L 136.683594 19.902344 L 136.683594 20.863281 C 136.917969 20.417969 137.140625 20.128906 137.351562 19.988281 C 137.558594 19.851562 137.789062 19.777344 138.039062 19.777344 C 138.382812 19.777344 138.746094 19.894531 139.121094 20.113281 L 138.746094 21.089844 C 138.496094 20.941406 138.234375 20.863281 137.976562 20.863281 C 137.75 20.863281 137.542969 20.933594 137.351562 21.070312 C 137.167969 21.210938 137.039062 21.402344 136.953125 21.652344 C 136.839844 22.027344 136.789062 22.441406 136.789062 22.882812 L 136.789062 26.132812 Z M 135.726562 26.132812 "/>
<path style="fill-rule:nonzero;fill:rgb(69.803923%,85.09804%,100%);fill-opacity:1;stroke-width:1;stroke-linecap:round;stroke-linejoin:round;stroke:rgb(0%,0%,0%);stroke-opacity:1;stroke-miterlimit:10;" d="M 253.050781 58.999023 L 304.449219 58.999023 L 304.449219 91.199219 L 253.050781 91.199219 Z M 253.050781 58.999023 " transform="matrix(1.333333,0,0,1.333333,-82.666667,-77.333333)"/>
<path style=" stroke:none;fill-rule:nonzero;fill:rgb(0%,0%,0%);fill-opacity:1;" d="M 267.238281 26.132812 L 267.238281 17.550781 L 270.195312 17.550781 C 270.875 17.550781 271.390625 17.589844 271.738281 17.675781 C 272.222656 17.789062 272.640625 17.988281 272.988281 18.277344 C 273.445312 18.667969 273.785156 19.164062 274.007812 19.757812 C 274.226562 20.339844 274.34375 21.023438 274.34375 21.800781 C 274.34375 22.457031 274.265625 23.027344 274.113281 23.527344 C 273.957031 24.027344 273.765625 24.445312 273.53125 24.777344 C 273.289062 25.113281 273.03125 25.378906 272.738281 25.570312 C 272.457031 25.753906 272.117188 25.894531 271.71875 25.988281 C 271.328125 26.085938 270.867188 26.132812 270.34375 26.132812 Z M 268.382812 25.113281 L 270.21875 25.113281 C 270.785156 25.113281 271.226562 25.066406 271.550781 24.964844 C 271.867188 24.855469 272.125 24.707031 272.320312 24.507812 C 272.582031 24.246094 272.789062 23.882812 272.945312 23.425781 C 273.097656 22.964844 273.175781 22.417969 273.175781 21.777344 C 273.175781 20.878906 273.03125 20.191406 272.738281 19.714844 C 272.445312 19.230469 272.082031 18.902344 271.65625 18.738281 C 271.347656 18.613281 270.863281 18.550781 270.195312 18.550781 L 268.382812 18.550781 Z M 268.382812 25.113281 "/>
<path style=" stroke:none;fill-rule:nonzero;fill:rgb(0%,0%,0%);fill-opacity:1;" d="M 280.03125 24.132812 L 281.132812 24.257812 C 280.953125 24.898438 280.625 25.398438 280.15625 25.757812 C 279.695312 26.105469 279.101562 26.277344 278.382812 26.277344 C 277.476562 26.277344 276.757812 26.003906 276.21875 25.445312 C 275.6875 24.878906 275.425781 24.085938 275.425781 23.070312 C 275.425781 22.027344 275.695312 21.226562 276.238281 20.652344 C 276.78125 20.070312 277.476562 19.777344 278.34375 19.777344 C 279.175781 19.777344 279.847656 20.066406 280.363281 20.632812 C 280.890625 21.191406 281.15625 21.980469 281.15625 23.007812 C 281.15625 23.082031 281.15625 23.175781 281.15625 23.300781 L 276.507812 23.300781 C 276.550781 23.980469 276.742188 24.503906 277.09375 24.863281 C 277.4375 25.226562 277.875 25.402344 278.40625 25.402344 C 278.789062 25.402344 279.117188 25.308594 279.382812 25.113281 C 279.660156 24.902344 279.875 24.582031 280.03125 24.132812 Z M 276.570312 22.425781 L 280.050781 22.425781 C 280.007812 21.898438 279.875 21.503906 279.65625 21.238281 C 279.320312 20.835938 278.882812 20.632812 278.34375 20.632812 C 277.851562 20.632812 277.445312 20.800781 277.113281 21.132812 C 276.789062 21.457031 276.613281 21.882812 276.570312 22.425781 Z M 276.570312 22.425781 "/>
<path style=" stroke:none;fill-rule:nonzero;fill:rgb(0%,0%,0%);fill-opacity:1;" d="M 286.515625 23.863281 L 287.558594 23.988281 C 287.445312 24.710938 287.152344 25.273438 286.683594 25.675781 C 286.210938 26.082031 285.632812 26.277344 284.953125 26.277344 C 284.105469 26.277344 283.421875 26.003906 282.914062 25.445312 C 282.398438 24.894531 282.140625 24.089844 282.140625 23.050781 C 282.140625 22.371094 282.25 21.777344 282.476562 21.277344 C 282.695312 20.777344 283.027344 20.402344 283.476562 20.152344 C 283.933594 19.902344 284.433594 19.777344 284.976562 19.777344 C 285.640625 19.777344 286.1875 19.957031 286.621094 20.300781 C 287.046875 20.632812 287.328125 21.113281 287.453125 21.738281 L 286.433594 21.902344 C 286.335938 21.488281 286.164062 21.175781 285.914062 20.964844 C 285.664062 20.746094 285.359375 20.632812 285.015625 20.632812 C 284.476562 20.632812 284.039062 20.832031 283.703125 21.214844 C 283.382812 21.589844 283.226562 22.191406 283.226562 23.007812 C 283.226562 23.855469 283.382812 24.464844 283.703125 24.839844 C 284.023438 25.214844 284.4375 25.402344 284.953125 25.402344 C 285.371094 25.402344 285.714844 25.277344 285.996094 25.027344 C 286.273438 24.777344 286.445312 24.394531 286.515625 23.863281 Z M 286.515625 23.863281 "/>
<path style=" stroke:none;fill-rule:nonzero;fill:rgb(0%,0%,0%);fill-opacity:1;" d="M 288.058594 23.027344 C 288.058594 21.878906 288.375 21.023438 289.015625 20.464844 C 289.558594 20.007812 290.210938 19.777344 290.976562 19.777344 C 291.835938 19.777344 292.539062 20.058594 293.078125 20.613281 C 293.621094 21.167969 293.890625 21.941406 293.890625 22.925781 C 293.890625 23.730469 293.765625 24.363281 293.515625 24.820312 C 293.277344 25.277344 292.933594 25.644531 292.476562 25.902344 C 292.015625 26.152344 291.515625 26.277344 290.976562 26.277344 C 290.101562 26.277344 289.390625 26.003906 288.851562 25.445312 C 288.320312 24.878906 288.058594 24.070312 288.058594 23.027344 Z M 289.140625 23.027344 C 289.140625 23.820312 289.3125 24.417969 289.664062 24.820312 C 290.007812 25.210938 290.445312 25.402344 290.976562 25.402344 C 291.5 25.402344 291.9375 25.210938 292.289062 24.820312 C 292.632812 24.417969 292.808594 23.808594 292.808594 22.988281 C 292.808594 22.226562 292.632812 21.644531 292.289062 21.238281 C 291.9375 20.835938 291.5 20.632812 290.976562 20.632812 C 290.445312 20.632812 290.007812 20.835938 289.664062 21.238281 C 289.3125 21.628906 289.140625 22.226562 289.140625 23.027344 Z M 289.140625 23.027344 "/>
<path style=" stroke:none;fill-rule:nonzero;fill:rgb(0%,0%,0%);fill-opacity:1;" d="M 299.167969 26.132812 L 299.167969 25.339844 C 298.761719 25.964844 298.179688 26.277344 297.417969 26.277344 C 296.929688 26.277344 296.480469 26.136719 296.066406 25.863281 C 295.648438 25.585938 295.320312 25.207031 295.085938 24.714844 C 294.863281 24.230469 294.753906 23.667969 294.753906 23.027344 C 294.753906 22.402344 294.855469 21.839844 295.066406 21.339844 C 295.273438 20.832031 295.574219 20.441406 295.980469 20.175781 C 296.398438 19.914062 296.863281 19.777344 297.378906 19.777344 C 297.753906 19.777344 298.085938 19.855469 298.378906 20.007812 C 298.667969 20.164062 298.902344 20.371094 299.085938 20.632812 L 299.085938 17.550781 L 300.148438 17.550781 L 300.148438 26.132812 Z M 295.835938 23.027344 C 295.835938 23.820312 296.003906 24.417969 296.335938 24.820312 C 296.667969 25.210938 297.066406 25.402344 297.523438 25.402344 C 297.980469 25.402344 298.367188 25.214844 298.691406 24.839844 C 299.023438 24.464844 299.191406 23.894531 299.191406 23.113281 C 299.191406 22.269531 299.023438 21.644531 298.691406 21.238281 C 298.355469 20.835938 297.949219 20.632812 297.480469 20.632812 C 297.007812 20.632812 296.613281 20.832031 296.292969 21.214844 C 295.988281 21.605469 295.835938 22.210938 295.835938 23.027344 Z M 295.835938 23.027344 "/>
<path style=" stroke:none;fill-rule:nonzero;fill:rgb(0%,0%,0%);fill-opacity:1;" d="M 306.050781 24.132812 L 307.15625 24.257812 C 306.972656 24.898438 306.644531 25.398438 306.175781 25.757812 C 305.71875 26.105469 305.125 26.277344 304.40625 26.277344 C 303.5 26.277344 302.78125 26.003906 302.238281 25.445312 C 301.707031 24.878906 301.449219 24.085938 301.449219 23.070312 C 301.449219 22.027344 301.71875 21.226562 302.261719 20.652344 C 302.800781 20.070312 303.5 19.777344 304.363281 19.777344 C 305.199219 19.777344 305.871094 20.066406 306.386719 20.632812 C 306.910156 21.191406 307.175781 21.980469 307.175781 23.007812 C 307.175781 23.082031 307.175781 23.175781 307.175781 23.300781 L 302.53125 23.300781 C 302.574219 23.980469 302.765625 24.503906 303.113281 24.863281 C 303.457031 25.226562 303.894531 25.402344 304.425781 25.402344 C 304.8125 25.402344 305.140625 25.308594 305.40625 25.113281 C 305.683594 24.902344 305.894531 24.582031 306.050781 24.132812 Z M 302.59375 22.425781 L 306.074219 22.425781 C 306.03125 21.898438 305.894531 21.503906 305.675781 21.238281 C 305.34375 20.835938 304.90625 20.632812 304.363281 20.632812 C 303.875 20.632812 303.46875 20.800781 303.136719 21.132812 C 302.8125 21.457031 302.636719 21.882812 302.59375 22.425781 Z M 302.59375 22.425781 "/>
<path style=" stroke:none;fill-rule:nonzero;fill:rgb(0%,0%,0%);fill-opacity:1;" d="M 308.457031 26.132812 L 308.457031 19.902344 L 309.414062 19.902344 L 309.414062 20.863281 C 309.648438 20.417969 309.871094 20.128906 310.082031 19.988281 C 310.289062 19.851562 310.519531 19.777344 310.769531 19.777344 C 311.113281 19.777344 311.476562 19.894531 311.851562 20.113281 L 311.476562 21.089844 C 311.226562 20.941406 310.964844 20.863281 310.707031 20.863281 C 310.480469 20.863281 310.273438 20.933594 310.082031 21.070312 C 309.898438 21.210938 309.769531 21.402344 309.683594 21.652344 C 309.570312 22.027344 309.519531 22.441406 309.519531 22.882812 L 309.519531 26.132812 Z M 308.457031 26.132812 "/>
<path style="fill:none;stroke-width:1;stroke-linecap:round;stroke-linejoin:round;stroke:rgb(0%,0%,0%);stroke-opacity:1;stroke-miterlimit:10;" d="M 175.147461 75.100586 L 186.801758 75.100586 " transform="matrix(1.333333,0,0,1.333333,-82.666667,-77.333333)"/>
<path style="fill:none;stroke-width:1;stroke-linecap:butt;stroke-linejoin:miter;stroke:rgb(0%,0%,0%);stroke-opacity:1;stroke-miterlimit:10;" d="M 190.800781 75.100586 L 186.801758 75.100586 M 186.801758 73.600586 L 190.800781 75.100586 L 186.801758 76.600586 " transform="matrix(1.333333,0,0,1.333333,-82.666667,-77.333333)"/>
<path style="fill:none;stroke-width:1;stroke-linecap:round;stroke-linejoin:round;stroke:rgb(0%,0%,0%);stroke-opacity:1;stroke-miterlimit:10;" d="M 106.200195 75.100586 L 117.851562 75.100586 " transform="matrix(1.333333,0,0,1.333333,-82.666667,-77.333333)"/>
<path style="fill:none;stroke-width:1;stroke-linecap:butt;stroke-linejoin:miter;stroke:rgb(0%,0%,0%);stroke-opacity:1;stroke-miterlimit:10;" d="M 121.850586 75.100586 L 117.851562 75.100586 M 117.851562 73.600586 L 121.850586 75.100586 L 117.851562 76.600586 " transform="matrix(1.333333,0,0,1.333333,-82.666667,-77.333333)"/>
<path style="fill:none;stroke-width:1;stroke-linecap:round;stroke-linejoin:round;stroke:rgb(0%,0%,0%);stroke-opacity:1;stroke-miterlimit:10;" d="M 304.449219 75.100586 L 316.100586 75.100586 " transform="matrix(1.333333,0,0,1.333333,-82.666667,-77.333333)"/>
<path style="fill:none;stroke-width:1;stroke-linecap:butt;stroke-linejoin:miter;stroke:rgb(0%,0%,0%);stroke-opacity:1;stroke-miterlimit:10;" d="M 320.102539 75.100586 L 316.100586 75.100586 M 316.100586 73.600586 L 320.102539 75.100586 L 316.100586 76.600586 " transform="matrix(1.333333,0,0,1.333333,-82.666667,-77.333333)"/>
<path style="fill-rule:nonzero;fill:rgb(100%,100%,100%);fill-opacity:1;stroke-width:1;stroke-linecap:round;stroke-linejoin:round;stroke:rgb(0%,0%,0%);stroke-opacity:1;stroke-miterlimit:10;" d="M 63.397461 64.600586 L 106.200195 64.600586 L 106.200195 85.600586 L 63.397461 85.600586 Z M 63.397461 64.600586 " transform="matrix(1.333333,0,0,1.333333,-82.666667,-77.333333)"/>
<path style=" stroke:none;fill-rule:nonzero;fill:rgb(0%,0%,0%);fill-opacity:1;" d="M 18.179688 26.132812 L 18.179688 17.550781 L 19.304688 17.550781 L 19.304688 26.132812 Z M 18.179688 26.132812 "/>
<path style=" stroke:none;fill-rule:nonzero;fill:rgb(0%,0%,0%);fill-opacity:1;" d="M 21.179688 26.132812 L 21.179688 19.902344 L 22.140625 19.902344 L 22.140625 20.800781 C 22.582031 20.121094 23.242188 19.777344 24.117188 19.777344 C 24.492188 19.777344 24.832031 19.851562 25.140625 19.988281 C 25.457031 20.113281 25.691406 20.289062 25.847656 20.507812 C 26 20.714844 26.109375 20.976562 26.179688 21.277344 C 26.222656 21.476562 26.242188 21.816406 26.242188 22.300781 L 26.242188 26.132812 L 25.179688 26.132812 L 25.179688 22.339844 C 25.179688 21.914062 25.140625 21.589844 25.054688 21.382812 C 24.972656 21.175781 24.828125 21.007812 24.617188 20.882812 C 24.410156 20.746094 24.164062 20.675781 23.890625 20.675781 C 23.441406 20.675781 23.054688 20.820312 22.722656 21.113281 C 22.398438 21.394531 22.242188 21.933594 22.242188 22.738281 L 22.242188 26.132812 Z M 21.179688 26.132812 "/>
<path style=" stroke:none;fill-rule:nonzero;fill:rgb(0%,0%,0%);fill-opacity:1;" d="M 27.851562 28.507812 L 27.851562 19.902344 L 28.808594 19.902344 L 28.808594 20.714844 C 29.027344 20.398438 29.277344 20.164062 29.558594 20.007812 C 29.851562 19.855469 30.203125 19.777344 30.621094 19.777344 C 31.148438 19.777344 31.609375 19.917969 32.015625 20.195312 C 32.417969 20.460938 32.726562 20.839844 32.933594 21.339844 C 33.140625 21.839844 33.246094 22.382812 33.246094 22.964844 C 33.246094 23.605469 33.125 24.183594 32.890625 24.695312 C 32.667969 25.210938 32.339844 25.605469 31.914062 25.882812 C 31.480469 26.144531 31.023438 26.277344 30.539062 26.277344 C 30.1875 26.277344 29.875 26.199219 29.601562 26.050781 C 29.320312 25.898438 29.089844 25.710938 28.914062 25.488281 L 28.914062 28.507812 Z M 28.808594 23.050781 C 28.808594 23.855469 28.964844 24.457031 29.289062 24.839844 C 29.621094 25.214844 30.015625 25.402344 30.476562 25.402344 C 30.933594 25.402344 31.328125 25.210938 31.664062 24.820312 C 32.007812 24.417969 32.183594 23.800781 32.183594 22.964844 C 32.183594 22.175781 32.015625 21.585938 31.683594 21.195312 C 31.359375 20.792969 30.976562 20.589844 30.515625 20.589844 C 30.070312 20.589844 29.671875 20.808594 29.328125 21.238281 C 28.980469 21.652344 28.808594 22.257812 28.808594 23.050781 Z M 28.808594 23.050781 "/>
<path style=" stroke:none;fill-rule:nonzero;fill:rgb(0%,0%,0%);fill-opacity:1;" d="M 38.601562 26.132812 L 38.601562 25.214844 C 38.113281 25.925781 37.457031 26.277344 36.625 26.277344 C 36.257812 26.277344 35.921875 26.207031 35.601562 26.070312 C 35.28125 25.917969 35.039062 25.738281 34.875 25.527344 C 34.71875 25.320312 34.613281 25.066406 34.5625 24.757812 C 34.519531 24.550781 34.5 24.214844 34.5 23.757812 L 34.5 19.902344 L 35.539062 19.902344 L 35.539062 23.363281 C 35.539062 23.917969 35.566406 24.289062 35.625 24.464844 C 35.675781 24.746094 35.8125 24.964844 36.019531 25.132812 C 36.238281 25.289062 36.507812 25.363281 36.832031 25.363281 C 37.148438 25.363281 37.445312 25.289062 37.726562 25.132812 C 38.003906 24.964844 38.195312 24.746094 38.3125 24.464844 C 38.421875 24.191406 38.476562 23.777344 38.476562 23.238281 L 38.476562 19.902344 L 39.539062 19.902344 L 39.539062 26.132812 Z M 38.601562 26.132812 "/>
<path style=" stroke:none;fill-rule:nonzero;fill:rgb(0%,0%,0%);fill-opacity:1;" d="M 43.5 25.195312 L 43.648438 26.113281 C 43.339844 26.179688 43.074219 26.214844 42.855469 26.214844 C 42.464844 26.214844 42.167969 26.152344 41.960938 26.027344 C 41.75 25.902344 41.59375 25.746094 41.5 25.550781 C 41.417969 25.355469 41.375 24.945312 41.375 24.320312 L 41.375 20.738281 L 40.605469 20.738281 L 40.605469 19.902344 L 41.375 19.902344 L 41.375 18.363281 L 42.4375 17.738281 L 42.4375 19.902344 L 43.5 19.902344 L 43.5 20.738281 L 42.4375 20.738281 L 42.4375 24.363281 C 42.4375 24.667969 42.449219 24.863281 42.480469 24.945312 C 42.523438 25.027344 42.585938 25.101562 42.667969 25.152344 C 42.75 25.210938 42.867188 25.238281 43.023438 25.238281 C 43.148438 25.238281 43.304688 25.226562 43.5 25.195312 Z M 43.5 25.195312 "/>
<path style="fill-rule:nonzero;fill:rgb(100%,100%,100%);fill-opacity:1;stroke-width:1;stroke-linecap:round;stroke-linejoin:round;stroke:rgb(0%,0%,0%);stroke-opacity:1;stroke-miterlimit:10;" d="M 192.699219 64.600586 L 235.499023 64.600586 L 235.499023 85.600586 L 192.699219 85.600586 Z M 192.699219 64.600586 " transform="matrix(1.333333,0,0,1.333333,-82.666667,-77.333333)"/>
<path style=" stroke:none;fill-rule:nonzero;fill:rgb(0%,0%,0%);fill-opacity:1;" d="M 189.332031 23.382812 L 190.394531 23.277344 C 190.445312 23.710938 190.566406 24.066406 190.75 24.339844 C 190.941406 24.621094 191.234375 24.839844 191.625 25.007812 C 192.007812 25.175781 192.445312 25.257812 192.9375 25.257812 C 193.363281 25.257812 193.75 25.195312 194.082031 25.070312 C 194.414062 24.945312 194.664062 24.773438 194.832031 24.550781 C 195 24.316406 195.082031 24.066406 195.082031 23.800781 C 195.082031 23.539062 195 23.308594 194.832031 23.113281 C 194.675781 22.902344 194.421875 22.730469 194.0625 22.589844 C 193.835938 22.496094 193.332031 22.355469 192.539062 22.175781 C 191.75 21.980469 191.191406 21.800781 190.875 21.632812 C 190.46875 21.425781 190.164062 21.164062 189.957031 20.839844 C 189.757812 20.523438 189.664062 20.164062 189.664062 19.757812 C 189.664062 19.332031 189.78125 18.925781 190.019531 18.550781 C 190.269531 18.175781 190.628906 17.894531 191.101562 17.695312 C 191.570312 17.503906 192.101562 17.402344 192.6875 17.402344 C 193.320312 17.402344 193.882812 17.507812 194.375 17.714844 C 194.859375 17.914062 195.226562 18.210938 195.476562 18.613281 C 195.738281 19.019531 195.882812 19.464844 195.914062 19.964844 L 194.8125 20.050781 C 194.753906 19.507812 194.5625 19.101562 194.226562 18.820312 C 193.894531 18.542969 193.394531 18.402344 192.726562 18.402344 C 192.046875 18.402344 191.546875 18.527344 191.226562 18.777344 C 190.90625 19.027344 190.75 19.335938 190.75 19.695312 C 190.75 20.003906 190.859375 20.253906 191.082031 20.445312 C 191.300781 20.652344 191.875 20.863281 192.789062 21.070312 C 193.71875 21.277344 194.359375 21.460938 194.707031 21.613281 C 195.207031 21.835938 195.570312 22.128906 195.8125 22.488281 C 196.046875 22.835938 196.164062 23.246094 196.164062 23.714844 C 196.164062 24.164062 196.03125 24.589844 195.769531 25.007812 C 195.503906 25.414062 195.128906 25.726562 194.644531 25.945312 C 194.15625 26.164062 193.609375 26.277344 193 26.277344 C 192.21875 26.277344 191.566406 26.164062 191.039062 25.945312 C 190.507812 25.710938 190.09375 25.371094 189.789062 24.925781 C 189.5 24.464844 189.34375 23.957031 189.332031 23.382812 Z M 189.332031 23.382812 "/>
<path style=" stroke:none;fill-rule:nonzero;fill:rgb(0%,0%,0%);fill-opacity:1;" d="M 199.898438 25.195312 L 200.042969 26.113281 C 199.738281 26.179688 199.472656 26.214844 199.253906 26.214844 C 198.863281 26.214844 198.566406 26.152344 198.355469 26.027344 C 198.148438 25.902344 197.992188 25.746094 197.898438 25.550781 C 197.816406 25.355469 197.773438 24.945312 197.773438 24.320312 L 197.773438 20.738281 L 197.003906 20.738281 L 197.003906 19.902344 L 197.773438 19.902344 L 197.773438 18.363281 L 198.835938 17.738281 L 198.835938 19.902344 L 199.898438 19.902344 L 199.898438 20.738281 L 198.835938 20.738281 L 198.835938 24.363281 C 198.835938 24.667969 198.847656 24.863281 198.878906 24.945312 C 198.917969 25.027344 198.980469 25.101562 199.066406 25.152344 C 199.148438 25.210938 199.261719 25.238281 199.417969 25.238281 C 199.542969 25.238281 199.699219 25.226562 199.898438 25.195312 Z M 199.898438 25.195312 "/>
<path style=" stroke:none;fill-rule:nonzero;fill:rgb(0%,0%,0%);fill-opacity:1;" d="M 204.980469 25.363281 C 204.589844 25.695312 204.214844 25.933594 203.855469 26.070312 C 203.492188 26.207031 203.105469 26.277344 202.691406 26.277344 C 202.007812 26.277344 201.480469 26.113281 201.105469 25.777344 C 200.742188 25.445312 200.566406 25.019531 200.566406 24.488281 C 200.566406 24.183594 200.632812 23.902344 200.773438 23.652344 C 200.910156 23.402344 201.089844 23.207031 201.316406 23.050781 C 201.535156 22.898438 201.785156 22.777344 202.066406 22.695312 C 202.273438 22.652344 202.585938 22.605469 203.003906 22.550781 C 203.863281 22.457031 204.492188 22.332031 204.898438 22.175781 C 204.898438 22.039062 204.898438 21.945312 204.898438 21.902344 C 204.898438 21.476562 204.800781 21.175781 204.605469 21.007812 C 204.324219 20.757812 203.925781 20.632812 203.398438 20.632812 C 202.898438 20.632812 202.527344 20.726562 202.292969 20.902344 C 202.054688 21.070312 201.882812 21.378906 201.773438 21.820312 L 200.753906 21.695312 C 200.835938 21.253906 200.980469 20.898438 201.191406 20.632812 C 201.410156 20.355469 201.722656 20.148438 202.128906 20.007812 C 202.542969 19.855469 203.011719 19.777344 203.542969 19.777344 C 204.085938 19.777344 204.511719 19.839844 204.835938 19.964844 C 205.167969 20.089844 205.410156 20.253906 205.566406 20.445312 C 205.730469 20.628906 205.839844 20.863281 205.898438 21.152344 C 205.941406 21.335938 205.960938 21.652344 205.960938 22.113281 L 205.960938 23.527344 C 205.960938 24.503906 205.980469 25.121094 206.023438 25.382812 C 206.066406 25.648438 206.152344 25.898438 206.292969 26.132812 L 205.191406 26.132812 C 205.074219 25.914062 205.007812 25.652344 204.980469 25.363281 Z M 204.898438 23.007812 C 204.507812 23.164062 203.929688 23.292969 203.167969 23.402344 C 202.738281 23.476562 202.429688 23.550781 202.253906 23.632812 C 202.070312 23.707031 201.929688 23.816406 201.835938 23.964844 C 201.738281 24.121094 201.691406 24.289062 201.691406 24.464844 C 201.691406 24.746094 201.792969 24.980469 202.003906 25.175781 C 202.210938 25.355469 202.523438 25.445312 202.941406 25.445312 C 203.339844 25.445312 203.699219 25.355469 204.023438 25.175781 C 204.339844 24.996094 204.574219 24.753906 204.730469 24.445312 C 204.839844 24.210938 204.898438 23.863281 204.898438 23.402344 Z M 204.898438 23.007812 "/>
<path style=" stroke:none;fill-rule:nonzero;fill:rgb(0%,0%,0%);fill-opacity:1;" d="M 209.90625 25.195312 L 210.050781 26.113281 C 209.746094 26.179688 209.480469 26.214844 209.261719 26.214844 C 208.871094 26.214844 208.574219 26.152344 208.363281 26.027344 C 208.15625 25.902344 208 25.746094 207.90625 25.550781 C 207.824219 25.355469 207.78125 24.945312 207.78125 24.320312 L 207.78125 20.738281 L 207.011719 20.738281 L 207.011719 19.902344 L 207.78125 19.902344 L 207.78125 18.363281 L 208.84375 17.738281 L 208.84375 19.902344 L 209.90625 19.902344 L 209.90625 20.738281 L 208.84375 20.738281 L 208.84375 24.363281 C 208.84375 24.667969 208.855469 24.863281 208.886719 24.945312 C 208.925781 25.027344 208.988281 25.101562 209.074219 25.152344 C 209.15625 25.210938 209.269531 25.238281 209.425781 25.238281 C 209.550781 25.238281 209.707031 25.226562 209.90625 25.195312 Z M 209.90625 25.195312 "/>
<path style=" stroke:none;fill-rule:nonzero;fill:rgb(0%,0%,0%);fill-opacity:1;" d="M 215.175781 24.132812 L 216.28125 24.257812 C 216.097656 24.898438 215.769531 25.398438 215.300781 25.757812 C 214.84375 26.105469 214.25 26.277344 213.53125 26.277344 C 212.625 26.277344 211.90625 26.003906 211.363281 25.445312 C 210.832031 24.878906 210.574219 24.085938 210.574219 23.070312 C 210.574219 22.027344 210.84375 21.226562 211.386719 20.652344 C 211.925781 20.070312 212.625 19.777344 213.488281 19.777344 C 214.324219 19.777344 214.996094 20.066406 215.511719 20.632812 C 216.035156 21.191406 216.300781 21.980469 216.300781 23.007812 C 216.300781 23.082031 216.300781 23.175781 216.300781 23.300781 L 211.65625 23.300781 C 211.699219 23.980469 211.890625 24.503906 212.238281 24.863281 C 212.582031 25.226562 213.019531 25.402344 213.550781 25.402344 C 213.9375 25.402344 214.265625 25.308594 214.53125 25.113281 C 214.808594 24.902344 215.019531 24.582031 215.175781 24.132812 Z M 211.71875 22.425781 L 215.199219 22.425781 C 215.15625 21.898438 215.019531 21.503906 214.800781 21.238281 C 214.46875 20.835938 214.03125 20.632812 213.488281 20.632812 C 213 20.632812 212.59375 20.800781 212.261719 21.132812 C 211.9375 21.457031 211.761719 21.882812 211.71875 22.425781 Z M 211.71875 22.425781 "/>
<path style="fill-rule:nonzero;fill:rgb(100%,100%,100%);fill-opacity:1;stroke-width:1;stroke-linecap:round;stroke-linejoin:round;stroke:rgb(0%,0%,0%);stroke-opacity:1;stroke-miterlimit:10;" d="M 322.000977 64.600586 L 364.800781 64.600586 L 364.800781 85.600586 L 322.000977 85.600586 Z M 322.000977 64.600586 " transform="matrix(1.333333,0,0,1.333333,-82.666667,-77.333333)"/>
<path style=" stroke:none;fill-rule:nonzero;fill:rgb(0%,0%,0%);fill-opacity:1;" d="M 357.773438 21.945312 C 357.773438 20.527344 358.152344 19.417969 358.917969 18.613281 C 359.679688 17.792969 360.667969 17.382812 361.875 17.382812 C 362.667969 17.382812 363.382812 17.582031 364.023438 17.964844 C 364.65625 18.339844 365.148438 18.871094 365.480469 19.550781 C 365.8125 20.230469 365.980469 20.996094 365.980469 21.839844 C 365.980469 22.714844 365.804688 23.503906 365.460938 24.195312 C 365.109375 24.878906 364.609375 25.398438 363.960938 25.757812 C 363.320312 26.105469 362.625 26.277344 361.875 26.277344 C 361.070312 26.277344 360.34375 26.085938 359.710938 25.695312 C 359.070312 25.308594 358.585938 24.773438 358.25 24.089844 C 357.929688 23.414062 357.773438 22.695312 357.773438 21.945312 Z M 358.9375 21.964844 C 358.9375 23.007812 359.214844 23.832031 359.773438 24.425781 C 360.324219 25.007812 361.027344 25.300781 361.875 25.300781 C 362.71875 25.300781 363.421875 25.003906 363.980469 24.402344 C 364.53125 23.808594 364.8125 22.957031 364.8125 21.839844 C 364.8125 21.148438 364.695312 20.542969 364.460938 20.027344 C 364.21875 19.503906 363.875 19.089844 363.417969 18.800781 C 362.960938 18.507812 362.449219 18.363281 361.898438 18.363281 C 361.089844 18.363281 360.398438 18.644531 359.8125 19.195312 C 359.230469 19.753906 358.9375 20.675781 358.9375 21.964844 Z M 358.9375 21.964844 "/>
<path style=" stroke:none;fill-rule:nonzero;fill:rgb(0%,0%,0%);fill-opacity:1;" d="M 371.398438 26.132812 L 371.398438 25.214844 C 370.90625 25.925781 370.25 26.277344 369.417969 26.277344 C 369.054688 26.277344 368.714844 26.207031 368.398438 26.070312 C 368.074219 25.917969 367.835938 25.738281 367.667969 25.527344 C 367.511719 25.320312 367.40625 25.066406 367.355469 24.757812 C 367.3125 24.550781 367.292969 24.214844 367.292969 23.757812 L 367.292969 19.902344 L 368.335938 19.902344 L 368.335938 23.363281 C 368.335938 23.917969 368.359375 24.289062 368.417969 24.464844 C 368.46875 24.746094 368.605469 24.964844 368.8125 25.132812 C 369.03125 25.289062 369.304688 25.363281 369.625 25.363281 C 369.945312 25.363281 370.242188 25.289062 370.523438 25.132812 C 370.796875 24.964844 370.992188 24.746094 371.105469 24.464844 C 371.214844 24.191406 371.273438 23.777344 371.273438 23.238281 L 371.273438 19.902344 L 372.335938 19.902344 L 372.335938 26.132812 Z M 371.398438 26.132812 "/>
<path style=" stroke:none;fill-rule:nonzero;fill:rgb(0%,0%,0%);fill-opacity:1;" d="M 376.296875 25.195312 L 376.441406 26.113281 C 376.132812 26.179688 375.867188 26.214844 375.648438 26.214844 C 375.257812 26.214844 374.960938 26.152344 374.753906 26.027344 C 374.546875 25.902344 374.390625 25.746094 374.296875 25.550781 C 374.210938 25.355469 374.171875 24.945312 374.171875 24.320312 L 374.171875 20.738281 L 373.398438 20.738281 L 373.398438 19.902344 L 374.171875 19.902344 L 374.171875 18.363281 L 375.234375 17.738281 L 375.234375 19.902344 L 376.296875 19.902344 L 376.296875 20.738281 L 375.234375 20.738281 L 375.234375 24.363281 C 375.234375 24.667969 375.242188 24.863281 375.273438 24.945312 C 375.316406 25.027344 375.378906 25.101562 375.460938 25.152344 C 375.546875 25.210938 375.660156 25.238281 375.816406 25.238281 C 375.941406 25.238281 376.097656 25.226562 376.296875 25.195312 Z M 376.296875 25.195312 "/>
<path style=" stroke:none;fill-rule:nonzero;fill:rgb(0%,0%,0%);fill-opacity:1;" d="M 377.316406 28.507812 L 377.316406 19.902344 L 378.273438 19.902344 L 378.273438 20.714844 C 378.492188 20.398438 378.742188 20.164062 379.023438 20.007812 C 379.316406 19.855469 379.671875 19.777344 380.085938 19.777344 C 380.613281 19.777344 381.078125 19.917969 381.484375 20.195312 C 381.882812 20.460938 382.191406 20.839844 382.398438 21.339844 C 382.609375 21.839844 382.710938 22.382812 382.710938 22.964844 C 382.710938 23.605469 382.59375 24.183594 382.359375 24.695312 C 382.132812 25.210938 381.804688 25.605469 381.378906 25.882812 C 380.945312 26.144531 380.488281 26.277344 380.003906 26.277344 C 379.65625 26.277344 379.34375 26.199219 379.066406 26.050781 C 378.785156 25.898438 378.554688 25.710938 378.378906 25.488281 L 378.378906 28.507812 Z M 378.273438 23.050781 C 378.273438 23.855469 378.429688 24.457031 378.753906 24.839844 C 379.085938 25.214844 379.484375 25.402344 379.941406 25.402344 C 380.398438 25.402344 380.796875 25.210938 381.128906 24.820312 C 381.472656 24.417969 381.648438 23.800781 381.648438 22.964844 C 381.648438 22.175781 381.484375 21.585938 381.148438 21.195312 C 380.828125 20.792969 380.441406 20.589844 379.984375 20.589844 C 379.535156 20.589844 379.140625 20.808594 378.796875 21.238281 C 378.445312 21.652344 378.273438 22.257812 378.273438 23.050781 Z M 378.273438 23.050781 "/>
<path style=" stroke:none;fill-rule:nonzero;fill:rgb(0%,0%,0%);fill-opacity:1;" d="M 388.070312 26.132812 L 388.070312 25.214844 C 387.578125 25.925781 386.921875 26.277344 386.089844 26.277344 C 385.726562 26.277344 385.386719 26.207031 385.070312 26.070312 C 384.746094 25.917969 384.507812 25.738281 384.339844 25.527344 C 384.183594 25.320312 384.078125 25.066406 384.027344 24.757812 C 383.984375 24.550781 383.964844 24.214844 383.964844 23.757812 L 383.964844 19.902344 L 385.007812 19.902344 L 385.007812 23.363281 C 385.007812 23.917969 385.03125 24.289062 385.089844 24.464844 C 385.144531 24.746094 385.277344 24.964844 385.484375 25.132812 C 385.703125 25.289062 385.976562 25.363281 386.296875 25.363281 C 386.617188 25.363281 386.914062 25.289062 387.195312 25.132812 C 387.46875 24.964844 387.664062 24.746094 387.777344 24.464844 C 387.886719 24.191406 387.945312 23.777344 387.945312 23.238281 L 387.945312 19.902344 L 389.007812 19.902344 L 389.007812 26.132812 Z M 388.070312 26.132812 "/>
<path style=" stroke:none;fill-rule:nonzero;fill:rgb(0%,0%,0%);fill-opacity:1;" d="M 392.96875 25.195312 L 393.113281 26.113281 C 392.808594 26.179688 392.542969 26.214844 392.324219 26.214844 C 391.933594 26.214844 391.636719 26.152344 391.425781 26.027344 C 391.21875 25.902344 391.0625 25.746094 390.96875 25.550781 C 390.886719 25.355469 390.84375 24.945312 390.84375 24.320312 L 390.84375 20.738281 L 390.074219 20.738281 L 390.074219 19.902344 L 390.84375 19.902344 L 390.84375 18.363281 L 391.90625 17.738281 L 391.90625 19.902344 L 392.96875 19.902344 L 392.96875 20.738281 L 391.90625 20.738281 L 391.90625 24.363281 C 391.90625 24.667969 391.917969 24.863281 391.949219 24.945312 C 391.988281 25.027344 392.050781 25.101562 392.136719 25.152344 C 392.21875 25.210938 392.332031 25.238281 392.488281 25.238281 C 392.613281 25.238281 392.769531 25.226562 392.96875 25.195312 Z M 392.96875 25.195312 "/>
<path style="fill:none;stroke-width:1;stroke-linecap:round;stroke-linejoin:round;stroke:rgb(0%,0%,0%);stroke-opacity:1;stroke-miterlimit:10;" d="M 235.499023 75.100586 L 247.147461 75.100586 " transform="matrix(1.333333,0,0,1.333333,-82.666667,-77.333333)"/>
<path style="fill:none;stroke-width:1;stroke-linecap:butt;stroke-linejoin:miter;stroke:rgb(0%,0%,0%);stroke-opacity:1;stroke-miterlimit:10;" d="M 251.149414 75.100586 L 247.147461 75.100586 M 247.147461 73.600586 L 251.149414 75.100586 L 247.147461 76.600586 " transform="matrix(1.333333,0,0,1.333333,-82.666667,-77.333333)"/>
</g>
</svg>
