<?xml version="1.0" encoding="UTF-8"?>
<svg xmlns="http://www.w3.org/2000/svg" xmlns:xlink="http://www.w3.org/1999/xlink" width="473.333333" height="149.333333" viewBox="0 0 473.333333 149.333333" version="1.1">
<g id="surface1">
<path style="fill:none;stroke-width:1;stroke-linecap:round;stroke-linejoin:round;stroke:rgb(0%,0%,0%);stroke-opacity:1;stroke-miterlimit:10;" d="M 894.902344 632.829102 L 894.902344 629.219727 M 894.902344 618.21875 L 894.902344 615.898438 " transform="matrix(1.333333,0,0,1.333333,-752,-714.666667)"/>
<path style="fill:none;stroke-width:1;stroke-linecap:butt;stroke-linejoin:miter;stroke:rgb(0%,0%,0%);stroke-opacity:1;stroke-miterlimit:10;" d="M 894.902344 611.899414 L 894.902344 615.898438 M 893.402344 615.898438 L 894.902344 611.899414 L 896.402344 615.898438 " transform="matrix(1.333333,0,0,1.333333,-752,-714.666667)"/>
<path style="fill:none;stroke-width:1;stroke-linecap:round;stroke-linejoin:round;stroke:rgb(0%,0%,0%);stroke-opacity:1;stroke-miterlimit:10;" d="M 851.762695 632.829102 L 851.762695 629.433594 M 851.762695 618.394531 L 851.762695 615.898438 " transform="matrix(1.333333,0,0,1.333333,-752,-714.666667)"/>
<path style="fill:none;stroke-width:1;stroke-linecap:butt;stroke-linejoin:miter;stroke:rgb(0%,0%,0%);stroke-opacity:1;stroke-miterlimit:10;" d="M 851.762695 611.899414 L 851.762695 615.898438 M 850.262695 615.898438 L 851.762695 611.899414 L 853.262695 615.898438 " transform="matrix(1.333333,0,0,1.333333,-752,-714.666667)"/>
<path style="fill:none;stroke-width:1;stroke-linecap:round;stroke-linejoin:round;stroke:rgb(0%,0%,0%);stroke-opacity:1;stroke-miterlimit:10;" d="M 810.19043 632.829102 L 810.19043 629.600586 M 810.19043 618.602539 L 810.19043 615.898438 " transform="matrix(1.333333,0,0,1.333333,-752,-714.666667)"/>
<path style="fill:none;stroke-width:1;stroke-linecap:butt;stroke-linejoin:miter;stroke:rgb(0%,0%,0%);stroke-opacity:1;stroke-miterlimit:10;" d="M 810.19043 611.899414 L 810.19043 615.898438 M 808.69043 615.898438 L 810.19043 611.899414 L 811.69043 615.898438 " transform="matrix(1.333333,0,0,1.333333,-752,-714.666667)"/>
<path style="fill:none;stroke-width:1;stroke-linecap:round;stroke-linejoin:round;stroke:rgb(0%,0%,0%);stroke-opacity:1;stroke-miterlimit:10;" d="M 767.563477 632.829102 L 767.53418 629.84082 M 767.446289 618.836914 L 767.425781 616.507812 " transform="matrix(1.333333,0,0,1.333333,-752,-714.666667)"/>
<path style="fill:none;stroke-width:1;stroke-linecap:butt;stroke-linejoin:miter;stroke:rgb(0%,0%,0%);stroke-opacity:1;stroke-miterlimit:10;" d="M 767.393555 612.508789 L 767.425781 616.507812 M 765.925781 616.519531 L 767.393555 612.508789 L 768.925781 616.496094 " transform="matrix(1.333333,0,0,1.333333,-752,-714.666667)"/>
<path style="fill:none;stroke-width:1;stroke-linecap:round;stroke-linejoin:round;stroke:rgb(0%,0%,0%);stroke-opacity:1;stroke-miterlimit:10;" d="M 738.082031 601.074219 L 745.415039 601.118164 C 748.713867 601.135742 751.379883 603.816406 751.379883 607.118164 L 751.379883 618.321289 C 751.379883 621.628906 754.057617 624.3125 757.368164 624.321289 L 773.367188 624.356445 C 776.680664 624.362305 779.370117 621.68457 779.378906 618.368164 C 779.378906 618.362305 779.378906 618.359375 779.378906 618.356445 L 779.378906 616.270508 " transform="matrix(1.333333,0,0,1.333333,-752,-714.666667)"/>
<path style="fill:none;stroke-width:1;stroke-linecap:butt;stroke-linejoin:miter;stroke:rgb(0%,0%,0%);stroke-opacity:1;stroke-miterlimit:10;" d="M 779.378906 612.268555 L 779.378906 616.270508 M 777.878906 616.270508 L 779.378906 612.268555 L 780.878906 616.270508 " transform="matrix(1.333333,0,0,1.333333,-752,-714.666667)"/>
<path style="fill-rule:nonzero;fill:rgb(69.803923%,85.09804%,100%);fill-opacity:1;stroke-width:1;stroke-linecap:round;stroke-linejoin:round;stroke:rgb(0%,0%,0%);stroke-opacity:1;stroke-miterlimit:10;" d="M 566.879883 592.000977 L 590.879883 592.000977 L 590.879883 610.000977 L 566.879883 610.000977 Z M 566.879883 592.000977 " transform="matrix(1.333333,0,0,1.333333,-752,-714.666667)"/>
<path style=" stroke:none;fill-rule:nonzero;fill:rgb(0%,0%,0%);fill-opacity:1;" d="M 9.769531 125.539062 L 9.769531 117.957031 L 6.957031 117.957031 L 6.957031 116.957031 L 13.75 116.957031 L 13.75 117.957031 L 10.917969 117.957031 L 10.917969 125.539062 Z M 9.769531 125.539062 "/>
<path style=" stroke:none;fill-rule:nonzero;fill:rgb(0%,0%,0%);fill-opacity:1;" d="M 14.789062 125.539062 L 14.789062 116.957031 L 15.851562 116.957031 L 15.851562 120.039062 C 16.335938 119.472656 16.953125 119.1875 17.703125 119.1875 C 18.164062 119.1875 18.558594 119.28125 18.890625 119.457031 C 19.234375 119.640625 19.480469 119.890625 19.621094 120.207031 C 19.773438 120.53125 19.851562 120.992188 19.851562 121.601562 L 19.851562 125.539062 L 18.808594 125.539062 L 18.808594 121.601562 C 18.808594 121.078125 18.6875 120.695312 18.453125 120.457031 C 18.230469 120.207031 17.914062 120.082031 17.496094 120.082031 C 17.171875 120.082031 16.875 120.164062 16.601562 120.332031 C 16.320312 120.488281 16.125 120.703125 16.015625 120.976562 C 15.902344 121.257812 15.851562 121.644531 15.851562 122.144531 L 15.851562 125.539062 Z M 14.789062 125.539062 "/>
<path style=" stroke:none;fill-rule:nonzero;fill:rgb(0%,0%,0%);fill-opacity:1;" d="M 25.707031 123.539062 L 26.8125 123.664062 C 26.628906 124.304688 26.300781 124.804688 25.832031 125.164062 C 25.375 125.515625 24.78125 125.6875 24.0625 125.6875 C 23.15625 125.6875 22.4375 125.410156 21.894531 124.851562 C 21.363281 124.285156 21.101562 123.492188 21.101562 122.476562 C 21.101562 121.4375 21.375 120.632812 21.914062 120.0625 C 22.457031 119.476562 23.15625 119.1875 24.019531 119.1875 C 24.851562 119.1875 25.523438 119.472656 26.039062 120.039062 C 26.566406 120.597656 26.832031 121.390625 26.832031 122.414062 C 26.832031 122.488281 26.832031 122.582031 26.832031 122.707031 L 22.1875 122.707031 C 22.226562 123.390625 22.421875 123.910156 22.769531 124.269531 C 23.113281 124.632812 23.550781 124.8125 24.082031 124.8125 C 24.46875 124.8125 24.796875 124.71875 25.0625 124.519531 C 25.335938 124.3125 25.550781 123.988281 25.707031 123.539062 Z M 22.25 121.832031 L 25.726562 121.832031 C 25.6875 121.304688 25.550781 120.910156 25.332031 120.644531 C 25 120.242188 24.5625 120.039062 24.019531 120.039062 C 23.53125 120.039062 23.125 120.207031 22.789062 120.539062 C 22.46875 120.863281 22.289062 121.289062 22.25 121.832031 Z M 22.25 121.832031 "/>
<path style=" stroke:none;fill-rule:nonzero;fill:rgb(0%,0%,0%);fill-opacity:1;" d="M 28.085938 127.9375 L 27.960938 126.957031 C 28.195312 127.007812 28.398438 127.039062 28.566406 127.039062 C 28.800781 127.039062 28.988281 127 29.128906 126.914062 C 29.261719 126.84375 29.382812 126.738281 29.480469 126.601562 C 29.535156 126.488281 29.636719 126.226562 29.792969 125.8125 C 29.820312 125.753906 29.855469 125.671875 29.898438 125.5625 L 27.523438 119.3125 L 28.667969 119.3125 L 29.960938 122.914062 C 30.128906 123.375 30.277344 123.851562 30.417969 124.351562 C 30.527344 123.882812 30.667969 123.410156 30.835938 122.9375 L 32.167969 119.3125 L 33.230469 119.3125 L 30.855469 125.644531 C 30.605469 126.320312 30.410156 126.796875 30.273438 127.0625 C 30.074219 127.40625 29.863281 127.65625 29.628906 127.8125 C 29.386719 127.976562 29.097656 128.0625 28.753906 128.0625 C 28.554688 128.0625 28.335938 128.019531 28.085938 127.9375 Z M 28.085938 127.9375 "/>
<path style="fill-rule:nonzero;fill:rgb(69.803923%,85.09804%,100%);fill-opacity:1;stroke-width:1;stroke-linecap:round;stroke-linejoin:round;stroke:rgb(0%,0%,0%);stroke-opacity:1;stroke-miterlimit:10;" d="M 603.738281 592.000977 L 627.738281 592.000977 L 627.738281 610.000977 L 603.738281 610.000977 Z M 603.738281 592.000977 " transform="matrix(1.333333,0,0,1.333333,-752,-714.666667)"/>
<path style="fill:none;stroke-width:1;stroke-linecap:round;stroke-linejoin:round;stroke:rgb(0%,0%,0%);stroke-opacity:1;stroke-miterlimit:10;" d="M 590.879883 601.000977 L 597.834961 601.000977 " transform="matrix(1.333333,0,0,1.333333,-752,-714.666667)"/>
<path style="fill:none;stroke-width:1;stroke-linecap:butt;stroke-linejoin:miter;stroke:rgb(0%,0%,0%);stroke-opacity:1;stroke-miterlimit:10;" d="M 601.836914 601.000977 L 597.834961 601.000977 M 597.834961 599.500977 L 601.836914 601.000977 L 597.834961 602.500977 " transform="matrix(1.333333,0,0,1.333333,-752,-714.666667)"/>
<path style="fill:none;stroke-width:1;stroke-linecap:round;stroke-linejoin:round;stroke:rgb(0%,0%,0%);stroke-opacity:1;stroke-miterlimit:10;" d="M 578.967773 620.155273 L 578.950195 615.898438 " transform="matrix(1.333333,0,0,1.333333,-752,-714.666667)"/>
<path style="fill:none;stroke-width:1;stroke-linecap:butt;stroke-linejoin:miter;stroke:rgb(0%,0%,0%);stroke-opacity:1;stroke-miterlimit:10;" d="M 578.929688 611.899414 L 578.950195 615.898438 M 577.450195 615.907227 L 578.929688 611.899414 L 580.450195 615.895508 " transform="matrix(1.333333,0,0,1.333333,-752,-714.666667)"/>
<path style="fill-rule:nonzero;fill:rgb(69.803923%,85.09804%,100%);fill-opacity:1;stroke-width:1;stroke-linecap:round;stroke-linejoin:round;stroke:rgb(0%,0%,0%);stroke-opacity:1;stroke-miterlimit:10;" d="M 640.133789 592.000977 L 664.133789 592.000977 L 664.133789 610.000977 L 640.133789 610.000977 Z M 640.133789 592.000977 " transform="matrix(1.333333,0,0,1.333333,-752,-714.666667)"/>
<path style="fill-rule:nonzero;fill:rgb(69.803923%,85.09804%,100%);fill-opacity:1;stroke-width:1;stroke-linecap:round;stroke-linejoin:round;stroke:rgb(0%,0%,0%);stroke-opacity:1;stroke-miterlimit:10;" d="M 676.277344 592.000977 L 700.277344 592.000977 L 700.277344 610.000977 L 676.277344 610.000977 Z M 676.277344 592.000977 " transform="matrix(1.333333,0,0,1.333333,-752,-714.666667)"/>
<path style="fill-rule:nonzero;fill:rgb(69.803923%,85.09804%,100%);fill-opacity:1;stroke-width:1;stroke-linecap:round;stroke-linejoin:round;stroke:rgb(0%,0%,0%);stroke-opacity:1;stroke-miterlimit:10;" d="M 714.082031 592.000977 L 738.082031 592.000977 L 738.082031 610.000977 L 714.082031 610.000977 Z M 714.082031 592.000977 " transform="matrix(1.333333,0,0,1.333333,-752,-714.666667)"/>
<path style=" stroke:none;fill-rule:nonzero;fill:rgb(0%,0%,0%);fill-opacity:1;" d="M 65.332031 124.769531 C 64.941406 125.101562 64.566406 125.34375 64.207031 125.476562 C 63.84375 125.613281 63.457031 125.6875 63.039062 125.6875 C 62.359375 125.6875 61.832031 125.519531 61.457031 125.1875 C 61.09375 124.851562 60.914062 124.425781 60.914062 123.894531 C 60.914062 123.59375 60.984375 123.3125 61.125 123.0625 C 61.257812 122.8125 61.441406 122.613281 61.664062 122.457031 C 61.882812 122.304688 62.132812 122.1875 62.414062 122.101562 C 62.625 122.0625 62.9375 122.015625 63.351562 121.957031 C 64.210938 121.863281 64.84375 121.738281 65.25 121.582031 C 65.25 121.445312 65.25 121.351562 65.25 121.3125 C 65.25 120.882812 65.148438 120.582031 64.957031 120.414062 C 64.675781 120.164062 64.273438 120.039062 63.75 120.039062 C 63.25 120.039062 62.878906 120.132812 62.644531 120.3125 C 62.40625 120.476562 62.234375 120.785156 62.125 121.226562 L 61.101562 121.101562 C 61.1875 120.660156 61.332031 120.304688 61.539062 120.039062 C 61.757812 119.765625 62.070312 119.554688 62.476562 119.414062 C 62.894531 119.265625 63.363281 119.1875 63.894531 119.1875 C 64.4375 119.1875 64.863281 119.25 65.1875 119.375 C 65.519531 119.5 65.757812 119.660156 65.914062 119.851562 C 66.082031 120.035156 66.191406 120.269531 66.25 120.5625 C 66.289062 120.742188 66.3125 121.0625 66.3125 121.519531 L 66.3125 122.9375 C 66.3125 123.910156 66.332031 124.53125 66.375 124.789062 C 66.414062 125.054688 66.503906 125.304688 66.644531 125.539062 L 65.539062 125.539062 C 65.425781 125.320312 65.359375 125.0625 65.332031 124.769531 Z M 65.25 122.414062 C 64.859375 122.570312 64.28125 122.703125 63.519531 122.8125 C 63.085938 122.882812 62.78125 122.957031 62.601562 123.039062 C 62.421875 123.113281 62.28125 123.222656 62.1875 123.375 C 62.085938 123.53125 62.039062 123.695312 62.039062 123.875 C 62.039062 124.15625 62.144531 124.390625 62.351562 124.582031 C 62.5625 124.765625 62.875 124.851562 63.289062 124.851562 C 63.691406 124.851562 64.050781 124.765625 64.375 124.582031 C 64.691406 124.40625 64.925781 124.160156 65.082031 123.851562 C 65.191406 123.617188 65.25 123.269531 65.25 122.8125 Z M 65.25 122.414062 "/>
<path style=" stroke:none;fill-rule:nonzero;fill:rgb(0%,0%,0%);fill-opacity:1;" d="M 67.921875 125.539062 L 67.921875 119.3125 L 68.882812 119.3125 L 68.882812 120.269531 C 69.117188 119.828125 69.339844 119.535156 69.546875 119.394531 C 69.757812 119.257812 69.984375 119.1875 70.234375 119.1875 C 70.578125 119.1875 70.945312 119.300781 71.320312 119.519531 L 70.945312 120.5 C 70.695312 120.347656 70.433594 120.269531 70.171875 120.269531 C 69.949219 120.269531 69.742188 120.34375 69.546875 120.476562 C 69.367188 120.617188 69.234375 120.8125 69.152344 121.0625 C 69.039062 121.4375 68.984375 121.847656 68.984375 122.289062 L 68.984375 125.539062 Z M 67.921875 125.539062 "/>
<path style=" stroke:none;fill-rule:nonzero;fill:rgb(0%,0%,0%);fill-opacity:1;" d="M 76.191406 123.539062 L 77.292969 123.664062 C 77.113281 124.304688 76.785156 124.804688 76.316406 125.164062 C 75.855469 125.515625 75.261719 125.6875 74.542969 125.6875 C 73.636719 125.6875 72.917969 125.410156 72.378906 124.851562 C 71.847656 124.285156 71.585938 123.492188 71.585938 122.476562 C 71.585938 121.4375 71.855469 120.632812 72.398438 120.0625 C 72.941406 119.476562 73.636719 119.1875 74.503906 119.1875 C 75.335938 119.1875 76.007812 119.472656 76.523438 120.039062 C 77.050781 120.597656 77.316406 121.390625 77.316406 122.414062 C 77.316406 122.488281 77.316406 122.582031 77.316406 122.707031 L 72.667969 122.707031 C 72.710938 123.390625 72.902344 123.910156 73.253906 124.269531 C 73.597656 124.632812 74.035156 124.8125 74.566406 124.8125 C 74.949219 124.8125 75.277344 124.71875 75.542969 124.519531 C 75.820312 124.3125 76.035156 123.988281 76.191406 123.539062 Z M 72.730469 121.832031 L 76.210938 121.832031 C 76.167969 121.304688 76.035156 120.910156 75.816406 120.644531 C 75.480469 120.242188 75.042969 120.039062 74.503906 120.039062 C 74.011719 120.039062 73.605469 120.207031 73.273438 120.539062 C 72.949219 120.863281 72.773438 121.289062 72.730469 121.832031 Z M 72.730469 121.832031 "/>
<path style=" stroke:none;fill-rule:nonzero;fill:rgb(0%,0%,0%);fill-opacity:1;" d="M 95.929688 125.539062 L 94.035156 119.3125 L 95.117188 119.3125 L 96.117188 122.914062 L 96.472656 124.25 C 96.484375 124.179688 96.597656 123.75 96.804688 122.957031 L 97.785156 119.3125 L 98.867188 119.3125 L 99.804688 122.9375 L 100.117188 124.125 L 100.472656 122.914062 L 101.535156 119.3125 L 102.554688 119.3125 L 100.617188 125.539062 L 99.535156 125.539062 L 98.535156 121.8125 L 98.285156 120.75 L 97.035156 125.539062 Z M 95.929688 125.539062 "/>
<path style=" stroke:none;fill-rule:nonzero;fill:rgb(0%,0%,0%);fill-opacity:1;" d="M 107.515625 124.769531 C 107.125 125.101562 106.75 125.34375 106.390625 125.476562 C 106.023438 125.613281 105.640625 125.6875 105.222656 125.6875 C 104.539062 125.6875 104.015625 125.519531 103.640625 125.1875 C 103.273438 124.851562 103.097656 124.425781 103.097656 123.894531 C 103.097656 123.59375 103.164062 123.3125 103.304688 123.0625 C 103.441406 122.8125 103.625 122.613281 103.847656 122.457031 C 104.066406 122.304688 104.316406 122.1875 104.597656 122.101562 C 104.804688 122.0625 105.117188 122.015625 105.535156 121.957031 C 106.394531 121.863281 107.023438 121.738281 107.429688 121.582031 C 107.429688 121.445312 107.429688 121.351562 107.429688 121.3125 C 107.429688 120.882812 107.332031 120.582031 107.140625 120.414062 C 106.859375 120.164062 106.457031 120.039062 105.929688 120.039062 C 105.429688 120.039062 105.0625 120.132812 104.828125 120.3125 C 104.585938 120.476562 104.414062 120.785156 104.304688 121.226562 L 103.285156 121.101562 C 103.367188 120.660156 103.515625 120.304688 103.722656 120.039062 C 103.941406 119.765625 104.253906 119.554688 104.660156 119.414062 C 105.078125 119.265625 105.546875 119.1875 106.078125 119.1875 C 106.617188 119.1875 107.046875 119.25 107.367188 119.375 C 107.703125 119.5 107.941406 119.660156 108.097656 119.851562 C 108.265625 120.035156 108.375 120.269531 108.429688 120.5625 C 108.472656 120.742188 108.492188 121.0625 108.492188 121.519531 L 108.492188 122.9375 C 108.492188 123.910156 108.515625 124.53125 108.554688 124.789062 C 108.597656 125.054688 108.6875 125.304688 108.828125 125.539062 L 107.722656 125.539062 C 107.609375 125.320312 107.539062 125.0625 107.515625 124.769531 Z M 107.429688 122.414062 C 107.039062 122.570312 106.460938 122.703125 105.703125 122.8125 C 105.269531 122.882812 104.960938 122.957031 104.785156 123.039062 C 104.601562 123.113281 104.460938 123.222656 104.367188 123.375 C 104.269531 123.53125 104.222656 123.695312 104.222656 123.875 C 104.222656 124.15625 104.328125 124.390625 104.535156 124.582031 C 104.742188 124.765625 105.054688 124.851562 105.472656 124.851562 C 105.875 124.851562 106.234375 124.765625 106.554688 124.582031 C 106.875 124.40625 107.109375 124.160156 107.265625 123.851562 C 107.375 123.617188 107.429688 123.269531 107.429688 122.8125 Z M 107.429688 122.414062 "/>
<path style=" stroke:none;fill-rule:nonzero;fill:rgb(0%,0%,0%);fill-opacity:1;" d="M 112.4375 124.601562 L 112.585938 125.519531 C 112.277344 125.585938 112.011719 125.625 111.792969 125.625 C 111.402344 125.625 111.105469 125.5625 110.898438 125.4375 C 110.6875 125.3125 110.53125 125.15625 110.4375 124.957031 C 110.355469 124.765625 110.3125 124.351562 110.3125 123.726562 L 110.3125 120.144531 L 109.542969 120.144531 L 109.542969 119.3125 L 110.3125 119.3125 L 110.3125 117.769531 L 111.375 117.144531 L 111.375 119.3125 L 112.4375 119.3125 L 112.4375 120.144531 L 111.375 120.144531 L 111.375 123.769531 C 111.375 124.078125 111.386719 124.269531 111.417969 124.351562 C 111.460938 124.4375 111.523438 124.507812 111.605469 124.5625 C 111.6875 124.617188 111.804688 124.644531 111.960938 124.644531 C 112.085938 124.644531 112.242188 124.632812 112.4375 124.601562 Z M 112.4375 124.601562 "/>
<path style=" stroke:none;fill-rule:nonzero;fill:rgb(0%,0%,0%);fill-opacity:1;" d="M 117.523438 123.269531 L 118.5625 123.394531 C 118.449219 124.117188 118.15625 124.679688 117.6875 125.082031 C 117.214844 125.488281 116.636719 125.6875 115.960938 125.6875 C 115.109375 125.6875 114.429688 125.410156 113.917969 124.851562 C 113.402344 124.300781 113.148438 123.5 113.148438 122.457031 C 113.148438 121.78125 113.257812 121.1875 113.480469 120.6875 C 113.699219 120.1875 114.03125 119.8125 114.480469 119.5625 C 114.9375 119.3125 115.4375 119.1875 115.980469 119.1875 C 116.648438 119.1875 117.195312 119.363281 117.625 119.707031 C 118.054688 120.039062 118.335938 120.519531 118.460938 121.144531 L 117.4375 121.3125 C 117.339844 120.894531 117.167969 120.582031 116.917969 120.375 C 116.667969 120.15625 116.367188 120.039062 116.023438 120.039062 C 115.480469 120.039062 115.042969 120.238281 114.710938 120.625 C 114.386719 121 114.230469 121.597656 114.230469 122.414062 C 114.230469 123.265625 114.386719 123.875 114.710938 124.25 C 115.027344 124.625 115.445312 124.8125 115.960938 124.8125 C 116.375 124.8125 116.71875 124.6875 117 124.4375 C 117.277344 124.1875 117.449219 123.800781 117.523438 123.269531 Z M 117.523438 123.269531 "/>
<path style=" stroke:none;fill-rule:nonzero;fill:rgb(0%,0%,0%);fill-opacity:1;" d="M 119.460938 125.539062 L 119.460938 116.957031 L 120.523438 116.957031 L 120.523438 120.039062 C 121.007812 119.472656 121.625 119.1875 122.375 119.1875 C 122.835938 119.1875 123.230469 119.28125 123.5625 119.457031 C 123.90625 119.640625 124.152344 119.890625 124.292969 120.207031 C 124.445312 120.53125 124.523438 120.992188 124.523438 121.601562 L 124.523438 125.539062 L 123.480469 125.539062 L 123.480469 121.601562 C 123.480469 121.078125 123.359375 120.695312 123.125 120.457031 C 122.902344 120.207031 122.585938 120.082031 122.167969 120.082031 C 121.84375 120.082031 121.546875 120.164062 121.273438 120.332031 C 120.992188 120.488281 120.796875 120.703125 120.6875 120.976562 C 120.574219 121.257812 120.523438 121.644531 120.523438 122.144531 L 120.523438 125.539062 Z M 119.460938 125.539062 "/>
<path style=" stroke:none;fill-rule:nonzero;fill:rgb(0%,0%,0%);fill-opacity:1;" d="M 126.132812 118.164062 L 126.132812 116.957031 L 127.195312 116.957031 L 127.195312 118.164062 Z M 126.132812 125.539062 L 126.132812 119.3125 L 127.195312 119.3125 L 127.195312 125.539062 Z M 126.132812 125.539062 "/>
<path style=" stroke:none;fill-rule:nonzero;fill:rgb(0%,0%,0%);fill-opacity:1;" d="M 128.800781 125.539062 L 128.800781 119.3125 L 129.757812 119.3125 L 129.757812 120.207031 C 130.203125 119.53125 130.863281 119.1875 131.738281 119.1875 C 132.113281 119.1875 132.453125 119.257812 132.757812 119.394531 C 133.078125 119.519531 133.3125 119.695312 133.46875 119.914062 C 133.617188 120.125 133.726562 120.382812 133.800781 120.6875 C 133.84375 120.882812 133.863281 121.222656 133.863281 121.707031 L 133.863281 125.539062 L 132.800781 125.539062 L 132.800781 121.75 C 132.800781 121.320312 132.757812 121 132.675781 120.789062 C 132.59375 120.582031 132.445312 120.414062 132.238281 120.289062 C 132.03125 120.15625 131.785156 120.082031 131.507812 120.082031 C 131.0625 120.082031 130.675781 120.226562 130.34375 120.519531 C 130.019531 120.800781 129.863281 121.34375 129.863281 122.144531 L 129.863281 125.539062 Z M 128.800781 125.539062 "/>
<path style=" stroke:none;fill-rule:nonzero;fill:rgb(0%,0%,0%);fill-opacity:1;" d="M 135.289062 126.0625 L 136.308594 126.207031 C 136.351562 126.523438 136.464844 126.753906 136.664062 126.894531 C 136.921875 127.085938 137.289062 127.1875 137.746094 127.1875 C 138.230469 127.1875 138.605469 127.085938 138.871094 126.894531 C 139.132812 126.695312 139.3125 126.425781 139.414062 126.082031 C 139.464844 125.859375 139.484375 125.410156 139.476562 124.726562 C 139.015625 125.269531 138.445312 125.539062 137.765625 125.539062 C 136.902344 125.539062 136.234375 125.238281 135.765625 124.625 C 135.308594 124 135.078125 123.257812 135.078125 122.394531 C 135.078125 121.800781 135.183594 121.25 135.390625 120.75 C 135.609375 120.25 135.921875 119.867188 136.328125 119.601562 C 136.730469 119.328125 137.210938 119.1875 137.765625 119.1875 C 138.5 119.1875 139.105469 119.476562 139.578125 120.0625 L 139.578125 119.3125 L 140.558594 119.3125 L 140.558594 124.6875 C 140.558594 125.65625 140.453125 126.34375 140.246094 126.75 C 140.046875 127.148438 139.734375 127.46875 139.308594 127.707031 C 138.890625 127.941406 138.371094 128.0625 137.746094 128.0625 C 136.996094 128.0625 136.390625 127.894531 135.933594 127.5625 C 135.484375 127.226562 135.273438 126.726562 135.289062 126.0625 Z M 136.164062 122.3125 C 136.164062 123.132812 136.320312 123.726562 136.640625 124.101562 C 136.960938 124.476562 137.359375 124.664062 137.851562 124.664062 C 138.335938 124.664062 138.746094 124.476562 139.078125 124.101562 C 139.414062 123.726562 139.578125 123.144531 139.578125 122.351562 C 139.578125 121.59375 139.402344 121.015625 139.058594 120.625 C 138.726562 120.238281 138.320312 120.039062 137.851562 120.039062 C 137.375 120.039062 136.976562 120.238281 136.640625 120.625 C 136.320312 121 136.164062 121.5625 136.164062 122.3125 Z M 136.164062 122.3125 "/>
<path style=" stroke:none;fill-rule:nonzero;fill:rgb(0%,0%,0%);fill-opacity:1;" d="M 165.285156 125.539062 L 165.285156 124.332031 L 166.496094 124.332031 L 166.496094 125.539062 Z M 165.285156 125.539062 "/>
<path style=" stroke:none;fill-rule:nonzero;fill:rgb(0%,0%,0%);fill-opacity:1;" d="M 200.261719 121.789062 L 200.261719 120.789062 L 205.949219 118.394531 L 205.949219 119.4375 L 201.429688 121.289062 L 205.949219 123.164062 L 205.949219 124.207031 Z M 200.261719 121.789062 "/>
<path style=" stroke:none;fill-rule:nonzero;fill:rgb(0%,0%,0%);fill-opacity:1;" d="M 211.644531 123.539062 L 212.75 123.664062 C 212.566406 124.304688 212.238281 124.804688 211.769531 125.164062 C 211.3125 125.515625 210.71875 125.6875 210 125.6875 C 209.09375 125.6875 208.375 125.410156 207.832031 124.851562 C 207.300781 124.285156 207.039062 123.492188 207.039062 122.476562 C 207.039062 121.4375 207.3125 120.632812 207.851562 120.0625 C 208.394531 119.476562 209.09375 119.1875 209.957031 119.1875 C 210.789062 119.1875 211.460938 119.472656 211.976562 120.039062 C 212.503906 120.597656 212.769531 121.390625 212.769531 122.414062 C 212.769531 122.488281 212.769531 122.582031 212.769531 122.707031 L 208.125 122.707031 C 208.164062 123.390625 208.359375 123.910156 208.707031 124.269531 C 209.050781 124.632812 209.488281 124.8125 210.019531 124.8125 C 210.40625 124.8125 210.734375 124.71875 211 124.519531 C 211.273438 124.3125 211.488281 123.988281 211.644531 123.539062 Z M 208.1875 121.832031 L 211.664062 121.832031 C 211.625 121.304688 211.488281 120.910156 211.269531 120.644531 C 210.9375 120.242188 210.5 120.039062 209.957031 120.039062 C 209.46875 120.039062 209.0625 120.207031 208.726562 120.539062 C 208.40625 120.863281 208.226562 121.289062 208.1875 121.832031 Z M 208.1875 121.832031 "/>
<path style=" stroke:none;fill-rule:nonzero;fill:rgb(0%,0%,0%);fill-opacity:1;" d="M 213.671875 122.4375 C 213.671875 121.285156 213.992188 120.429688 214.632812 119.875 C 215.171875 119.414062 215.824219 119.1875 216.589844 119.1875 C 217.449219 119.1875 218.152344 119.46875 218.695312 120.019531 C 219.234375 120.578125 219.507812 121.347656 219.507812 122.332031 C 219.507812 123.140625 219.382812 123.769531 219.132812 124.226562 C 218.890625 124.6875 218.546875 125.050781 218.089844 125.3125 C 217.632812 125.5625 217.132812 125.6875 216.589844 125.6875 C 215.714844 125.6875 215.007812 125.410156 214.464844 124.851562 C 213.933594 124.285156 213.671875 123.476562 213.671875 122.4375 Z M 214.757812 122.4375 C 214.757812 123.226562 214.929688 123.828125 215.277344 124.226562 C 215.621094 124.617188 216.058594 124.8125 216.589844 124.8125 C 217.117188 124.8125 217.554688 124.617188 217.902344 124.226562 C 218.246094 123.828125 218.421875 123.21875 218.421875 122.394531 C 218.421875 121.632812 218.246094 121.050781 217.902344 120.644531 C 217.554688 120.242188 217.117188 120.039062 216.589844 120.039062 C 216.058594 120.039062 215.621094 120.242188 215.277344 120.644531 C 214.929688 121.035156 214.757812 121.632812 214.757812 122.4375 Z M 214.757812 122.4375 "/>
<path style=" stroke:none;fill-rule:nonzero;fill:rgb(0%,0%,0%);fill-opacity:1;" d="M 220.328125 123.6875 L 221.367188 123.519531 C 221.421875 123.9375 221.582031 124.257812 221.847656 124.476562 C 222.125 124.703125 222.5 124.8125 222.972656 124.8125 C 223.457031 124.8125 223.816406 124.71875 224.054688 124.519531 C 224.289062 124.328125 224.410156 124.097656 224.410156 123.832031 C 224.410156 123.582031 224.304688 123.394531 224.097656 123.269531 C 223.941406 123.175781 223.582031 123.050781 223.015625 122.894531 C 222.234375 122.703125 221.691406 122.535156 221.390625 122.394531 C 221.097656 122.257812 220.875 122.0625 220.722656 121.8125 C 220.566406 121.5625 220.492188 121.285156 220.492188 120.976562 C 220.492188 120.703125 220.554688 120.445312 220.679688 120.207031 C 220.804688 119.972656 220.976562 119.769531 221.203125 119.601562 C 221.367188 119.492188 221.585938 119.394531 221.867188 119.3125 C 222.160156 119.226562 222.460938 119.1875 222.785156 119.1875 C 223.269531 119.1875 223.691406 119.257812 224.054688 119.394531 C 224.429688 119.535156 224.707031 119.722656 224.890625 119.957031 C 225.066406 120.195312 225.191406 120.515625 225.265625 120.914062 L 224.222656 121.0625 C 224.179688 120.742188 224.039062 120.492188 223.804688 120.3125 C 223.582031 120.132812 223.269531 120.039062 222.867188 120.039062 C 222.378906 120.039062 222.035156 120.125 221.828125 120.289062 C 221.617188 120.445312 221.515625 120.632812 221.515625 120.851562 C 221.515625 120.992188 221.554688 121.113281 221.640625 121.207031 C 221.722656 121.332031 221.859375 121.429688 222.054688 121.5 C 222.148438 121.539062 222.457031 121.632812 222.972656 121.769531 C 223.722656 121.96875 224.242188 122.125 224.535156 122.25 C 224.835938 122.375 225.078125 122.5625 225.242188 122.8125 C 225.410156 123.050781 225.492188 123.347656 225.492188 123.707031 C 225.492188 124.070312 225.390625 124.40625 225.179688 124.707031 C 224.972656 125.015625 224.671875 125.257812 224.285156 125.4375 C 223.910156 125.601562 223.472656 125.6875 222.972656 125.6875 C 222.164062 125.6875 221.546875 125.519531 221.117188 125.1875 C 220.703125 124.84375 220.4375 124.34375 220.328125 123.6875 Z M 220.328125 123.6875 "/>
<path style=" stroke:none;fill-rule:nonzero;fill:rgb(0%,0%,0%);fill-opacity:1;" d="M 232.304688 121.789062 L 226.617188 124.207031 L 226.617188 123.164062 L 231.117188 121.289062 L 226.617188 119.4375 L 226.617188 118.394531 L 232.304688 120.789062 Z M 232.304688 121.789062 "/>
<path style="fill:none;stroke-width:1;stroke-linecap:round;stroke-linejoin:round;stroke:rgb(0%,0%,0%);stroke-opacity:1;stroke-miterlimit:10;" d="M 759.37793 592.000977 L 783.37793 592.000977 L 783.37793 610.000977 L 759.37793 610.000977 Z M 759.37793 592.000977 " transform="matrix(1.333333,0,0,1.333333,-752,-714.666667)"/>
<path style="fill:none;stroke-width:1;stroke-linecap:round;stroke-linejoin:round;stroke:rgb(0%,0%,0%);stroke-opacity:1;stroke-miterlimit:10;" d="M 802.379883 592.000977 L 826.379883 592.000977 L 826.379883 610.000977 L 802.379883 610.000977 Z M 802.379883 592.000977 " transform="matrix(1.333333,0,0,1.333333,-752,-714.666667)"/>
<path style="fill:none;stroke-width:1;stroke-linecap:round;stroke-linejoin:round;stroke:rgb(0%,0%,0%);stroke-opacity:1;stroke-miterlimit:10;" d="M 845.803711 592.000977 L 869.803711 592.000977 L 869.803711 610.000977 L 845.803711 610.000977 Z M 845.803711 592.000977 " transform="matrix(1.333333,0,0,1.333333,-752,-714.666667)"/>
<path style="fill:none;stroke-width:1;stroke-linecap:round;stroke-linejoin:round;stroke:rgb(0%,0%,0%);stroke-opacity:1;stroke-miterlimit:10;" d="M 888.65332 592.000977 L 912.65332 592.000977 L 912.65332 610.000977 L 888.65332 610.000977 Z M 888.65332 592.000977 " transform="matrix(1.333333,0,0,1.333333,-752,-714.666667)"/>
<path style="fill:none;stroke-width:1;stroke-linecap:round;stroke-linejoin:round;stroke:rgb(0%,0%,0%);stroke-opacity:1;stroke-miterlimit:10;" d="M 615.829102 620.155273 L 615.808594 615.898438 " transform="matrix(1.333333,0,0,1.333333,-752,-714.666667)"/>
<path style="fill:none;stroke-width:1;stroke-linecap:butt;stroke-linejoin:miter;stroke:rgb(0%,0%,0%);stroke-opacity:1;stroke-miterlimit:10;" d="M 615.788086 611.899414 L 615.808594 615.898438 M 614.308594 615.907227 L 615.788086 611.899414 L 617.308594 615.895508 " transform="matrix(1.333333,0,0,1.333333,-752,-714.666667)"/>
<path style="fill:none;stroke-width:1;stroke-linecap:round;stroke-linejoin:round;stroke:rgb(0%,0%,0%);stroke-opacity:1;stroke-miterlimit:10;" d="M 627.738281 601.000977 L 634.230469 601.000977 " transform="matrix(1.333333,0,0,1.333333,-752,-714.666667)"/>
<path style="fill:none;stroke-width:1;stroke-linecap:butt;stroke-linejoin:miter;stroke:rgb(0%,0%,0%);stroke-opacity:1;stroke-miterlimit:10;" d="M 638.229492 601.000977 L 634.230469 601.000977 M 634.230469 599.500977 L 638.229492 601.000977 L 634.230469 602.500977 " transform="matrix(1.333333,0,0,1.333333,-752,-714.666667)"/>
<path style="fill:none;stroke-width:1;stroke-linecap:round;stroke-linejoin:round;stroke:rgb(0%,0%,0%);stroke-opacity:1;stroke-miterlimit:10;" d="M 664.133789 601.000977 L 670.379883 601.000977 " transform="matrix(1.333333,0,0,1.333333,-752,-714.666667)"/>
<path style="fill:none;stroke-width:1;stroke-linecap:butt;stroke-linejoin:miter;stroke:rgb(0%,0%,0%);stroke-opacity:1;stroke-miterlimit:10;" d="M 674.378906 601.000977 L 670.379883 601.000977 M 670.379883 599.500977 L 674.378906 601.000977 L 670.379883 602.500977 " transform="matrix(1.333333,0,0,1.333333,-752,-714.666667)"/>
<path style="fill:none;stroke-width:1;stroke-linecap:round;stroke-linejoin:round;stroke:rgb(0%,0%,0%);stroke-opacity:1;stroke-miterlimit:10;" d="M 700.277344 601.000977 L 708.18457 601.000977 " transform="matrix(1.333333,0,0,1.333333,-752,-714.666667)"/>
<path style="fill:none;stroke-width:1;stroke-linecap:butt;stroke-linejoin:miter;stroke:rgb(0%,0%,0%);stroke-opacity:1;stroke-miterlimit:10;" d="M 712.183594 601.000977 L 708.18457 601.000977 M 708.18457 599.500977 L 712.183594 601.000977 L 708.18457 602.500977 " transform="matrix(1.333333,0,0,1.333333,-752,-714.666667)"/>
<path style="fill:none;stroke-width:1;stroke-linecap:round;stroke-linejoin:round;stroke:rgb(0%,0%,0%);stroke-opacity:1;stroke-miterlimit:10;" d="M 652.22168 620.155273 L 652.204102 615.898438 " transform="matrix(1.333333,0,0,1.333333,-752,-714.666667)"/>
<path style="fill:none;stroke-width:1;stroke-linecap:butt;stroke-linejoin:miter;stroke:rgb(0%,0%,0%);stroke-opacity:1;stroke-miterlimit:10;" d="M 652.183594 611.899414 L 652.204102 615.898438 M 650.704102 615.907227 L 652.183594 611.899414 L 653.704102 615.895508 " transform="matrix(1.333333,0,0,1.333333,-752,-714.666667)"/>
<path style="fill:none;stroke-width:1;stroke-linecap:round;stroke-linejoin:round;stroke:rgb(0%,0%,0%);stroke-opacity:1;stroke-miterlimit:10;" d="M 688.368164 620.155273 L 688.347656 615.898438 " transform="matrix(1.333333,0,0,1.333333,-752,-714.666667)"/>
<path style="fill:none;stroke-width:1;stroke-linecap:butt;stroke-linejoin:miter;stroke:rgb(0%,0%,0%);stroke-opacity:1;stroke-miterlimit:10;" d="M 688.327148 611.899414 L 688.347656 615.898438 M 686.847656 615.907227 L 688.327148 611.899414 L 689.847656 615.895508 " transform="matrix(1.333333,0,0,1.333333,-752,-714.666667)"/>
<path style="fill:none;stroke-width:1;stroke-linecap:round;stroke-linejoin:round;stroke:rgb(0%,0%,0%);stroke-opacity:1;stroke-miterlimit:10;" d="M 726.172852 620.155273 L 726.152344 615.898438 " transform="matrix(1.333333,0,0,1.333333,-752,-714.666667)"/>
<path style="fill:none;stroke-width:1;stroke-linecap:butt;stroke-linejoin:miter;stroke:rgb(0%,0%,0%);stroke-opacity:1;stroke-miterlimit:10;" d="M 726.131836 611.899414 L 726.152344 615.898438 M 724.652344 615.907227 L 726.131836 611.899414 L 727.652344 615.895508 " transform="matrix(1.333333,0,0,1.333333,-752,-714.666667)"/>
<path style="fill:none;stroke-width:1;stroke-linecap:round;stroke-linejoin:round;stroke:rgb(0%,0%,0%);stroke-opacity:1;stroke-miterlimit:10;" d="M 826.379883 601.000977 L 839.90625 601.000977 " transform="matrix(1.333333,0,0,1.333333,-752,-714.666667)"/>
<path style="fill:none;stroke-width:1;stroke-linecap:butt;stroke-linejoin:miter;stroke:rgb(0%,0%,0%);stroke-opacity:1;stroke-miterlimit:10;" d="M 843.905273 601.000977 L 839.90625 601.000977 M 839.90625 599.500977 L 843.905273 601.000977 L 839.90625 602.500977 " transform="matrix(1.333333,0,0,1.333333,-752,-714.666667)"/>
<path style=" stroke:none;fill-rule:nonzero;fill:rgb(0%,0%,0%);fill-opacity:1;" d="M 271.734375 45.332031 L 271.734375 36.75 L 272.859375 36.75 L 272.859375 45.332031 Z M 271.734375 45.332031 "/>
<path style=" stroke:none;fill-rule:nonzero;fill:rgb(0%,0%,0%);fill-opacity:1;" d="M 274.714844 45.332031 L 274.714844 36.75 L 275.757812 36.75 L 275.757812 45.332031 Z M 274.714844 45.332031 "/>
<path style=" stroke:none;fill-rule:nonzero;fill:rgb(0%,0%,0%);fill-opacity:1;" d="M 276.980469 43.480469 L 278.023438 43.3125 C 278.074219 43.730469 278.238281 44.050781 278.503906 44.269531 C 278.777344 44.496094 279.152344 44.605469 279.628906 44.605469 C 280.113281 44.605469 280.472656 44.511719 280.710938 44.3125 C 280.945312 44.121094 281.066406 43.890625 281.066406 43.625 C 281.066406 43.375 280.960938 43.1875 280.753906 43.0625 C 280.597656 42.96875 280.238281 42.84375 279.667969 42.6875 C 278.886719 42.496094 278.347656 42.328125 278.042969 42.1875 C 277.753906 42.050781 277.527344 41.855469 277.378906 41.605469 C 277.222656 41.355469 277.148438 41.078125 277.148438 40.769531 C 277.148438 40.496094 277.210938 40.238281 277.335938 40 C 277.460938 39.765625 277.632812 39.5625 277.855469 39.394531 C 278.023438 39.285156 278.242188 39.1875 278.523438 39.105469 C 278.816406 39.019531 279.117188 38.980469 279.441406 38.980469 C 279.925781 38.980469 280.347656 39.050781 280.710938 39.1875 C 281.085938 39.328125 281.363281 39.515625 281.542969 39.75 C 281.722656 39.988281 281.847656 40.308594 281.917969 40.707031 L 280.878906 40.855469 C 280.835938 40.535156 280.695312 40.285156 280.460938 40.105469 C 280.238281 39.925781 279.925781 39.832031 279.523438 39.832031 C 279.035156 39.832031 278.691406 39.917969 278.480469 40.082031 C 278.273438 40.238281 278.167969 40.425781 278.167969 40.644531 C 278.167969 40.785156 278.210938 40.90625 278.292969 41 C 278.378906 41.125 278.511719 41.222656 278.710938 41.292969 C 278.804688 41.332031 279.113281 41.425781 279.628906 41.5625 C 280.378906 41.761719 280.898438 41.917969 281.191406 42.042969 C 281.492188 42.167969 281.730469 42.355469 281.898438 42.605469 C 282.066406 42.84375 282.148438 43.140625 282.148438 43.5 C 282.148438 43.863281 282.042969 44.199219 281.835938 44.5 C 281.628906 44.808594 281.324219 45.050781 280.941406 45.230469 C 280.566406 45.394531 280.128906 45.480469 279.628906 45.480469 C 278.820312 45.480469 278.199219 45.3125 277.773438 44.980469 C 277.355469 44.636719 277.089844 44.136719 276.980469 43.480469 Z M 276.980469 43.480469 "/>
<path style=" stroke:none;fill-rule:nonzero;fill:rgb(0%,0%,0%);fill-opacity:1;" d="M 308.820312 45.332031 L 308.820312 39.105469 L 309.777344 39.105469 L 309.777344 40.0625 C 310.011719 39.621094 310.238281 39.328125 310.445312 39.1875 C 310.652344 39.050781 310.882812 38.980469 311.132812 38.980469 C 311.476562 38.980469 311.839844 39.09375 312.214844 39.3125 L 311.839844 40.292969 C 311.589844 40.140625 311.332031 40.0625 311.070312 40.0625 C 310.847656 40.0625 310.636719 40.136719 310.445312 40.269531 C 310.261719 40.410156 310.132812 40.605469 310.050781 40.855469 C 309.933594 41.230469 309.882812 41.640625 309.882812 42.082031 L 309.882812 45.332031 Z M 308.820312 45.332031 "/>
<path style=" stroke:none;fill-rule:nonzero;fill:rgb(0%,0%,0%);fill-opacity:1;" d="M 317.085938 43.332031 L 318.191406 43.457031 C 318.007812 44.097656 317.679688 44.597656 317.210938 44.957031 C 316.753906 45.308594 316.160156 45.480469 315.441406 45.480469 C 314.535156 45.480469 313.816406 45.203125 313.273438 44.644531 C 312.742188 44.078125 312.484375 43.285156 312.484375 42.269531 C 312.484375 41.230469 312.753906 40.425781 313.296875 39.855469 C 313.835938 39.269531 314.535156 38.980469 315.398438 38.980469 C 316.234375 38.980469 316.90625 39.265625 317.421875 39.832031 C 317.945312 40.390625 318.210938 41.183594 318.210938 42.207031 C 318.210938 42.28125 318.210938 42.375 318.210938 42.5 L 313.566406 42.5 C 313.609375 43.183594 313.800781 43.703125 314.148438 44.0625 C 314.492188 44.425781 314.929688 44.605469 315.460938 44.605469 C 315.847656 44.605469 316.175781 44.511719 316.441406 44.3125 C 316.71875 44.105469 316.929688 43.78125 317.085938 43.332031 Z M 313.628906 41.625 L 317.109375 41.625 C 317.066406 41.097656 316.929688 40.703125 316.710938 40.4375 C 316.378906 40.035156 315.941406 39.832031 315.398438 39.832031 C 314.910156 39.832031 314.503906 40 314.171875 40.332031 C 313.847656 40.65625 313.671875 41.082031 313.628906 41.625 Z M 313.628906 41.625 "/>
<path style=" stroke:none;fill-rule:nonzero;fill:rgb(0%,0%,0%);fill-opacity:1;" d="M 319.324219 45.855469 L 320.34375 46 C 320.386719 46.316406 320.5 46.546875 320.699219 46.6875 C 320.957031 46.878906 321.324219 46.980469 321.78125 46.980469 C 322.265625 46.980469 322.640625 46.878906 322.90625 46.6875 C 323.167969 46.488281 323.347656 46.21875 323.449219 45.875 C 323.5 45.652344 323.519531 45.203125 323.511719 44.519531 C 323.050781 45.0625 322.480469 45.332031 321.800781 45.332031 C 320.9375 45.332031 320.269531 45.03125 319.800781 44.417969 C 319.34375 43.792969 319.113281 43.050781 319.113281 42.1875 C 319.113281 41.59375 319.21875 41.042969 319.425781 40.542969 C 319.644531 40.042969 319.957031 39.660156 320.363281 39.394531 C 320.765625 39.121094 321.246094 38.980469 321.800781 38.980469 C 322.535156 38.980469 323.140625 39.269531 323.613281 39.855469 L 323.613281 39.105469 L 324.59375 39.105469 L 324.59375 44.480469 C 324.59375 45.449219 324.488281 46.136719 324.28125 46.542969 C 324.082031 46.941406 323.769531 47.261719 323.34375 47.5 C 322.925781 47.734375 322.40625 47.855469 321.78125 47.855469 C 321.03125 47.855469 320.425781 47.6875 319.96875 47.355469 C 319.519531 47.019531 319.308594 46.519531 319.324219 45.855469 Z M 320.199219 42.105469 C 320.199219 42.925781 320.355469 43.519531 320.675781 43.894531 C 320.996094 44.269531 321.394531 44.457031 321.886719 44.457031 C 322.371094 44.457031 322.78125 44.269531 323.113281 43.894531 C 323.449219 43.519531 323.613281 42.9375 323.613281 42.144531 C 323.613281 41.386719 323.4375 40.808594 323.09375 40.417969 C 322.761719 40.03125 322.355469 39.832031 321.886719 39.832031 C 321.410156 39.832031 321.011719 40.03125 320.675781 40.417969 C 320.355469 40.792969 320.199219 41.355469 320.199219 42.105469 Z M 320.199219 42.105469 "/>
<path style=" stroke:none;fill-rule:nonzero;fill:rgb(0%,0%,0%);fill-opacity:1;" d="M 330.246094 44.5625 C 329.855469 44.894531 329.480469 45.136719 329.121094 45.269531 C 328.757812 45.40625 328.371094 45.480469 327.957031 45.480469 C 327.273438 45.480469 326.746094 45.3125 326.371094 44.980469 C 326.007812 44.644531 325.832031 44.21875 325.832031 43.6875 C 325.832031 43.386719 325.898438 43.105469 326.039062 42.855469 C 326.175781 42.605469 326.355469 42.40625 326.582031 42.25 C 326.800781 42.097656 327.050781 41.980469 327.332031 41.894531 C 327.539062 41.855469 327.851562 41.808594 328.269531 41.75 C 329.128906 41.65625 329.757812 41.53125 330.164062 41.375 C 330.164062 41.238281 330.164062 41.144531 330.164062 41.105469 C 330.164062 40.675781 330.066406 40.375 329.871094 40.207031 C 329.589844 39.957031 329.191406 39.832031 328.664062 39.832031 C 328.164062 39.832031 327.792969 39.925781 327.558594 40.105469 C 327.320312 40.269531 327.148438 40.578125 327.039062 41.019531 L 326.019531 40.894531 C 326.101562 40.453125 326.246094 40.097656 326.457031 39.832031 C 326.675781 39.558594 326.988281 39.347656 327.394531 39.207031 C 327.808594 39.058594 328.277344 38.980469 328.808594 38.980469 C 329.351562 38.980469 329.777344 39.042969 330.101562 39.167969 C 330.433594 39.292969 330.675781 39.453125 330.832031 39.644531 C 330.996094 39.828125 331.105469 40.0625 331.164062 40.355469 C 331.207031 40.535156 331.226562 40.855469 331.226562 41.3125 L 331.226562 42.730469 C 331.226562 43.703125 331.246094 44.324219 331.289062 44.582031 C 331.332031 44.847656 331.417969 45.097656 331.558594 45.332031 L 330.457031 45.332031 C 330.339844 45.113281 330.273438 44.855469 330.246094 44.5625 Z M 330.164062 42.207031 C 329.773438 42.363281 329.195312 42.496094 328.433594 42.605469 C 328.003906 42.675781 327.695312 42.75 327.519531 42.832031 C 327.335938 42.90625 327.195312 43.015625 327.101562 43.167969 C 327.003906 43.324219 326.957031 43.488281 326.957031 43.667969 C 326.957031 43.949219 327.058594 44.183594 327.269531 44.375 C 327.476562 44.558594 327.789062 44.644531 328.207031 44.644531 C 328.605469 44.644531 328.964844 44.558594 329.289062 44.375 C 329.605469 44.199219 329.839844 43.953125 329.996094 43.644531 C 330.105469 43.410156 330.164062 43.0625 330.164062 42.605469 Z M 330.164062 42.207031 "/>
<path style=" stroke:none;fill-rule:nonzero;fill:rgb(0%,0%,0%);fill-opacity:1;" d="M 332.839844 45.332031 L 332.839844 39.105469 L 333.796875 39.105469 L 333.796875 40.0625 C 334.03125 39.621094 334.253906 39.328125 334.464844 39.1875 C 334.671875 39.050781 334.902344 38.980469 335.152344 38.980469 C 335.496094 38.980469 335.859375 39.09375 336.234375 39.3125 L 335.859375 40.292969 C 335.609375 40.140625 335.347656 40.0625 335.089844 40.0625 C 334.863281 40.0625 334.65625 40.136719 334.464844 40.269531 C 334.28125 40.410156 334.152344 40.605469 334.066406 40.855469 C 333.953125 41.230469 333.902344 41.640625 333.902344 42.082031 L 333.902344 45.332031 Z M 332.839844 45.332031 "/>
<path style=" stroke:none;fill-rule:nonzero;fill:rgb(0%,0%,0%);fill-opacity:1;" d="M 340.898438 45.332031 L 340.898438 44.542969 C 340.492188 45.167969 339.90625 45.480469 339.148438 45.480469 C 338.65625 45.480469 338.210938 45.339844 337.792969 45.0625 C 337.375 44.785156 337.046875 44.40625 336.8125 43.917969 C 336.589844 43.433594 336.480469 42.871094 336.480469 42.230469 C 336.480469 41.605469 336.585938 41.042969 336.792969 40.542969 C 337 40.03125 337.304688 39.640625 337.710938 39.375 C 338.125 39.113281 338.589844 38.980469 339.105469 38.980469 C 339.480469 38.980469 339.8125 39.058594 340.105469 39.207031 C 340.398438 39.363281 340.632812 39.574219 340.8125 39.832031 L 340.8125 36.75 L 341.875 36.75 L 341.875 45.332031 Z M 337.5625 42.230469 C 337.5625 43.019531 337.730469 43.621094 338.0625 44.019531 C 338.398438 44.410156 338.792969 44.605469 339.25 44.605469 C 339.710938 44.605469 340.09375 44.417969 340.417969 44.042969 C 340.75 43.667969 340.917969 43.09375 340.917969 42.3125 C 340.917969 41.46875 340.75 40.84375 340.417969 40.4375 C 340.085938 40.035156 339.679688 39.832031 339.210938 39.832031 C 338.734375 39.832031 338.339844 40.03125 338.023438 40.417969 C 337.714844 40.808594 337.5625 41.410156 337.5625 42.230469 Z M 337.5625 42.230469 "/>
<path style=" stroke:none;fill-rule:nonzero;fill:rgb(0%,0%,0%);fill-opacity:1;" d="M 347.78125 43.332031 L 348.882812 43.457031 C 348.703125 44.097656 348.375 44.597656 347.90625 44.957031 C 347.445312 45.308594 346.851562 45.480469 346.132812 45.480469 C 345.226562 45.480469 344.507812 45.203125 343.96875 44.644531 C 343.4375 44.078125 343.175781 43.285156 343.175781 42.269531 C 343.175781 41.230469 343.445312 40.425781 343.988281 39.855469 C 344.53125 39.269531 345.226562 38.980469 346.09375 38.980469 C 346.925781 38.980469 347.597656 39.265625 348.113281 39.832031 C 348.640625 40.390625 348.90625 41.183594 348.90625 42.207031 C 348.90625 42.28125 348.90625 42.375 348.90625 42.5 L 344.257812 42.5 C 344.300781 43.183594 344.492188 43.703125 344.84375 44.0625 C 345.1875 44.425781 345.625 44.605469 346.15625 44.605469 C 346.539062 44.605469 346.867188 44.511719 347.132812 44.3125 C 347.410156 44.105469 347.625 43.78125 347.78125 43.332031 Z M 344.320312 41.625 L 347.800781 41.625 C 347.757812 41.097656 347.625 40.703125 347.40625 40.4375 C 347.070312 40.035156 346.632812 39.832031 346.09375 39.832031 C 345.601562 39.832031 345.195312 40 344.863281 40.332031 C 344.539062 40.65625 344.363281 41.082031 344.320312 41.625 Z M 344.320312 41.625 "/>
<path style=" stroke:none;fill-rule:nonzero;fill:rgb(0%,0%,0%);fill-opacity:1;" d="M 350.203125 45.332031 L 350.203125 39.105469 L 351.164062 39.105469 L 351.164062 40 C 351.605469 39.324219 352.265625 38.980469 353.140625 38.980469 C 353.515625 38.980469 353.855469 39.050781 354.164062 39.1875 C 354.480469 39.3125 354.714844 39.488281 354.871094 39.707031 C 355.023438 39.917969 355.132812 40.175781 355.203125 40.480469 C 355.246094 40.675781 355.265625 41.015625 355.265625 41.5 L 355.265625 45.332031 L 354.203125 45.332031 L 354.203125 41.542969 C 354.203125 41.113281 354.164062 40.792969 354.078125 40.582031 C 353.996094 40.375 353.851562 40.207031 353.640625 40.082031 C 353.433594 39.949219 353.1875 39.875 352.914062 39.875 C 352.464844 39.875 352.078125 40.019531 351.746094 40.3125 C 351.421875 40.59375 351.265625 41.136719 351.265625 41.9375 L 351.265625 45.332031 Z M 350.203125 45.332031 "/>
<path style=" stroke:none;fill-rule:nonzero;fill:rgb(0%,0%,0%);fill-opacity:1;" d="M 359.191406 44.394531 L 359.335938 45.3125 C 359.03125 45.378906 358.765625 45.417969 358.546875 45.417969 C 358.15625 45.417969 357.859375 45.355469 357.648438 45.230469 C 357.441406 45.105469 357.285156 44.949219 357.191406 44.75 C 357.109375 44.558594 357.066406 44.144531 357.066406 43.519531 L 357.066406 39.9375 L 356.296875 39.9375 L 356.296875 39.105469 L 357.066406 39.105469 L 357.066406 37.5625 L 358.128906 36.9375 L 358.128906 39.105469 L 359.191406 39.105469 L 359.191406 39.9375 L 358.128906 39.9375 L 358.128906 43.5625 C 358.128906 43.871094 358.140625 44.0625 358.171875 44.144531 C 358.210938 44.230469 358.273438 44.300781 358.359375 44.355469 C 358.441406 44.410156 358.554688 44.4375 358.710938 44.4375 C 358.835938 44.4375 358.992188 44.425781 359.191406 44.394531 Z M 359.191406 44.394531 "/>
<path style=" stroke:none;fill-rule:nonzero;fill:rgb(0%,0%,0%);fill-opacity:1;" d="M 391.039062 45.332031 L 391.039062 44.125 L 392.246094 44.125 L 392.246094 45.332031 Z M 391.039062 45.332031 "/>
<path style=" stroke:none;fill-rule:nonzero;fill:rgb(0%,0%,0%);fill-opacity:1;" d="M 433.066406 41.582031 L 433.066406 40.582031 L 438.753906 38.1875 L 438.753906 39.230469 L 434.234375 41.082031 L 438.753906 42.957031 L 438.753906 44 Z M 433.066406 41.582031 "/>
<path style=" stroke:none;fill-rule:nonzero;fill:rgb(0%,0%,0%);fill-opacity:1;" d="M 444.449219 43.332031 L 445.554688 43.457031 C 445.371094 44.097656 445.042969 44.597656 444.574219 44.957031 C 444.117188 45.308594 443.523438 45.480469 442.804688 45.480469 C 441.898438 45.480469 441.179688 45.203125 440.636719 44.644531 C 440.105469 44.078125 439.84375 43.285156 439.84375 42.269531 C 439.84375 41.230469 440.117188 40.425781 440.65625 39.855469 C 441.199219 39.269531 441.898438 38.980469 442.761719 38.980469 C 443.59375 38.980469 444.265625 39.265625 444.78125 39.832031 C 445.308594 40.390625 445.574219 41.183594 445.574219 42.207031 C 445.574219 42.28125 445.574219 42.375 445.574219 42.5 L 440.929688 42.5 C 440.96875 43.183594 441.164062 43.703125 441.511719 44.0625 C 441.855469 44.425781 442.292969 44.605469 442.824219 44.605469 C 443.210938 44.605469 443.539062 44.511719 443.804688 44.3125 C 444.078125 44.105469 444.292969 43.78125 444.449219 43.332031 Z M 440.992188 41.625 L 444.46875 41.625 C 444.429688 41.097656 444.292969 40.703125 444.074219 40.4375 C 443.742188 40.035156 443.304688 39.832031 442.761719 39.832031 C 442.273438 39.832031 441.867188 40 441.53125 40.332031 C 441.210938 40.65625 441.03125 41.082031 440.992188 41.625 Z M 440.992188 41.625 "/>
<path style=" stroke:none;fill-rule:nonzero;fill:rgb(0%,0%,0%);fill-opacity:1;" d="M 446.476562 42.230469 C 446.476562 41.078125 446.796875 40.222656 447.4375 39.667969 C 447.976562 39.207031 448.628906 38.980469 449.394531 38.980469 C 450.253906 38.980469 450.957031 39.261719 451.5 39.8125 C 452.039062 40.371094 452.3125 41.140625 452.3125 42.125 C 452.3125 42.933594 452.1875 43.5625 451.9375 44.019531 C 451.695312 44.480469 451.351562 44.84375 450.894531 45.105469 C 450.4375 45.355469 449.9375 45.480469 449.394531 45.480469 C 448.519531 45.480469 447.8125 45.203125 447.269531 44.644531 C 446.738281 44.078125 446.476562 43.269531 446.476562 42.230469 Z M 447.5625 42.230469 C 447.5625 43.019531 447.734375 43.621094 448.082031 44.019531 C 448.425781 44.410156 448.863281 44.605469 449.394531 44.605469 C 449.921875 44.605469 450.359375 44.410156 450.707031 44.019531 C 451.050781 43.621094 451.226562 43.011719 451.226562 42.1875 C 451.226562 41.425781 451.050781 40.84375 450.707031 40.4375 C 450.359375 40.035156 449.921875 39.832031 449.394531 39.832031 C 448.863281 39.832031 448.425781 40.035156 448.082031 40.4375 C 447.734375 40.828125 447.5625 41.425781 447.5625 42.230469 Z M 447.5625 42.230469 "/>
<path style=" stroke:none;fill-rule:nonzero;fill:rgb(0%,0%,0%);fill-opacity:1;" d="M 453.132812 43.480469 L 454.171875 43.3125 C 454.226562 43.730469 454.386719 44.050781 454.652344 44.269531 C 454.929688 44.496094 455.304688 44.605469 455.777344 44.605469 C 456.261719 44.605469 456.621094 44.511719 456.859375 44.3125 C 457.09375 44.121094 457.214844 43.890625 457.214844 43.625 C 457.214844 43.375 457.109375 43.1875 456.902344 43.0625 C 456.746094 42.96875 456.386719 42.84375 455.820312 42.6875 C 455.039062 42.496094 454.496094 42.328125 454.195312 42.1875 C 453.902344 42.050781 453.679688 41.855469 453.527344 41.605469 C 453.371094 41.355469 453.296875 41.078125 453.296875 40.769531 C 453.296875 40.496094 453.359375 40.238281 453.484375 40 C 453.609375 39.765625 453.78125 39.5625 454.007812 39.394531 C 454.171875 39.285156 454.390625 39.1875 454.671875 39.105469 C 454.964844 39.019531 455.265625 38.980469 455.589844 38.980469 C 456.074219 38.980469 456.496094 39.050781 456.859375 39.1875 C 457.234375 39.328125 457.511719 39.515625 457.695312 39.75 C 457.871094 39.988281 457.996094 40.308594 458.070312 40.707031 L 457.027344 40.855469 C 456.984375 40.535156 456.84375 40.285156 456.609375 40.105469 C 456.386719 39.925781 456.074219 39.832031 455.671875 39.832031 C 455.183594 39.832031 454.839844 39.917969 454.632812 40.082031 C 454.421875 40.238281 454.320312 40.425781 454.320312 40.644531 C 454.320312 40.785156 454.359375 40.90625 454.445312 41 C 454.527344 41.125 454.664062 41.222656 454.859375 41.292969 C 454.953125 41.332031 455.261719 41.425781 455.777344 41.5625 C 456.527344 41.761719 457.046875 41.917969 457.339844 42.042969 C 457.640625 42.167969 457.882812 42.355469 458.046875 42.605469 C 458.214844 42.84375 458.296875 43.140625 458.296875 43.5 C 458.296875 43.863281 458.195312 44.199219 457.984375 44.5 C 457.777344 44.808594 457.476562 45.050781 457.089844 45.230469 C 456.714844 45.394531 456.277344 45.480469 455.777344 45.480469 C 454.96875 45.480469 454.351562 45.3125 453.921875 44.980469 C 453.507812 44.636719 453.242188 44.136719 453.132812 43.480469 Z M 453.132812 43.480469 "/>
<path style=" stroke:none;fill-rule:nonzero;fill:rgb(0%,0%,0%);fill-opacity:1;" d="M 465.109375 41.582031 L 459.421875 44 L 459.421875 42.957031 L 463.921875 41.082031 L 459.421875 39.230469 L 459.421875 38.1875 L 465.109375 40.582031 Z M 465.109375 41.582031 "/>
<path style="fill:none;stroke-width:1;stroke-linecap:round;stroke-linejoin:round;stroke:rgb(0%,0%,0%);stroke-opacity:1;stroke-miterlimit:10;" d="M 771.398438 592.000977 L 771.424805 580.194336 " transform="matrix(1.333333,0,0,1.333333,-752,-714.666667)"/>
<path style="fill:none;stroke-width:1;stroke-linecap:butt;stroke-linejoin:miter;stroke:rgb(0%,0%,0%);stroke-opacity:1;stroke-miterlimit:10;" d="M 771.436523 576.195312 L 771.424805 580.194336 M 769.924805 580.191406 L 771.436523 576.195312 L 772.924805 580.200195 " transform="matrix(1.333333,0,0,1.333333,-752,-714.666667)"/>
<path style="fill:none;stroke-width:1;stroke-linecap:round;stroke-linejoin:round;stroke:rgb(0%,0%,0%);stroke-opacity:1;stroke-miterlimit:10;" d="M 814.359375 592.000977 L 814.333008 580.194336 " transform="matrix(1.333333,0,0,1.333333,-752,-714.666667)"/>
<path style="fill:none;stroke-width:1;stroke-linecap:butt;stroke-linejoin:miter;stroke:rgb(0%,0%,0%);stroke-opacity:1;stroke-miterlimit:10;" d="M 814.321289 576.195312 L 814.333008 580.194336 M 812.833008 580.200195 L 814.321289 576.195312 L 815.833008 580.191406 " transform="matrix(1.333333,0,0,1.333333,-752,-714.666667)"/>
<path style="fill:none;stroke-width:1;stroke-linecap:round;stroke-linejoin:round;stroke:rgb(0%,0%,0%);stroke-opacity:1;stroke-miterlimit:10;" d="M 857.780273 592.000977 L 857.750977 580.194336 " transform="matrix(1.333333,0,0,1.333333,-752,-714.666667)"/>
<path style="fill:none;stroke-width:1;stroke-linecap:butt;stroke-linejoin:miter;stroke:rgb(0%,0%,0%);stroke-opacity:1;stroke-miterlimit:10;" d="M 857.739258 576.195312 L 857.750977 580.194336 M 856.250977 580.200195 L 857.739258 576.195312 L 859.250977 580.191406 " transform="matrix(1.333333,0,0,1.333333,-752,-714.666667)"/>
<path style="fill:none;stroke-width:1;stroke-linecap:round;stroke-linejoin:round;stroke:rgb(0%,0%,0%);stroke-opacity:1;stroke-miterlimit:10;" d="M 900.694336 592.000977 L 900.75 580.194336 " transform="matrix(1.333333,0,0,1.333333,-752,-714.666667)"/>
<path style="fill:none;stroke-width:1;stroke-linecap:butt;stroke-linejoin:miter;stroke:rgb(0%,0%,0%);stroke-opacity:1;stroke-miterlimit:10;" d="M 900.770508 576.195312 L 900.75 580.194336 M 899.25 580.188477 L 900.770508 576.195312 L 902.25 580.203125 " transform="matrix(1.333333,0,0,1.333333,-752,-714.666667)"/>
<path style="fill:none;stroke-width:1;stroke-linecap:round;stroke-linejoin:round;stroke:rgb(0%,0%,0%);stroke-opacity:1;stroke-miterlimit:10;" d="M 783.37793 601.000977 L 796.479492 601.000977 " transform="matrix(1.333333,0,0,1.333333,-752,-714.666667)"/>
<path style="fill:none;stroke-width:1;stroke-linecap:butt;stroke-linejoin:miter;stroke:rgb(0%,0%,0%);stroke-opacity:1;stroke-miterlimit:10;" d="M 800.481445 601.000977 L 796.479492 601.000977 M 796.479492 599.500977 L 800.481445 601.000977 L 796.479492 602.500977 " transform="matrix(1.333333,0,0,1.333333,-752,-714.666667)"/>
<path style="fill:none;stroke-width:1;stroke-linecap:round;stroke-linejoin:round;stroke:rgb(0%,0%,0%);stroke-opacity:1;stroke-miterlimit:10;" d="M 826.379883 601.000977 L 839.90625 601.000977 " transform="matrix(1.333333,0,0,1.333333,-752,-714.666667)"/>
<path style="fill:none;stroke-width:1;stroke-linecap:butt;stroke-linejoin:miter;stroke:rgb(0%,0%,0%);stroke-opacity:1;stroke-miterlimit:10;" d="M 843.905273 601.000977 L 839.90625 601.000977 M 839.90625 599.500977 L 843.905273 601.000977 L 839.90625 602.500977 " transform="matrix(1.333333,0,0,1.333333,-752,-714.666667)"/>
<path style="fill:none;stroke-width:1;stroke-linecap:round;stroke-linejoin:round;stroke:rgb(0%,0%,0%);stroke-opacity:1;stroke-miterlimit:10;" d="M 869.803711 601.000977 L 882.75 601.000977 " transform="matrix(1.333333,0,0,1.333333,-752,-714.666667)"/>
<path style="fill:none;stroke-width:1;stroke-linecap:butt;stroke-linejoin:miter;stroke:rgb(0%,0%,0%);stroke-opacity:1;stroke-miterlimit:10;" d="M 886.749023 601.000977 L 882.75 601.000977 M 882.75 599.500977 L 886.749023 601.000977 L 882.75 602.500977 " transform="matrix(1.333333,0,0,1.333333,-752,-714.666667)"/>
<path style=" stroke:none;fill-rule:nonzero;fill:rgb(0%,0%,0%);fill-opacity:1;" d="M 98.449219 17.332031 L 98.449219 8.75 L 104.65625 8.75 L 104.65625 9.75 L 99.574219 9.75 L 99.574219 12.394531 L 104.324219 12.394531 L 104.324219 13.394531 L 99.574219 13.394531 L 99.574219 16.3125 L 104.84375 16.3125 L 104.84375 17.332031 Z M 98.449219 17.332031 "/>
<path style=" stroke:none;fill-rule:nonzero;fill:rgb(0%,0%,0%);fill-opacity:1;" d="M 106.285156 17.332031 L 106.285156 11.105469 L 107.246094 11.105469 L 107.246094 12 C 107.6875 11.324219 108.347656 10.980469 109.222656 10.980469 C 109.597656 10.980469 109.9375 11.050781 110.246094 11.1875 C 110.5625 11.3125 110.796875 11.488281 110.953125 11.707031 C 111.105469 11.917969 111.214844 12.175781 111.285156 12.480469 C 111.328125 12.675781 111.347656 13.015625 111.347656 13.5 L 111.347656 17.332031 L 110.285156 17.332031 L 110.285156 13.542969 C 110.285156 13.113281 110.246094 12.792969 110.160156 12.582031 C 110.078125 12.375 109.933594 12.207031 109.722656 12.082031 C 109.515625 11.949219 109.269531 11.875 108.996094 11.875 C 108.546875 11.875 108.160156 12.019531 107.828125 12.3125 C 107.503906 12.59375 107.347656 13.136719 107.347656 13.9375 L 107.347656 17.332031 Z M 106.285156 17.332031 "/>
<path style=" stroke:none;fill-rule:nonzero;fill:rgb(0%,0%,0%);fill-opacity:1;" d="M 117.023438 15.0625 L 118.066406 15.1875 C 117.949219 15.910156 117.660156 16.472656 117.191406 16.875 C 116.714844 17.28125 116.136719 17.480469 115.460938 17.480469 C 114.613281 17.480469 113.929688 17.203125 113.417969 16.644531 C 112.902344 16.09375 112.648438 15.292969 112.648438 14.25 C 112.648438 13.574219 112.757812 12.980469 112.980469 12.480469 C 113.199219 11.980469 113.535156 11.605469 113.980469 11.355469 C 114.441406 11.105469 114.941406 10.980469 115.480469 10.980469 C 116.148438 10.980469 116.695312 11.15625 117.128906 11.5 C 117.554688 11.832031 117.835938 12.3125 117.960938 12.9375 L 116.941406 13.105469 C 116.839844 12.6875 116.667969 12.375 116.417969 12.167969 C 116.167969 11.949219 115.867188 11.832031 115.523438 11.832031 C 114.980469 11.832031 114.542969 12.03125 114.210938 12.417969 C 113.886719 12.792969 113.730469 13.390625 113.730469 14.207031 C 113.730469 15.058594 113.886719 15.667969 114.210938 16.042969 C 114.527344 16.417969 114.945312 16.605469 115.460938 16.605469 C 115.878906 16.605469 116.222656 16.480469 116.503906 16.230469 C 116.777344 15.980469 116.949219 15.59375 117.023438 15.0625 Z M 117.023438 15.0625 "/>
<path style=" stroke:none;fill-rule:nonzero;fill:rgb(0%,0%,0%);fill-opacity:1;" d="M 118.566406 14.230469 C 118.566406 13.078125 118.882812 12.222656 119.523438 11.667969 C 120.066406 11.207031 120.714844 10.980469 121.480469 10.980469 C 122.339844 10.980469 123.042969 11.261719 123.585938 11.8125 C 124.128906 12.371094 124.398438 13.140625 124.398438 14.125 C 124.398438 14.933594 124.273438 15.5625 124.023438 16.019531 C 123.785156 16.480469 123.441406 16.84375 122.980469 17.105469 C 122.523438 17.355469 122.023438 17.480469 121.480469 17.480469 C 120.605469 17.480469 119.898438 17.203125 119.355469 16.644531 C 118.824219 16.078125 118.566406 15.269531 118.566406 14.230469 Z M 119.648438 14.230469 C 119.648438 15.019531 119.820312 15.621094 120.167969 16.019531 C 120.511719 16.410156 120.949219 16.605469 121.480469 16.605469 C 122.007812 16.605469 122.445312 16.410156 122.792969 16.019531 C 123.136719 15.621094 123.316406 15.011719 123.316406 14.1875 C 123.316406 13.425781 123.136719 12.84375 122.792969 12.4375 C 122.445312 12.035156 122.007812 11.832031 121.480469 11.832031 C 120.949219 11.832031 120.511719 12.035156 120.167969 12.4375 C 119.820312 12.828125 119.648438 13.425781 119.648438 14.230469 Z M 119.648438 14.230469 "/>
<path style=" stroke:none;fill-rule:nonzero;fill:rgb(0%,0%,0%);fill-opacity:1;" d="M 129.675781 17.332031 L 129.675781 16.542969 C 129.269531 17.167969 128.6875 17.480469 127.925781 17.480469 C 127.4375 17.480469 126.988281 17.339844 126.574219 17.0625 C 126.15625 16.785156 125.828125 16.40625 125.59375 15.917969 C 125.371094 15.433594 125.261719 14.871094 125.261719 14.230469 C 125.261719 13.605469 125.363281 13.042969 125.574219 12.542969 C 125.78125 12.03125 126.082031 11.640625 126.488281 11.375 C 126.90625 11.113281 127.371094 10.980469 127.886719 10.980469 C 128.261719 10.980469 128.59375 11.058594 128.886719 11.207031 C 129.175781 11.363281 129.410156 11.574219 129.59375 11.832031 L 129.59375 8.75 L 130.65625 8.75 L 130.65625 17.332031 Z M 126.34375 14.230469 C 126.34375 15.019531 126.511719 15.621094 126.84375 16.019531 C 127.175781 16.410156 127.574219 16.605469 128.03125 16.605469 C 128.488281 16.605469 128.875 16.417969 129.199219 16.042969 C 129.53125 15.667969 129.699219 15.09375 129.699219 14.3125 C 129.699219 13.46875 129.53125 12.84375 129.199219 12.4375 C 128.863281 12.035156 128.457031 11.832031 127.988281 11.832031 C 127.515625 11.832031 127.121094 12.03125 126.800781 12.417969 C 126.496094 12.808594 126.34375 13.410156 126.34375 14.230469 Z M 126.34375 14.230469 "/>
<path style=" stroke:none;fill-rule:nonzero;fill:rgb(0%,0%,0%);fill-opacity:1;" d="M 136.558594 15.332031 L 137.664062 15.457031 C 137.480469 16.097656 137.152344 16.597656 136.683594 16.957031 C 136.226562 17.308594 135.632812 17.480469 134.914062 17.480469 C 134.007812 17.480469 133.289062 17.203125 132.746094 16.644531 C 132.214844 16.078125 131.957031 15.285156 131.957031 14.269531 C 131.957031 13.230469 132.226562 12.425781 132.769531 11.855469 C 133.308594 11.269531 134.007812 10.980469 134.871094 10.980469 C 135.707031 10.980469 136.378906 11.265625 136.894531 11.832031 C 137.417969 12.390625 137.683594 13.183594 137.683594 14.207031 C 137.683594 14.28125 137.683594 14.375 137.683594 14.5 L 133.039062 14.5 C 133.082031 15.183594 133.273438 15.703125 133.621094 16.0625 C 133.964844 16.425781 134.402344 16.605469 134.933594 16.605469 C 135.320312 16.605469 135.648438 16.511719 135.914062 16.3125 C 136.191406 16.105469 136.402344 15.78125 136.558594 15.332031 Z M 133.101562 13.625 L 136.582031 13.625 C 136.539062 13.097656 136.402344 12.703125 136.183594 12.4375 C 135.851562 12.035156 135.414062 11.832031 134.871094 11.832031 C 134.382812 11.832031 133.976562 12 133.644531 12.332031 C 133.320312 12.65625 133.144531 13.082031 133.101562 13.625 Z M 133.101562 13.625 "/>
<path style=" stroke:none;fill-rule:nonzero;fill:rgb(0%,0%,0%);fill-opacity:1;" d="M 138.964844 17.332031 L 138.964844 11.105469 L 139.921875 11.105469 L 139.921875 12.0625 C 140.15625 11.621094 140.378906 11.328125 140.589844 11.1875 C 140.796875 11.050781 141.027344 10.980469 141.277344 10.980469 C 141.621094 10.980469 141.984375 11.09375 142.359375 11.3125 L 141.984375 12.292969 C 141.734375 12.140625 141.472656 12.0625 141.214844 12.0625 C 140.988281 12.0625 140.78125 12.136719 140.589844 12.269531 C 140.40625 12.410156 140.277344 12.605469 140.191406 12.855469 C 140.078125 13.230469 140.027344 13.640625 140.027344 14.082031 L 140.027344 17.332031 Z M 138.964844 17.332031 "/>
<path style=" stroke:none;fill-rule:nonzero;fill:rgb(0%,0%,0%);fill-opacity:1;" d="M 338.078125 17.332031 L 338.078125 8.75 L 341.035156 8.75 C 341.710938 8.75 342.226562 8.792969 342.578125 8.875 C 343.0625 8.988281 343.476562 9.1875 343.828125 9.480469 C 344.285156 9.871094 344.625 10.363281 344.847656 10.957031 C 345.066406 11.542969 345.179688 12.222656 345.179688 13 C 345.179688 13.65625 345.101562 14.230469 344.953125 14.730469 C 344.796875 15.230469 344.601562 15.644531 344.367188 15.980469 C 344.128906 16.3125 343.867188 16.578125 343.578125 16.769531 C 343.296875 16.953125 342.957031 17.09375 342.554688 17.1875 C 342.164062 17.285156 341.707031 17.332031 341.179688 17.332031 Z M 339.222656 16.3125 L 341.054688 16.3125 C 341.625 16.3125 342.066406 16.265625 342.390625 16.167969 C 342.707031 16.058594 342.960938 15.90625 343.160156 15.707031 C 343.421875 15.449219 343.628906 15.082031 343.785156 14.625 C 343.9375 14.167969 344.015625 13.621094 344.015625 12.980469 C 344.015625 12.078125 343.867188 11.390625 343.578125 10.917969 C 343.285156 10.433594 342.921875 10.105469 342.492188 9.9375 C 342.1875 9.8125 341.703125 9.75 341.035156 9.75 L 339.222656 9.75 Z M 339.222656 16.3125 "/>
<path style=" stroke:none;fill-rule:nonzero;fill:rgb(0%,0%,0%);fill-opacity:1;" d="M 350.867188 15.332031 L 351.972656 15.457031 C 351.789062 16.097656 351.460938 16.597656 350.992188 16.957031 C 350.535156 17.308594 349.941406 17.480469 349.222656 17.480469 C 348.316406 17.480469 347.597656 17.203125 347.054688 16.644531 C 346.523438 16.078125 346.265625 15.285156 346.265625 14.269531 C 346.265625 13.230469 346.535156 12.425781 347.078125 11.855469 C 347.617188 11.269531 348.316406 10.980469 349.179688 10.980469 C 350.015625 10.980469 350.6875 11.265625 351.203125 11.832031 C 351.726562 12.390625 351.992188 13.183594 351.992188 14.207031 C 351.992188 14.28125 351.992188 14.375 351.992188 14.5 L 347.347656 14.5 C 347.390625 15.183594 347.582031 15.703125 347.929688 16.0625 C 348.273438 16.425781 348.710938 16.605469 349.242188 16.605469 C 349.628906 16.605469 349.957031 16.511719 350.222656 16.3125 C 350.5 16.105469 350.710938 15.78125 350.867188 15.332031 Z M 347.410156 13.625 L 350.890625 13.625 C 350.847656 13.097656 350.710938 12.703125 350.492188 12.4375 C 350.160156 12.035156 349.722656 11.832031 349.179688 11.832031 C 348.691406 11.832031 348.285156 12 347.953125 12.332031 C 347.628906 12.65625 347.453125 13.082031 347.410156 13.625 Z M 347.410156 13.625 "/>
<path style=" stroke:none;fill-rule:nonzero;fill:rgb(0%,0%,0%);fill-opacity:1;" d="M 357.355469 15.0625 L 358.398438 15.1875 C 358.28125 15.910156 357.992188 16.472656 357.523438 16.875 C 357.046875 17.28125 356.46875 17.480469 355.792969 17.480469 C 354.945312 17.480469 354.261719 17.203125 353.75 16.644531 C 353.234375 16.09375 352.980469 15.292969 352.980469 14.25 C 352.980469 13.574219 353.089844 12.980469 353.3125 12.480469 C 353.53125 11.980469 353.867188 11.605469 354.3125 11.355469 C 354.773438 11.105469 355.273438 10.980469 355.8125 10.980469 C 356.480469 10.980469 357.027344 11.15625 357.460938 11.5 C 357.886719 11.832031 358.167969 12.3125 358.292969 12.9375 L 357.273438 13.105469 C 357.171875 12.6875 357 12.375 356.75 12.167969 C 356.5 11.949219 356.199219 11.832031 355.855469 11.832031 C 355.3125 11.832031 354.875 12.03125 354.542969 12.417969 C 354.21875 12.792969 354.0625 13.390625 354.0625 14.207031 C 354.0625 15.058594 354.21875 15.667969 354.542969 16.042969 C 354.859375 16.417969 355.277344 16.605469 355.792969 16.605469 C 356.210938 16.605469 356.554688 16.480469 356.835938 16.230469 C 357.109375 15.980469 357.28125 15.59375 357.355469 15.0625 Z M 357.355469 15.0625 "/>
<path style=" stroke:none;fill-rule:nonzero;fill:rgb(0%,0%,0%);fill-opacity:1;" d="M 358.898438 14.230469 C 358.898438 13.078125 359.214844 12.222656 359.855469 11.667969 C 360.398438 11.207031 361.046875 10.980469 361.8125 10.980469 C 362.671875 10.980469 363.375 11.261719 363.917969 11.8125 C 364.460938 12.371094 364.730469 13.140625 364.730469 14.125 C 364.730469 14.933594 364.605469 15.5625 364.355469 16.019531 C 364.117188 16.480469 363.773438 16.84375 363.3125 17.105469 C 362.855469 17.355469 362.355469 17.480469 361.8125 17.480469 C 360.9375 17.480469 360.230469 17.203125 359.6875 16.644531 C 359.15625 16.078125 358.898438 15.269531 358.898438 14.230469 Z M 359.980469 14.230469 C 359.980469 15.019531 360.152344 15.621094 360.5 16.019531 C 360.84375 16.410156 361.28125 16.605469 361.8125 16.605469 C 362.339844 16.605469 362.777344 16.410156 363.125 16.019531 C 363.46875 15.621094 363.648438 15.011719 363.648438 14.1875 C 363.648438 13.425781 363.46875 12.84375 363.125 12.4375 C 362.777344 12.035156 362.339844 11.832031 361.8125 11.832031 C 361.28125 11.832031 360.84375 12.035156 360.5 12.4375 C 360.152344 12.828125 359.980469 13.425781 359.980469 14.230469 Z M 359.980469 14.230469 "/>
<path style=" stroke:none;fill-rule:nonzero;fill:rgb(0%,0%,0%);fill-opacity:1;" d="M 370.007812 17.332031 L 370.007812 16.542969 C 369.601562 17.167969 369.019531 17.480469 368.257812 17.480469 C 367.769531 17.480469 367.320312 17.339844 366.90625 17.0625 C 366.488281 16.785156 366.160156 16.40625 365.925781 15.917969 C 365.703125 15.433594 365.59375 14.871094 365.59375 14.230469 C 365.59375 13.605469 365.695312 13.042969 365.90625 12.542969 C 366.113281 12.03125 366.414062 11.640625 366.820312 11.375 C 367.238281 11.113281 367.703125 10.980469 368.21875 10.980469 C 368.59375 10.980469 368.925781 11.058594 369.21875 11.207031 C 369.507812 11.363281 369.742188 11.574219 369.925781 11.832031 L 369.925781 8.75 L 370.988281 8.75 L 370.988281 17.332031 Z M 366.675781 14.230469 C 366.675781 15.019531 366.84375 15.621094 367.175781 16.019531 C 367.507812 16.410156 367.90625 16.605469 368.363281 16.605469 C 368.820312 16.605469 369.207031 16.417969 369.53125 16.042969 C 369.863281 15.667969 370.03125 15.09375 370.03125 14.3125 C 370.03125 13.46875 369.863281 12.84375 369.53125 12.4375 C 369.195312 12.035156 368.789062 11.832031 368.320312 11.832031 C 367.847656 11.832031 367.453125 12.03125 367.132812 12.417969 C 366.828125 12.808594 366.675781 13.410156 366.675781 14.230469 Z M 366.675781 14.230469 "/>
<path style=" stroke:none;fill-rule:nonzero;fill:rgb(0%,0%,0%);fill-opacity:1;" d="M 376.890625 15.332031 L 377.996094 15.457031 C 377.8125 16.097656 377.484375 16.597656 377.015625 16.957031 C 376.558594 17.308594 375.964844 17.480469 375.246094 17.480469 C 374.339844 17.480469 373.621094 17.203125 373.078125 16.644531 C 372.546875 16.078125 372.289062 15.285156 372.289062 14.269531 C 372.289062 13.230469 372.558594 12.425781 373.101562 11.855469 C 373.640625 11.269531 374.339844 10.980469 375.203125 10.980469 C 376.039062 10.980469 376.710938 11.265625 377.226562 11.832031 C 377.75 12.390625 378.015625 13.183594 378.015625 14.207031 C 378.015625 14.28125 378.015625 14.375 378.015625 14.5 L 373.371094 14.5 C 373.414062 15.183594 373.605469 15.703125 373.953125 16.0625 C 374.296875 16.425781 374.734375 16.605469 375.265625 16.605469 C 375.652344 16.605469 375.980469 16.511719 376.246094 16.3125 C 376.523438 16.105469 376.734375 15.78125 376.890625 15.332031 Z M 373.433594 13.625 L 376.914062 13.625 C 376.871094 13.097656 376.734375 12.703125 376.515625 12.4375 C 376.183594 12.035156 375.746094 11.832031 375.203125 11.832031 C 374.714844 11.832031 374.308594 12 373.976562 12.332031 C 373.652344 12.65625 373.476562 13.082031 373.433594 13.625 Z M 373.433594 13.625 "/>
<path style=" stroke:none;fill-rule:nonzero;fill:rgb(0%,0%,0%);fill-opacity:1;" d="M 379.296875 17.332031 L 379.296875 11.105469 L 380.253906 11.105469 L 380.253906 12.0625 C 380.488281 11.621094 380.710938 11.328125 380.921875 11.1875 C 381.128906 11.050781 381.359375 10.980469 381.609375 10.980469 C 381.953125 10.980469 382.316406 11.09375 382.691406 11.3125 L 382.316406 12.292969 C 382.066406 12.140625 381.804688 12.0625 381.546875 12.0625 C 381.320312 12.0625 381.113281 12.136719 380.921875 12.269531 C 380.738281 12.410156 380.609375 12.605469 380.523438 12.855469 C 380.410156 13.230469 380.359375 13.640625 380.359375 14.082031 L 380.359375 17.332031 Z M 379.296875 17.332031 "/>
<path style=" stroke:none;fill-rule:nonzero;fill:rgb(0%,0%,0%);fill-opacity:1;" d="M 255.476562 138.6875 L 255.476562 137.6875 L 261.164062 135.292969 L 261.164062 136.335938 L 256.644531 138.1875 L 261.164062 140.0625 L 261.164062 141.105469 Z M 255.476562 138.6875 "/>
<path style=" stroke:none;fill-rule:nonzero;fill:rgb(0%,0%,0%);fill-opacity:1;" d="M 263.589844 142.4375 L 262.613281 142.4375 L 262.613281 133.855469 L 263.652344 133.855469 L 263.652344 136.917969 C 264.097656 136.367188 264.664062 136.085938 265.363281 136.085938 C 265.746094 136.085938 266.113281 136.164062 266.445312 136.3125 C 266.789062 136.46875 267.074219 136.683594 267.300781 136.960938 C 267.519531 137.242188 267.695312 137.578125 267.820312 137.980469 C 267.945312 138.371094 268.007812 138.789062 268.007812 139.230469 C 268.007812 140.304688 267.742188 141.125 267.214844 141.710938 C 266.683594 142.292969 266.054688 142.585938 265.320312 142.585938 C 264.582031 142.585938 264.007812 142.28125 263.589844 141.667969 Z M 263.570312 139.273438 C 263.570312 140.023438 263.675781 140.5625 263.882812 140.898438 C 264.214844 141.4375 264.660156 141.710938 265.214844 141.710938 C 265.683594 141.710938 266.089844 141.511719 266.425781 141.105469 C 266.757812 140.703125 266.925781 140.105469 266.925781 139.3125 C 266.925781 138.511719 266.761719 137.914062 266.445312 137.523438 C 266.121094 137.136719 265.738281 136.9375 265.277344 136.9375 C 264.804688 136.9375 264.402344 137.140625 264.070312 137.542969 C 263.738281 137.949219 263.570312 138.523438 263.570312 139.273438 Z M 263.570312 139.273438 "/>
<path style=" stroke:none;fill-rule:nonzero;fill:rgb(0%,0%,0%);fill-opacity:1;" d="M 268.890625 139.335938 C 268.890625 138.183594 269.207031 137.328125 269.847656 136.773438 C 270.390625 136.3125 271.039062 136.085938 271.804688 136.085938 C 272.664062 136.085938 273.367188 136.367188 273.910156 136.917969 C 274.453125 137.476562 274.722656 138.246094 274.722656 139.230469 C 274.722656 140.039062 274.597656 140.667969 274.347656 141.125 C 274.109375 141.585938 273.765625 141.949219 273.304688 142.210938 C 272.847656 142.460938 272.347656 142.585938 271.804688 142.585938 C 270.929688 142.585938 270.222656 142.308594 269.679688 141.75 C 269.152344 141.183594 268.890625 140.375 268.890625 139.335938 Z M 269.972656 139.335938 C 269.972656 140.125 270.144531 140.726562 270.492188 141.125 C 270.835938 141.515625 271.277344 141.710938 271.804688 141.710938 C 272.332031 141.710938 272.769531 141.515625 273.117188 141.125 C 273.460938 140.726562 273.640625 140.117188 273.640625 139.292969 C 273.640625 138.53125 273.460938 137.949219 273.117188 137.542969 C 272.769531 137.140625 272.332031 136.9375 271.804688 136.9375 C 271.277344 136.9375 270.835938 137.140625 270.492188 137.542969 C 270.144531 137.933594 269.972656 138.53125 269.972656 139.335938 Z M 269.972656 139.335938 "/>
<path style=" stroke:none;fill-rule:nonzero;fill:rgb(0%,0%,0%);fill-opacity:1;" d="M 275.542969 140.585938 L 276.585938 140.417969 C 276.636719 140.835938 276.796875 141.15625 277.0625 141.375 C 277.339844 141.601562 277.714844 141.710938 278.1875 141.710938 C 278.671875 141.710938 279.03125 141.617188 279.273438 141.417969 C 279.507812 141.226562 279.625 140.996094 279.625 140.730469 C 279.625 140.480469 279.523438 140.292969 279.3125 140.167969 C 279.15625 140.074219 278.796875 139.949219 278.230469 139.792969 C 277.449219 139.601562 276.90625 139.433594 276.605469 139.292969 C 276.3125 139.15625 276.089844 138.960938 275.9375 138.710938 C 275.78125 138.460938 275.710938 138.183594 275.710938 137.875 C 275.710938 137.601562 275.773438 137.34375 275.898438 137.105469 C 276.023438 136.871094 276.195312 136.667969 276.417969 136.5 C 276.585938 136.390625 276.804688 136.292969 277.085938 136.210938 C 277.375 136.125 277.679688 136.085938 278 136.085938 C 278.484375 136.085938 278.90625 136.15625 279.273438 136.292969 C 279.648438 136.433594 279.921875 136.621094 280.105469 136.855469 C 280.28125 137.09375 280.40625 137.414062 280.480469 137.8125 L 279.4375 137.960938 C 279.398438 137.640625 279.257812 137.390625 279.023438 137.210938 C 278.796875 137.03125 278.484375 136.9375 278.085938 136.9375 C 277.59375 136.9375 277.25 137.023438 277.042969 137.1875 C 276.835938 137.34375 276.730469 137.53125 276.730469 137.75 C 276.730469 137.890625 276.773438 138.011719 276.855469 138.105469 C 276.9375 138.230469 277.074219 138.328125 277.273438 138.398438 C 277.367188 138.4375 277.671875 138.53125 278.1875 138.667969 C 278.9375 138.867188 279.460938 139.023438 279.75 139.148438 C 280.054688 139.273438 280.292969 139.460938 280.460938 139.710938 C 280.625 139.949219 280.710938 140.246094 280.710938 140.605469 C 280.710938 140.96875 280.605469 141.304688 280.398438 141.605469 C 280.1875 141.914062 279.886719 142.15625 279.5 142.335938 C 279.125 142.5 278.6875 142.585938 278.1875 142.585938 C 277.382812 142.585938 276.761719 142.417969 276.335938 142.085938 C 275.917969 141.742188 275.652344 141.242188 275.542969 140.585938 Z M 275.542969 140.585938 "/>
<path style=" stroke:none;fill-rule:nonzero;fill:rgb(0%,0%,0%);fill-opacity:1;" d="M 287.523438 138.6875 L 281.835938 141.105469 L 281.835938 140.0625 L 286.335938 138.1875 L 281.835938 136.335938 L 281.835938 135.292969 L 287.523438 137.6875 Z M 287.523438 138.6875 "/>
<path style="fill:none;stroke-width:1;stroke-linecap:round;stroke-linejoin:round;stroke:rgb(0%,0%,0%);stroke-opacity:1;stroke-miterlimit:10;" d="M 766.924805 624.338867 L 813.37207 624.081055 C 816.670898 624.066406 819.339844 621.382812 819.339844 618.081055 L 819.339844 615.948242 " transform="matrix(1.333333,0,0,1.333333,-752,-714.666667)"/>
<path style="fill:none;stroke-width:1;stroke-linecap:butt;stroke-linejoin:miter;stroke:rgb(0%,0%,0%);stroke-opacity:1;stroke-miterlimit:10;" d="M 819.339844 611.949219 L 819.339844 615.948242 M 817.839844 615.948242 L 819.339844 611.949219 L 820.839844 615.948242 " transform="matrix(1.333333,0,0,1.333333,-752,-714.666667)"/>
<path style="fill:none;stroke-width:1;stroke-linecap:round;stroke-linejoin:round;stroke:rgb(0%,0%,0%);stroke-opacity:1;stroke-miterlimit:10;" d="M 800.692383 624.139648 L 856.708008 623.911133 C 860.012695 623.899414 862.68457 621.21582 862.68457 617.911133 L 862.68457 615.78418 " transform="matrix(1.333333,0,0,1.333333,-752,-714.666667)"/>
<path style="fill:none;stroke-width:1;stroke-linecap:butt;stroke-linejoin:miter;stroke:rgb(0%,0%,0%);stroke-opacity:1;stroke-miterlimit:10;" d="M 862.68457 611.785156 L 862.68457 615.78418 M 861.18457 615.78418 L 862.68457 611.785156 L 864.18457 615.78418 " transform="matrix(1.333333,0,0,1.333333,-752,-714.666667)"/>
<path style="fill:none;stroke-width:1;stroke-linecap:round;stroke-linejoin:round;stroke:rgb(0%,0%,0%);stroke-opacity:1;stroke-miterlimit:10;" d="M 843.172852 623.928711 L 899.188477 623.700195 C 902.493164 623.688477 905.165039 621.004883 905.165039 617.700195 L 905.165039 615.573242 " transform="matrix(1.333333,0,0,1.333333,-752,-714.666667)"/>
<path style="fill:none;stroke-width:1;stroke-linecap:butt;stroke-linejoin:miter;stroke:rgb(0%,0%,0%);stroke-opacity:1;stroke-miterlimit:10;" d="M 905.165039 611.574219 L 905.165039 615.573242 M 903.665039 615.573242 L 905.165039 611.574219 L 906.665039 615.573242 " transform="matrix(1.333333,0,0,1.333333,-752,-714.666667)"/>
<path style=" stroke:none;fill-rule:nonzero;fill:rgb(0%,0%,0%);fill-opacity:1;" d="M 323.378906 142.4375 L 323.378906 133.855469 L 324.503906 133.855469 L 324.503906 142.4375 Z M 323.378906 142.4375 "/>
<path style=" stroke:none;fill-rule:nonzero;fill:rgb(0%,0%,0%);fill-opacity:1;" d="M 326.359375 142.4375 L 326.359375 133.855469 L 327.402344 133.855469 L 327.402344 142.4375 Z M 326.359375 142.4375 "/>
<path style=" stroke:none;fill-rule:nonzero;fill:rgb(0%,0%,0%);fill-opacity:1;" d="M 328.625 140.585938 L 329.667969 140.417969 C 329.71875 140.835938 329.882812 141.15625 330.148438 141.375 C 330.421875 141.601562 330.796875 141.710938 331.273438 141.710938 C 331.757812 141.710938 332.117188 141.617188 332.355469 141.417969 C 332.589844 141.226562 332.710938 140.996094 332.710938 140.730469 C 332.710938 140.480469 332.605469 140.292969 332.398438 140.167969 C 332.242188 140.074219 331.882812 139.949219 331.3125 139.792969 C 330.53125 139.601562 329.992188 139.433594 329.6875 139.292969 C 329.398438 139.15625 329.171875 138.960938 329.023438 138.710938 C 328.867188 138.460938 328.792969 138.183594 328.792969 137.875 C 328.792969 137.601562 328.855469 137.34375 328.980469 137.105469 C 329.105469 136.871094 329.277344 136.667969 329.5 136.5 C 329.667969 136.390625 329.886719 136.292969 330.167969 136.210938 C 330.460938 136.125 330.761719 136.085938 331.085938 136.085938 C 331.570312 136.085938 331.992188 136.15625 332.355469 136.292969 C 332.730469 136.433594 333.007812 136.621094 333.1875 136.855469 C 333.367188 137.09375 333.492188 137.414062 333.5625 137.8125 L 332.523438 137.960938 C 332.480469 137.640625 332.339844 137.390625 332.105469 137.210938 C 331.882812 137.03125 331.570312 136.9375 331.167969 136.9375 C 330.679688 136.9375 330.335938 137.023438 330.125 137.1875 C 329.917969 137.34375 329.8125 137.53125 329.8125 137.75 C 329.8125 137.890625 329.855469 138.011719 329.9375 138.105469 C 330.023438 138.230469 330.15625 138.328125 330.355469 138.398438 C 330.449219 138.4375 330.757812 138.53125 331.273438 138.667969 C 332.023438 138.867188 332.542969 139.023438 332.835938 139.148438 C 333.136719 139.273438 333.375 139.460938 333.542969 139.710938 C 333.710938 139.949219 333.792969 140.246094 333.792969 140.605469 C 333.792969 140.96875 333.6875 141.304688 333.480469 141.605469 C 333.273438 141.914062 332.96875 142.15625 332.585938 142.335938 C 332.210938 142.5 331.773438 142.585938 331.273438 142.585938 C 330.464844 142.585938 329.84375 142.417969 329.417969 142.085938 C 329 141.742188 328.734375 141.242188 328.625 140.585938 Z M 328.625 140.585938 "/>
<path style=" stroke:none;fill-rule:nonzero;fill:rgb(0%,0%,0%);fill-opacity:1;" d="M 358.769531 142.4375 L 358.769531 136.210938 L 359.730469 136.210938 L 359.730469 137.167969 C 359.964844 136.726562 360.1875 136.433594 360.394531 136.292969 C 360.605469 136.15625 360.832031 136.085938 361.082031 136.085938 C 361.425781 136.085938 361.792969 136.199219 362.167969 136.417969 L 361.792969 137.398438 C 361.542969 137.246094 361.28125 137.167969 361.019531 137.167969 C 360.796875 137.167969 360.589844 137.242188 360.394531 137.375 C 360.214844 137.515625 360.082031 137.710938 360 137.960938 C 359.886719 138.335938 359.832031 138.746094 359.832031 139.1875 L 359.832031 142.4375 Z M 358.769531 142.4375 "/>
<path style=" stroke:none;fill-rule:nonzero;fill:rgb(0%,0%,0%);fill-opacity:1;" d="M 367.039062 140.4375 L 368.140625 140.5625 C 367.960938 141.203125 367.632812 141.703125 367.164062 142.0625 C 366.703125 142.414062 366.109375 142.585938 365.390625 142.585938 C 364.484375 142.585938 363.765625 142.308594 363.226562 141.75 C 362.695312 141.183594 362.433594 140.390625 362.433594 139.375 C 362.433594 138.335938 362.703125 137.53125 363.246094 136.960938 C 363.789062 136.375 364.484375 136.085938 365.351562 136.085938 C 366.183594 136.085938 366.855469 136.371094 367.371094 136.9375 C 367.898438 137.496094 368.164062 138.289062 368.164062 139.3125 C 368.164062 139.386719 368.164062 139.480469 368.164062 139.605469 L 363.515625 139.605469 C 363.558594 140.289062 363.75 140.808594 364.101562 141.167969 C 364.445312 141.53125 364.882812 141.710938 365.414062 141.710938 C 365.796875 141.710938 366.125 141.617188 366.390625 141.417969 C 366.667969 141.210938 366.882812 140.886719 367.039062 140.4375 Z M 363.578125 138.730469 L 367.058594 138.730469 C 367.015625 138.203125 366.882812 137.808594 366.664062 137.542969 C 366.328125 137.140625 365.890625 136.9375 365.351562 136.9375 C 364.859375 136.9375 364.453125 137.105469 364.121094 137.4375 C 363.796875 137.761719 363.621094 138.1875 363.578125 138.730469 Z M 363.578125 138.730469 "/>
<path style=" stroke:none;fill-rule:nonzero;fill:rgb(0%,0%,0%);fill-opacity:1;" d="M 369.273438 142.960938 L 370.296875 143.105469 C 370.335938 143.421875 370.453125 143.652344 370.648438 143.792969 C 370.910156 143.984375 371.273438 144.085938 371.734375 144.085938 C 372.21875 144.085938 372.59375 143.984375 372.859375 143.792969 C 373.117188 143.59375 373.300781 143.324219 373.398438 142.980469 C 373.453125 142.757812 373.472656 142.308594 373.460938 141.625 C 373.003906 142.167969 372.429688 142.4375 371.753906 142.4375 C 370.890625 142.4375 370.222656 142.136719 369.753906 141.523438 C 369.296875 140.898438 369.066406 140.15625 369.066406 139.292969 C 369.066406 138.699219 369.171875 138.148438 369.378906 137.648438 C 369.597656 137.148438 369.910156 136.765625 370.316406 136.5 C 370.71875 136.226562 371.195312 136.085938 371.753906 136.085938 C 372.488281 136.085938 373.09375 136.375 373.566406 136.960938 L 373.566406 136.210938 L 374.546875 136.210938 L 374.546875 141.585938 C 374.546875 142.554688 374.441406 143.242188 374.234375 143.648438 C 374.035156 144.046875 373.722656 144.367188 373.296875 144.605469 C 372.878906 144.839844 372.359375 144.960938 371.734375 144.960938 C 370.984375 144.960938 370.378906 144.792969 369.921875 144.460938 C 369.472656 144.125 369.257812 143.625 369.273438 142.960938 Z M 370.148438 139.210938 C 370.148438 140.03125 370.304688 140.625 370.628906 141 C 370.945312 141.375 371.347656 141.5625 371.835938 141.5625 C 372.320312 141.5625 372.734375 141.375 373.066406 141 C 373.398438 140.625 373.566406 140.042969 373.566406 139.25 C 373.566406 138.492188 373.390625 137.914062 373.046875 137.523438 C 372.710938 137.136719 372.304688 136.9375 371.835938 136.9375 C 371.363281 136.9375 370.960938 137.136719 370.628906 137.523438 C 370.304688 137.898438 370.148438 138.460938 370.148438 139.210938 Z M 370.148438 139.210938 "/>
<path style=" stroke:none;fill-rule:nonzero;fill:rgb(0%,0%,0%);fill-opacity:1;" d="M 380.199219 141.667969 C 379.808594 142 379.433594 142.242188 379.074219 142.375 C 378.710938 142.511719 378.324219 142.585938 377.90625 142.585938 C 377.226562 142.585938 376.699219 142.417969 376.324219 142.085938 C 375.960938 141.75 375.78125 141.324219 375.78125 140.792969 C 375.78125 140.492188 375.851562 140.210938 375.992188 139.960938 C 376.125 139.710938 376.308594 139.511719 376.53125 139.355469 C 376.75 139.203125 377 139.085938 377.28125 139 C 377.492188 138.960938 377.804688 138.914062 378.21875 138.855469 C 379.078125 138.761719 379.710938 138.636719 380.117188 138.480469 C 380.117188 138.34375 380.117188 138.25 380.117188 138.210938 C 380.117188 137.78125 380.015625 137.480469 379.824219 137.3125 C 379.542969 137.0625 379.140625 136.9375 378.617188 136.9375 C 378.117188 136.9375 377.746094 137.03125 377.511719 137.210938 C 377.273438 137.375 377.101562 137.683594 376.992188 138.125 L 375.96875 138 C 376.054688 137.558594 376.199219 137.203125 376.40625 136.9375 C 376.625 136.664062 376.9375 136.453125 377.34375 136.3125 C 377.761719 136.164062 378.230469 136.085938 378.761719 136.085938 C 379.304688 136.085938 379.730469 136.148438 380.054688 136.273438 C 380.386719 136.398438 380.625 136.558594 380.78125 136.75 C 380.949219 136.933594 381.058594 137.167969 381.117188 137.460938 C 381.15625 137.640625 381.179688 137.960938 381.179688 138.417969 L 381.179688 139.835938 C 381.179688 140.808594 381.199219 141.429688 381.242188 141.6875 C 381.28125 141.953125 381.371094 142.203125 381.511719 142.4375 L 380.40625 142.4375 C 380.292969 142.21875 380.226562 141.960938 380.199219 141.667969 Z M 380.117188 139.3125 C 379.726562 139.46875 379.148438 139.601562 378.386719 139.710938 C 377.953125 139.78125 377.648438 139.855469 377.46875 139.9375 C 377.289062 140.011719 377.148438 140.121094 377.054688 140.273438 C 376.953125 140.429688 376.90625 140.59375 376.90625 140.773438 C 376.90625 141.054688 377.011719 141.289062 377.21875 141.480469 C 377.429688 141.664062 377.742188 141.75 378.15625 141.75 C 378.558594 141.75 378.917969 141.664062 379.242188 141.480469 C 379.558594 141.304688 379.792969 141.058594 379.949219 140.75 C 380.058594 140.515625 380.117188 140.167969 380.117188 139.710938 Z M 380.117188 139.3125 "/>
<path style=" stroke:none;fill-rule:nonzero;fill:rgb(0%,0%,0%);fill-opacity:1;" d="M 382.789062 142.4375 L 382.789062 136.210938 L 383.75 136.210938 L 383.75 137.167969 C 383.984375 136.726562 384.207031 136.433594 384.414062 136.292969 C 384.625 136.15625 384.851562 136.085938 385.101562 136.085938 C 385.445312 136.085938 385.8125 136.199219 386.1875 136.417969 L 385.8125 137.398438 C 385.5625 137.246094 385.300781 137.167969 385.039062 137.167969 C 384.816406 137.167969 384.609375 137.242188 384.414062 137.375 C 384.234375 137.515625 384.101562 137.710938 384.019531 137.960938 C 383.90625 138.335938 383.851562 138.746094 383.851562 139.1875 L 383.851562 142.4375 Z M 382.789062 142.4375 "/>
<path style=" stroke:none;fill-rule:nonzero;fill:rgb(0%,0%,0%);fill-opacity:1;" d="M 390.847656 142.4375 L 390.847656 141.648438 C 390.441406 142.273438 389.859375 142.585938 389.097656 142.585938 C 388.609375 142.585938 388.160156 142.445312 387.746094 142.167969 C 387.328125 141.890625 387 141.511719 386.765625 141.023438 C 386.542969 140.539062 386.433594 139.976562 386.433594 139.335938 C 386.433594 138.710938 386.535156 138.148438 386.746094 137.648438 C 386.953125 137.136719 387.253906 136.746094 387.660156 136.480469 C 388.078125 136.21875 388.542969 136.085938 389.058594 136.085938 C 389.433594 136.085938 389.765625 136.164062 390.058594 136.3125 C 390.347656 136.46875 390.582031 136.679688 390.765625 136.9375 L 390.765625 133.855469 L 391.828125 133.855469 L 391.828125 142.4375 Z M 387.515625 139.335938 C 387.515625 140.125 387.683594 140.726562 388.015625 141.125 C 388.347656 141.515625 388.746094 141.710938 389.203125 141.710938 C 389.660156 141.710938 390.046875 141.523438 390.371094 141.148438 C 390.703125 140.773438 390.871094 140.199219 390.871094 139.417969 C 390.871094 138.574219 390.703125 137.949219 390.371094 137.542969 C 390.035156 137.140625 389.628906 136.9375 389.160156 136.9375 C 388.6875 136.9375 388.292969 137.136719 387.972656 137.523438 C 387.667969 137.914062 387.515625 138.515625 387.515625 139.335938 Z M 387.515625 139.335938 "/>
<path style=" stroke:none;fill-rule:nonzero;fill:rgb(0%,0%,0%);fill-opacity:1;" d="M 397.730469 140.4375 L 398.835938 140.5625 C 398.652344 141.203125 398.324219 141.703125 397.855469 142.0625 C 397.398438 142.414062 396.804688 142.585938 396.085938 142.585938 C 395.179688 142.585938 394.460938 142.308594 393.917969 141.75 C 393.386719 141.183594 393.128906 140.390625 393.128906 139.375 C 393.128906 138.335938 393.398438 137.53125 393.941406 136.960938 C 394.480469 136.375 395.179688 136.085938 396.042969 136.085938 C 396.878906 136.085938 397.550781 136.371094 398.066406 136.9375 C 398.589844 137.496094 398.855469 138.289062 398.855469 139.3125 C 398.855469 139.386719 398.855469 139.480469 398.855469 139.605469 L 394.210938 139.605469 C 394.253906 140.289062 394.445312 140.808594 394.792969 141.167969 C 395.136719 141.53125 395.574219 141.710938 396.105469 141.710938 C 396.492188 141.710938 396.820312 141.617188 397.085938 141.417969 C 397.363281 141.210938 397.574219 140.886719 397.730469 140.4375 Z M 394.273438 138.730469 L 397.753906 138.730469 C 397.710938 138.203125 397.574219 137.808594 397.355469 137.542969 C 397.023438 137.140625 396.585938 136.9375 396.042969 136.9375 C 395.554688 136.9375 395.148438 137.105469 394.816406 137.4375 C 394.492188 137.761719 394.316406 138.1875 394.273438 138.730469 Z M 394.273438 138.730469 "/>
<path style=" stroke:none;fill-rule:nonzero;fill:rgb(0%,0%,0%);fill-opacity:1;" d="M 400.15625 142.4375 L 400.15625 136.210938 L 401.113281 136.210938 L 401.113281 137.105469 C 401.558594 136.429688 402.21875 136.085938 403.09375 136.085938 C 403.46875 136.085938 403.808594 136.15625 404.113281 136.292969 C 404.433594 136.417969 404.667969 136.59375 404.824219 136.8125 C 404.972656 137.023438 405.082031 137.28125 405.15625 137.585938 C 405.199219 137.78125 405.21875 138.121094 405.21875 138.605469 L 405.21875 142.4375 L 404.15625 142.4375 L 404.15625 138.648438 C 404.15625 138.21875 404.113281 137.898438 404.03125 137.6875 C 403.949219 137.480469 403.800781 137.3125 403.59375 137.1875 C 403.386719 137.054688 403.140625 136.980469 402.863281 136.980469 C 402.417969 136.980469 402.03125 137.125 401.699219 137.417969 C 401.375 137.699219 401.21875 138.242188 401.21875 139.042969 L 401.21875 142.4375 Z M 400.15625 142.4375 "/>
<path style=" stroke:none;fill-rule:nonzero;fill:rgb(0%,0%,0%);fill-opacity:1;" d="M 409.140625 141.5 L 409.289062 142.417969 C 408.980469 142.484375 408.714844 142.523438 408.496094 142.523438 C 408.105469 142.523438 407.808594 142.460938 407.601562 142.335938 C 407.390625 142.210938 407.238281 142.054688 407.140625 141.855469 C 407.058594 141.664062 407.015625 141.25 407.015625 140.625 L 407.015625 137.042969 L 406.246094 137.042969 L 406.246094 136.210938 L 407.015625 136.210938 L 407.015625 134.667969 L 408.078125 134.042969 L 408.078125 136.210938 L 409.140625 136.210938 L 409.140625 137.042969 L 408.078125 137.042969 L 408.078125 140.667969 C 408.078125 140.976562 408.089844 141.167969 408.121094 141.25 C 408.164062 141.335938 408.226562 141.40625 408.308594 141.460938 C 408.390625 141.515625 408.507812 141.542969 408.664062 141.542969 C 408.789062 141.542969 408.945312 141.53125 409.140625 141.5 Z M 409.140625 141.5 "/>
<path style=" stroke:none;fill-rule:nonzero;fill:rgb(0%,0%,0%);fill-opacity:1;" d="M 440.617188 142.4375 L 440.617188 141.230469 L 441.828125 141.230469 L 441.828125 142.4375 Z M 440.617188 142.4375 "/>
</g>
</svg>
