<?xml version="1.0" encoding="UTF-8"?>
<svg xmlns="http://www.w3.org/2000/svg" xmlns:xlink="http://www.w3.org/1999/xlink" width="248" height="108" viewBox="0 0 248 108" version="1.1">
<g id="surface1">
<path style=" stroke:none;fill-rule:nonzero;fill:rgb(100%,100%,100%);fill-opacity:1;" d="M 25.332031 106.15625 L 49.332031 106.15625 L 49.332031 82.15625 L 25.332031 82.15625 Z M 25.332031 106.15625 "/>
<path style="fill:none;stroke-width:1;stroke-linecap:round;stroke-linejoin:round;stroke:rgb(0%,0%,0%);stroke-opacity:1;stroke-miterlimit:10;" d="M 71.999023 166.617188 L 89.999023 166.617188 L 89.999023 184.617188 L 71.999023 184.617188 Z M 71.999023 166.617188 " transform="matrix(1.333333,0,0,1.333333,-70.666667,-140)"/>
<path style=" stroke:none;fill-rule:nonzero;fill:rgb(0%,0%,0%);fill-opacity:1;" d="M 34.558594 90.503906 L 34.558594 89.484375 L 40.121094 89.484375 L 40.121094 90.296875 C 39.578125 90.878906 39.039062 91.660156 38.496094 92.628906 C 37.953125 93.585938 37.539062 94.582031 37.246094 95.609375 C 37.039062 96.316406 36.902344 97.101562 36.851562 97.960938 L 35.765625 97.960938 C 35.777344 97.285156 35.914062 96.472656 36.164062 95.523438 C 36.414062 94.566406 36.773438 93.644531 37.246094 92.753906 C 37.730469 91.867188 38.234375 91.117188 38.765625 90.503906 Z M 34.558594 90.503906 "/>
<path style=" stroke:none;fill-rule:nonzero;fill:rgb(69.803923%,85.09804%,100%);fill-opacity:1;" d="M 25.332031 58.15625 L 49.332031 58.15625 L 49.332031 34.15625 L 25.332031 34.15625 Z M 25.332031 58.15625 "/>
<path style="fill:none;stroke-width:1;stroke-linecap:round;stroke-linejoin:round;stroke:rgb(0%,0%,0%);stroke-opacity:1;stroke-miterlimit:10;" d="M 71.999023 130.617188 L 89.999023 130.617188 L 89.999023 148.617188 L 71.999023 148.617188 Z M 71.999023 130.617188 " transform="matrix(1.333333,0,0,1.333333,-70.666667,-140)"/>
<path style=" stroke:none;fill-rule:nonzero;fill:rgb(0%,0%,0%);fill-opacity:1;" d="M 38.476562 49.960938 L 37.414062 49.960938 L 37.414062 43.234375 C 37.164062 43.484375 36.828125 43.734375 36.414062 43.984375 C 35.996094 44.222656 35.625 44.394531 35.308594 44.503906 L 35.308594 43.484375 C 35.890625 43.222656 36.402344 42.894531 36.851562 42.503906 C 37.292969 42.101562 37.605469 41.710938 37.789062 41.335938 L 38.476562 41.335938 Z M 38.476562 49.960938 "/>
<path style=" stroke:none;fill-rule:nonzero;fill:rgb(69.803923%,85.09804%,100%);fill-opacity:1;" d="M 25.332031 82.15625 L 49.332031 82.15625 L 49.332031 58.15625 L 25.332031 58.15625 Z M 25.332031 82.15625 "/>
<path style="fill:none;stroke-width:1;stroke-linecap:round;stroke-linejoin:round;stroke:rgb(0%,0%,0%);stroke-opacity:1;stroke-miterlimit:10;" d="M 71.999023 148.617188 L 89.999023 148.617188 L 89.999023 166.617188 L 71.999023 166.617188 Z M 71.999023 148.617188 " transform="matrix(1.333333,0,0,1.333333,-70.666667,-140)"/>
<path style=" stroke:none;fill-rule:nonzero;fill:rgb(0%,0%,0%);fill-opacity:1;" d="M 37.871094 73.960938 L 37.871094 71.898438 L 34.140625 71.898438 L 34.140625 70.941406 L 38.058594 65.378906 L 38.933594 65.378906 L 38.933594 70.941406 L 40.101562 70.941406 L 40.101562 71.898438 L 38.933594 71.898438 L 38.933594 73.960938 Z M 37.871094 70.941406 L 37.871094 67.066406 L 35.183594 70.941406 Z M 37.871094 70.941406 "/>
<path style=" stroke:none;fill-rule:nonzero;fill:rgb(100%,100%,100%);fill-opacity:1;" d="M 1.332031 106.15625 L 25.332031 106.15625 L 25.332031 82.15625 L 1.332031 82.15625 Z M 1.332031 106.15625 "/>
<path style="fill:none;stroke-width:1;stroke-linecap:round;stroke-linejoin:round;stroke:rgb(0%,0%,0%);stroke-opacity:1;stroke-miterlimit:10;" d="M 53.999023 166.617188 L 71.999023 166.617188 L 71.999023 184.617188 L 53.999023 184.617188 Z M 53.999023 166.617188 " transform="matrix(1.333333,0,0,1.333333,-70.666667,-140)"/>
<path style=" stroke:none;fill-rule:nonzero;fill:rgb(0%,0%,0%);fill-opacity:1;" d="M 15.976562 91.484375 L 14.914062 91.566406 C 14.828125 91.148438 14.695312 90.847656 14.515625 90.648438 C 14.234375 90.359375 13.890625 90.210938 13.476562 90.210938 C 13.125 90.210938 12.828125 90.304688 12.578125 90.484375 C 12.246094 90.734375 11.980469 91.085938 11.789062 91.546875 C 11.605469 92.003906 11.507812 92.664062 11.496094 93.523438 C 11.746094 93.148438 12.046875 92.875 12.414062 92.691406 C 12.789062 92.5 13.171875 92.398438 13.578125 92.398438 C 14.289062 92.398438 14.882812 92.660156 15.371094 93.171875 C 15.871094 93.6875 16.121094 94.351562 16.121094 95.171875 C 16.121094 95.710938 16 96.222656 15.765625 96.691406 C 15.527344 97.148438 15.210938 97.503906 14.808594 97.753906 C 14.402344 97.988281 13.945312 98.109375 13.433594 98.109375 C 12.558594 98.109375 11.839844 97.789062 11.289062 97.148438 C 10.730469 96.5 10.453125 95.429688 10.453125 93.941406 C 10.453125 92.289062 10.757812 91.082031 11.371094 90.316406 C 11.898438 89.664062 12.621094 89.335938 13.539062 89.335938 C 14.203125 89.335938 14.75 89.535156 15.183594 89.921875 C 15.609375 90.296875 15.875 90.816406 15.976562 91.484375 Z M 11.664062 95.171875 C 11.664062 95.546875 11.734375 95.898438 11.890625 96.234375 C 12.042969 96.554688 12.257812 96.804688 12.539062 96.984375 C 12.8125 97.148438 13.105469 97.234375 13.414062 97.234375 C 13.855469 97.234375 14.234375 97.0625 14.558594 96.710938 C 14.875 96.351562 15.039062 95.859375 15.039062 95.234375 C 15.039062 94.640625 14.875 94.171875 14.558594 93.835938 C 14.25 93.492188 13.855469 93.316406 13.371094 93.316406 C 12.898438 93.316406 12.496094 93.492188 12.164062 93.835938 C 11.828125 94.171875 11.664062 94.617188 11.664062 95.171875 Z M 11.664062 95.171875 "/>
<path style=" stroke:none;fill-rule:nonzero;fill:rgb(100%,100%,100%);fill-opacity:1;" d="M 49.332031 82.15625 L 73.332031 82.15625 L 73.332031 58.15625 L 49.332031 58.15625 Z M 49.332031 82.15625 "/>
<path style="fill:none;stroke-width:1;stroke-linecap:round;stroke-linejoin:round;stroke:rgb(0%,0%,0%);stroke-opacity:1;stroke-miterlimit:10;" d="M 89.999023 148.617188 L 107.999023 148.617188 L 107.999023 166.617188 L 89.999023 166.617188 Z M 89.999023 148.617188 " transform="matrix(1.333333,0,0,1.333333,-70.666667,-140)"/>
<path style=" stroke:none;fill-rule:nonzero;fill:rgb(0%,0%,0%);fill-opacity:1;" d="M 58.496094 71.710938 L 59.601562 71.609375 C 59.683594 72.148438 59.871094 72.5625 60.164062 72.835938 C 60.464844 73.101562 60.828125 73.234375 61.246094 73.234375 C 61.757812 73.234375 62.1875 73.046875 62.539062 72.671875 C 62.898438 72.285156 63.078125 71.773438 63.078125 71.148438 C 63.078125 70.539062 62.902344 70.0625 62.558594 69.710938 C 62.226562 69.367188 61.789062 69.191406 61.246094 69.191406 C 60.898438 69.191406 60.585938 69.273438 60.308594 69.441406 C 60.042969 69.597656 59.828125 69.789062 59.664062 70.023438 L 58.683594 69.898438 L 59.515625 65.484375 L 63.789062 65.484375 L 63.789062 66.503906 L 60.351562 66.503906 L 59.890625 68.796875 C 60.402344 68.453125 60.945312 68.273438 61.515625 68.273438 C 62.265625 68.273438 62.898438 68.535156 63.414062 69.046875 C 63.921875 69.5625 64.183594 70.226562 64.183594 71.046875 C 64.183594 71.828125 63.960938 72.5 63.515625 73.066406 C 62.960938 73.765625 62.203125 74.109375 61.246094 74.109375 C 60.464844 74.109375 59.828125 73.894531 59.328125 73.460938 C 58.839844 73.019531 58.5625 72.4375 58.496094 71.710938 Z M 58.496094 71.710938 "/>
<path style=" stroke:none;fill-rule:nonzero;fill:rgb(69.803923%,85.09804%,100%);fill-opacity:1;" d="M 1.332031 82.15625 L 25.332031 82.15625 L 25.332031 58.15625 L 1.332031 58.15625 Z M 1.332031 82.15625 "/>
<path style="fill:none;stroke-width:1;stroke-linecap:round;stroke-linejoin:round;stroke:rgb(0%,0%,0%);stroke-opacity:1;stroke-miterlimit:10;" d="M 53.999023 148.617188 L 71.999023 148.617188 L 71.999023 166.617188 L 53.999023 166.617188 Z M 53.999023 148.617188 " transform="matrix(1.333333,0,0,1.333333,-70.666667,-140)"/>
<path style=" stroke:none;fill-rule:nonzero;fill:rgb(0%,0%,0%);fill-opacity:1;" d="M 10.496094 71.691406 L 11.558594 71.546875 C 11.683594 72.144531 11.882812 72.578125 12.164062 72.835938 C 12.453125 73.101562 12.8125 73.234375 13.246094 73.234375 C 13.730469 73.234375 14.140625 73.066406 14.476562 72.734375 C 14.820312 72.390625 14.996094 71.957031 14.996094 71.441406 C 14.996094 70.957031 14.835938 70.5625 14.515625 70.253906 C 14.210938 69.9375 13.8125 69.773438 13.328125 69.773438 C 13.121094 69.773438 12.871094 69.816406 12.578125 69.898438 L 12.703125 68.960938 C 12.773438 68.976562 12.828125 68.984375 12.871094 68.984375 C 13.3125 68.984375 13.714844 68.867188 14.078125 68.628906 C 14.4375 68.394531 14.621094 68.035156 14.621094 67.546875 C 14.621094 67.160156 14.484375 66.835938 14.226562 66.585938 C 13.960938 66.335938 13.621094 66.210938 13.203125 66.210938 C 12.796875 66.210938 12.460938 66.347656 12.183594 66.609375 C 11.917969 66.859375 11.746094 67.242188 11.664062 67.753906 L 10.601562 67.566406 C 10.734375 66.859375 11.027344 66.3125 11.476562 65.921875 C 11.933594 65.535156 12.5 65.335938 13.183594 65.335938 C 13.652344 65.335938 14.085938 65.441406 14.476562 65.648438 C 14.875 65.847656 15.183594 66.117188 15.390625 66.460938 C 15.601562 66.8125 15.703125 67.179688 15.703125 67.566406 C 15.703125 67.941406 15.601562 68.285156 15.390625 68.585938 C 15.195312 68.894531 14.902344 69.140625 14.515625 69.316406 C 15.027344 69.429688 15.421875 69.671875 15.703125 70.046875 C 15.980469 70.410156 16.121094 70.867188 16.121094 71.421875 C 16.121094 72.171875 15.839844 72.8125 15.289062 73.335938 C 14.746094 73.851562 14.058594 74.109375 13.226562 74.109375 C 12.476562 74.109375 11.851562 73.890625 11.351562 73.441406 C 10.851562 73 10.5625 72.414062 10.496094 71.691406 Z M 10.496094 71.691406 "/>
<path style=" stroke:none;fill-rule:nonzero;fill:rgb(100%,100%,100%);fill-opacity:1;" d="M 49.332031 106.15625 L 73.332031 106.15625 L 73.332031 82.15625 L 49.332031 82.15625 Z M 49.332031 106.15625 "/>
<path style="fill:none;stroke-width:1;stroke-linecap:round;stroke-linejoin:round;stroke:rgb(0%,0%,0%);stroke-opacity:1;stroke-miterlimit:10;" d="M 89.999023 166.617188 L 107.999023 166.617188 L 107.999023 184.617188 L 89.999023 184.617188 Z M 89.999023 166.617188 " transform="matrix(1.333333,0,0,1.333333,-70.666667,-140)"/>
<path style=" stroke:none;fill-rule:nonzero;fill:rgb(0%,0%,0%);fill-opacity:1;" d="M 60.121094 93.296875 C 59.671875 93.144531 59.351562 92.921875 59.140625 92.628906 C 58.933594 92.328125 58.828125 91.960938 58.828125 91.546875 C 58.828125 90.921875 59.046875 90.398438 59.496094 89.984375 C 59.953125 89.554688 60.546875 89.335938 61.289062 89.335938 C 62.039062 89.335938 62.640625 89.5625 63.101562 90.003906 C 63.558594 90.4375 63.789062 90.960938 63.789062 91.585938 C 63.789062 91.976562 63.683594 92.328125 63.476562 92.628906 C 63.265625 92.921875 62.945312 93.144531 62.515625 93.296875 C 63.042969 93.476562 63.445312 93.765625 63.726562 94.148438 C 64 94.523438 64.140625 94.976562 64.140625 95.503906 C 64.140625 96.242188 63.875 96.859375 63.351562 97.359375 C 62.835938 97.859375 62.152344 98.109375 61.308594 98.109375 C 60.460938 98.109375 59.773438 97.859375 59.246094 97.359375 C 58.730469 96.859375 58.476562 96.234375 58.476562 95.484375 C 58.476562 94.929688 58.609375 94.460938 58.890625 94.085938 C 59.183594 93.703125 59.589844 93.4375 60.121094 93.296875 Z M 59.914062 91.523438 C 59.914062 91.929688 60.039062 92.265625 60.289062 92.523438 C 60.546875 92.773438 60.890625 92.898438 61.308594 92.898438 C 61.726562 92.898438 62.058594 92.773438 62.308594 92.523438 C 62.570312 92.265625 62.703125 91.941406 62.703125 91.566406 C 62.703125 91.191406 62.570312 90.875 62.308594 90.609375 C 62.042969 90.347656 61.710938 90.210938 61.308594 90.210938 C 60.902344 90.210938 60.570312 90.347656 60.308594 90.609375 C 60.042969 90.859375 59.914062 91.164062 59.914062 91.523438 Z M 59.558594 95.484375 C 59.558594 95.789062 59.625 96.082031 59.765625 96.359375 C 59.917969 96.640625 60.132812 96.851562 60.414062 97.003906 C 60.6875 97.160156 60.996094 97.234375 61.328125 97.234375 C 61.828125 97.234375 62.234375 97.078125 62.558594 96.753906 C 62.890625 96.4375 63.058594 96.023438 63.058594 95.523438 C 63.058594 95.015625 62.890625 94.585938 62.558594 94.253906 C 62.226562 93.921875 61.796875 93.753906 61.289062 93.753906 C 60.789062 93.753906 60.371094 93.921875 60.039062 94.253906 C 59.714844 94.585938 59.558594 95 59.558594 95.484375 Z M 59.558594 95.484375 "/>
<path style=" stroke:none;fill-rule:nonzero;fill:rgb(100%,100%,100%);fill-opacity:1;" d="M 49.332031 58.15625 L 73.332031 58.15625 L 73.332031 34.15625 L 49.332031 34.15625 Z M 49.332031 58.15625 "/>
<path style="fill:none;stroke-width:1;stroke-linecap:round;stroke-linejoin:round;stroke:rgb(0%,0%,0%);stroke-opacity:1;stroke-miterlimit:10;" d="M 89.999023 130.617188 L 107.999023 130.617188 L 107.999023 148.617188 L 89.999023 148.617188 Z M 89.999023 130.617188 " transform="matrix(1.333333,0,0,1.333333,-70.666667,-140)"/>
<path style=" stroke:none;fill-rule:nonzero;fill:rgb(0%,0%,0%);fill-opacity:1;" d="M 64.039062 48.941406 L 64.039062 49.960938 L 58.351562 49.960938 C 58.351562 49.710938 58.390625 49.472656 58.476562 49.234375 C 58.625 48.847656 58.859375 48.460938 59.183594 48.085938 C 59.5 47.710938 59.960938 47.285156 60.558594 46.796875 C 61.484375 46.019531 62.109375 45.410156 62.433594 44.960938 C 62.765625 44.519531 62.933594 44.097656 62.933594 43.691406 C 62.933594 43.273438 62.777344 42.929688 62.476562 42.648438 C 62.183594 42.359375 61.796875 42.210938 61.328125 42.210938 C 60.8125 42.210938 60.402344 42.367188 60.101562 42.671875 C 59.792969 42.976562 59.640625 43.398438 59.640625 43.941406 L 58.558594 43.816406 C 58.625 43.015625 58.902344 42.398438 59.390625 41.984375 C 59.875 41.554688 60.527344 41.335938 61.351562 41.335938 C 62.167969 41.335938 62.8125 41.566406 63.289062 42.023438 C 63.773438 42.484375 64.015625 43.046875 64.015625 43.710938 C 64.015625 44.0625 63.945312 44.398438 63.808594 44.734375 C 63.667969 45.066406 63.433594 45.421875 63.101562 45.796875 C 62.777344 46.160156 62.246094 46.660156 61.496094 47.296875 C 60.855469 47.828125 60.445312 48.1875 60.265625 48.378906 C 60.085938 48.578125 59.9375 48.765625 59.828125 48.941406 Z M 64.039062 48.941406 "/>
<path style=" stroke:none;fill-rule:nonzero;fill:rgb(69.803923%,85.09804%,100%);fill-opacity:1;" d="M 1.332031 58.15625 L 25.332031 58.15625 L 25.332031 34.15625 L 1.332031 34.15625 Z M 1.332031 58.15625 "/>
<path style="fill:none;stroke-width:1;stroke-linecap:round;stroke-linejoin:round;stroke:rgb(0%,0%,0%);stroke-opacity:1;stroke-miterlimit:10;" d="M 53.999023 130.617188 L 71.999023 130.617188 L 71.999023 148.617188 L 53.999023 148.617188 Z M 53.999023 130.617188 " transform="matrix(1.333333,0,0,1.333333,-70.666667,-140)"/>
<path style=" stroke:none;fill-rule:nonzero;fill:rgb(0%,0%,0%);fill-opacity:1;" d="M 10.496094 45.734375 C 10.496094 44.722656 10.601562 43.898438 10.808594 43.273438 C 11.015625 42.648438 11.320312 42.171875 11.726562 41.835938 C 12.140625 41.503906 12.664062 41.335938 13.289062 41.335938 C 13.757812 41.335938 14.167969 41.4375 14.515625 41.628906 C 14.859375 41.8125 15.148438 42.078125 15.371094 42.421875 C 15.589844 42.769531 15.765625 43.191406 15.890625 43.691406 C 16.027344 44.191406 16.101562 44.875 16.101562 45.734375 C 16.101562 46.734375 15.996094 47.546875 15.789062 48.171875 C 15.578125 48.785156 15.265625 49.265625 14.851562 49.609375 C 14.445312 49.941406 13.921875 50.109375 13.289062 50.109375 C 12.464844 50.109375 11.820312 49.8125 11.351562 49.210938 C 10.777344 48.503906 10.496094 47.347656 10.496094 45.734375 Z M 11.578125 45.734375 C 11.578125 47.140625 11.734375 48.078125 12.058594 48.546875 C 12.390625 49.003906 12.796875 49.234375 13.289062 49.234375 C 13.773438 49.234375 14.183594 49.003906 14.515625 48.546875 C 14.851562 48.078125 15.015625 47.140625 15.015625 45.734375 C 15.015625 44.316406 14.851562 43.378906 14.515625 42.921875 C 14.183594 42.453125 13.773438 42.210938 13.289062 42.210938 C 12.796875 42.210938 12.414062 42.414062 12.121094 42.816406 C 11.757812 43.347656 11.578125 44.316406 11.578125 45.734375 Z M 11.578125 45.734375 "/>
<path style=" stroke:none;fill-rule:nonzero;fill:rgb(100%,100%,100%);fill-opacity:1;" d="M 197.21875 94.15625 L 221.21875 94.15625 L 221.21875 70.15625 L 197.21875 70.15625 Z M 197.21875 94.15625 "/>
<path style="fill:none;stroke-width:1;stroke-linecap:round;stroke-linejoin:round;stroke:rgb(0%,0%,0%);stroke-opacity:1;stroke-miterlimit:10;" d="M 200.914062 157.617188 L 218.914062 157.617188 L 218.914062 175.617188 L 200.914062 175.617188 Z M 200.914062 157.617188 " transform="matrix(1.333333,0,0,1.333333,-70.666667,-140)"/>
<path style=" stroke:none;fill-rule:nonzero;fill:rgb(0%,0%,0%);fill-opacity:1;" d="M 206.445312 78.503906 L 206.445312 77.484375 L 212.007812 77.484375 L 212.007812 78.296875 C 211.464844 78.878906 210.925781 79.660156 210.382812 80.628906 C 209.839844 81.585938 209.425781 82.582031 209.132812 83.609375 C 208.925781 84.316406 208.789062 85.101562 208.738281 85.960938 L 207.652344 85.960938 C 207.664062 85.285156 207.800781 84.472656 208.050781 83.523438 C 208.300781 82.566406 208.660156 81.644531 209.132812 80.753906 C 209.617188 79.867188 210.121094 79.117188 210.652344 78.503906 Z M 206.445312 78.503906 "/>
<path style=" stroke:none;fill-rule:nonzero;fill:rgb(100%,100%,100%);fill-opacity:1;" d="M 221.21875 94.15625 L 245.21875 94.15625 L 245.21875 70.15625 L 221.21875 70.15625 Z M 221.21875 94.15625 "/>
<path style="fill:none;stroke-width:1;stroke-linecap:round;stroke-linejoin:round;stroke:rgb(0%,0%,0%);stroke-opacity:1;stroke-miterlimit:10;" d="M 218.914062 157.617188 L 236.914062 157.617188 L 236.914062 175.617188 L 218.914062 175.617188 Z M 218.914062 157.617188 " transform="matrix(1.333333,0,0,1.333333,-70.666667,-140)"/>
<path style=" stroke:none;fill-rule:nonzero;fill:rgb(0%,0%,0%);fill-opacity:1;" d="M 232.007812 81.296875 C 231.558594 81.144531 231.238281 80.921875 231.027344 80.628906 C 230.820312 80.328125 230.714844 79.960938 230.714844 79.546875 C 230.714844 78.921875 230.933594 78.398438 231.382812 77.984375 C 231.839844 77.554688 232.433594 77.335938 233.175781 77.335938 C 233.925781 77.335938 234.527344 77.5625 234.988281 78.003906 C 235.445312 78.4375 235.675781 78.960938 235.675781 79.585938 C 235.675781 79.976562 235.570312 80.328125 235.363281 80.628906 C 235.152344 80.921875 234.832031 81.144531 234.402344 81.296875 C 234.929688 81.476562 235.332031 81.765625 235.613281 82.148438 C 235.886719 82.523438 236.027344 82.976562 236.027344 83.503906 C 236.027344 84.242188 235.761719 84.859375 235.238281 85.359375 C 234.722656 85.859375 234.039062 86.109375 233.195312 86.109375 C 232.347656 86.109375 231.660156 85.859375 231.132812 85.359375 C 230.617188 84.859375 230.363281 84.234375 230.363281 83.484375 C 230.363281 82.929688 230.496094 82.460938 230.777344 82.085938 C 231.070312 81.703125 231.476562 81.4375 232.007812 81.296875 Z M 231.800781 79.523438 C 231.800781 79.929688 231.925781 80.265625 232.175781 80.523438 C 232.433594 80.773438 232.777344 80.898438 233.195312 80.898438 C 233.613281 80.898438 233.945312 80.773438 234.195312 80.523438 C 234.457031 80.265625 234.589844 79.941406 234.589844 79.566406 C 234.589844 79.191406 234.457031 78.875 234.195312 78.609375 C 233.929688 78.347656 233.597656 78.210938 233.195312 78.210938 C 232.789062 78.210938 232.457031 78.347656 232.195312 78.609375 C 231.929688 78.859375 231.800781 79.164062 231.800781 79.523438 Z M 231.445312 83.484375 C 231.445312 83.789062 231.511719 84.082031 231.652344 84.359375 C 231.804688 84.640625 232.019531 84.851562 232.300781 85.003906 C 232.574219 85.160156 232.882812 85.234375 233.214844 85.234375 C 233.714844 85.234375 234.121094 85.078125 234.445312 84.753906 C 234.777344 84.4375 234.945312 84.023438 234.945312 83.523438 C 234.945312 83.015625 234.777344 82.585938 234.445312 82.253906 C 234.113281 81.921875 233.683594 81.753906 233.175781 81.753906 C 232.675781 81.753906 232.257812 81.921875 231.925781 82.253906 C 231.601562 82.585938 231.445312 83 231.445312 83.484375 Z M 231.445312 83.484375 "/>
<path style=" stroke:none;fill-rule:nonzero;fill:rgb(100%,100%,100%);fill-opacity:1;" d="M 221.21875 70.15625 L 245.21875 70.15625 L 245.21875 46.15625 L 221.21875 46.15625 Z M 221.21875 70.15625 "/>
<path style="fill:none;stroke-width:1;stroke-linecap:round;stroke-linejoin:round;stroke:rgb(0%,0%,0%);stroke-opacity:1;stroke-miterlimit:10;" d="M 218.914062 139.617188 L 236.914062 139.617188 L 236.914062 157.617188 L 218.914062 157.617188 Z M 218.914062 139.617188 " transform="matrix(1.333333,0,0,1.333333,-70.666667,-140)"/>
<path style=" stroke:none;fill-rule:nonzero;fill:rgb(0%,0%,0%);fill-opacity:1;" d="M 230.382812 59.710938 L 231.488281 59.609375 C 231.570312 60.148438 231.757812 60.5625 232.050781 60.835938 C 232.351562 61.101562 232.714844 61.234375 233.132812 61.234375 C 233.644531 61.234375 234.074219 61.046875 234.425781 60.671875 C 234.785156 60.285156 234.964844 59.773438 234.964844 59.148438 C 234.964844 58.539062 234.789062 58.0625 234.445312 57.710938 C 234.113281 57.367188 233.675781 57.191406 233.132812 57.191406 C 232.785156 57.191406 232.472656 57.273438 232.195312 57.441406 C 231.929688 57.597656 231.714844 57.789062 231.550781 58.023438 L 230.570312 57.898438 L 231.402344 53.484375 L 235.675781 53.484375 L 235.675781 54.503906 L 232.238281 54.503906 L 231.777344 56.796875 C 232.289062 56.453125 232.832031 56.273438 233.402344 56.273438 C 234.152344 56.273438 234.785156 56.535156 235.300781 57.046875 C 235.808594 57.5625 236.070312 58.226562 236.070312 59.046875 C 236.070312 59.828125 235.847656 60.5 235.402344 61.066406 C 234.847656 61.765625 234.089844 62.109375 233.132812 62.109375 C 232.351562 62.109375 231.714844 61.894531 231.214844 61.460938 C 230.726562 61.019531 230.449219 60.4375 230.382812 59.710938 Z M 230.382812 59.710938 "/>
<path style=" stroke:none;fill-rule:nonzero;fill:rgb(69.803923%,85.09804%,100%);fill-opacity:1;" d="M 197.21875 70.15625 L 221.21875 70.15625 L 221.21875 46.15625 L 197.21875 46.15625 Z M 197.21875 70.15625 "/>
<path style="fill:none;stroke-width:1;stroke-linecap:round;stroke-linejoin:round;stroke:rgb(0%,0%,0%);stroke-opacity:1;stroke-miterlimit:10;" d="M 200.914062 139.617188 L 218.914062 139.617188 L 218.914062 157.617188 L 200.914062 157.617188 Z M 200.914062 139.617188 " transform="matrix(1.333333,0,0,1.333333,-70.666667,-140)"/>
<path style=" stroke:none;fill-rule:nonzero;fill:rgb(0%,0%,0%);fill-opacity:1;" d="M 209.757812 61.960938 L 209.757812 59.898438 L 206.027344 59.898438 L 206.027344 58.941406 L 209.945312 53.378906 L 210.820312 53.378906 L 210.820312 58.941406 L 211.988281 58.941406 L 211.988281 59.898438 L 210.820312 59.898438 L 210.820312 61.960938 Z M 209.757812 58.941406 L 209.757812 55.066406 L 207.070312 58.941406 Z M 209.757812 58.941406 "/>
<path style=" stroke:none;fill-rule:nonzero;fill:rgb(100%,100%,100%);fill-opacity:1;" d="M 94 88.15625 L 176 88.15625 L 176 52.15625 L 94 52.15625 Z M 94 88.15625 "/>
<path style="fill:none;stroke-width:1;stroke-linecap:round;stroke-linejoin:round;stroke:rgb(0%,0%,0%);stroke-opacity:1;stroke-miterlimit:10;" d="M 123.5 144.117188 L 185 144.117188 L 185 171.117188 L 123.5 171.117188 Z M 123.5 144.117188 " transform="matrix(1.333333,0,0,1.333333,-70.666667,-140)"/>
<path style=" stroke:none;fill-rule:nonzero;fill:rgb(0%,0%,0%);fill-opacity:1;" d="M 128.035156 66.078125 L 128.035156 67.097656 L 122.347656 67.097656 C 122.347656 66.847656 122.386719 66.609375 122.472656 66.371094 C 122.621094 65.984375 122.855469 65.597656 123.179688 65.222656 C 123.496094 64.847656 123.957031 64.421875 124.554688 63.933594 C 125.480469 63.15625 126.105469 62.546875 126.429688 62.097656 C 126.761719 61.65625 126.929688 61.234375 126.929688 60.828125 C 126.929688 60.410156 126.773438 60.066406 126.472656 59.785156 C 126.179688 59.496094 125.792969 59.347656 125.324219 59.347656 C 124.808594 59.347656 124.398438 59.503906 124.097656 59.808594 C 123.789062 60.113281 123.636719 60.535156 123.636719 61.078125 L 122.554688 60.953125 C 122.621094 60.152344 122.898438 59.535156 123.386719 59.121094 C 123.871094 58.691406 124.523438 58.472656 125.347656 58.472656 C 126.164062 58.472656 126.808594 58.703125 127.285156 59.160156 C 127.769531 59.621094 128.011719 60.183594 128.011719 60.847656 C 128.011719 61.199219 127.941406 61.535156 127.804688 61.871094 C 127.664062 62.203125 127.429688 62.558594 127.097656 62.933594 C 126.773438 63.296875 126.242188 63.796875 125.492188 64.433594 C 124.851562 64.964844 124.441406 65.324219 124.261719 65.515625 C 124.082031 65.714844 123.933594 65.902344 123.824219 66.078125 Z M 128.035156 66.078125 "/>
<path style=" stroke:none;fill-rule:nonzero;fill:rgb(0%,0%,0%);fill-opacity:1;" d="M 132.082031 67.097656 L 134.355469 63.871094 L 132.25 60.871094 L 133.582031 60.871094 L 134.542969 62.328125 C 134.707031 62.609375 134.84375 62.84375 134.957031 63.035156 C 135.136719 62.777344 135.296875 62.546875 135.4375 62.347656 L 136.480469 60.871094 L 137.75 60.871094 L 135.605469 63.808594 L 137.917969 67.097656 L 136.625 67.097656 L 135.332031 65.160156 L 135 64.640625 L 133.375 67.097656 Z M 132.082031 67.097656 "/>
<path style=" stroke:none;fill-rule:nonzero;fill:rgb(0%,0%,0%);fill-opacity:1;" d="M 147.375 66.078125 L 147.375 67.097656 L 141.6875 67.097656 C 141.6875 66.847656 141.730469 66.609375 141.8125 66.371094 C 141.964844 65.984375 142.199219 65.597656 142.519531 65.222656 C 142.839844 64.847656 143.296875 64.421875 143.894531 63.933594 C 144.824219 63.15625 145.449219 62.546875 145.769531 62.097656 C 146.105469 61.65625 146.269531 61.234375 146.269531 60.828125 C 146.269531 60.410156 146.113281 60.066406 145.8125 59.785156 C 145.519531 59.496094 145.136719 59.347656 144.667969 59.347656 C 144.152344 59.347656 143.738281 59.503906 143.4375 59.808594 C 143.128906 60.113281 142.980469 60.535156 142.980469 61.078125 L 141.894531 60.953125 C 141.964844 60.152344 142.238281 59.535156 142.730469 59.121094 C 143.214844 58.691406 143.863281 58.472656 144.6875 58.472656 C 145.503906 58.472656 146.152344 58.703125 146.625 59.160156 C 147.109375 59.621094 147.355469 60.183594 147.355469 60.847656 C 147.355469 61.199219 147.28125 61.535156 147.144531 61.871094 C 147.003906 62.203125 146.769531 62.558594 146.4375 62.933594 C 146.113281 63.296875 145.582031 63.796875 144.832031 64.433594 C 144.191406 64.964844 143.78125 65.324219 143.605469 65.515625 C 143.421875 65.714844 143.277344 65.902344 143.167969 66.078125 Z M 147.375 66.078125 "/>
<path style=" stroke:none;fill-rule:nonzero;fill:rgb(0%,0%,0%);fill-opacity:1;" d="M 103.210938 80.824219 L 103.210938 72.242188 L 104.921875 72.242188 L 106.941406 78.324219 C 107.132812 78.882812 107.273438 79.304688 107.359375 79.597656 C 107.453125 79.277344 107.609375 78.820312 107.816406 78.222656 L 109.878906 72.242188 L 111.398438 72.242188 L 111.398438 80.824219 L 110.316406 80.824219 L 110.316406 73.636719 L 107.816406 80.824219 L 106.796875 80.824219 L 104.296875 73.511719 L 104.296875 80.824219 Z M 103.210938 80.824219 "/>
<path style=" stroke:none;fill-rule:nonzero;fill:rgb(0%,0%,0%);fill-opacity:1;" d="M 117.167969 80.054688 C 116.777344 80.386719 116.402344 80.628906 116.042969 80.761719 C 115.675781 80.898438 115.292969 80.972656 114.875 80.972656 C 114.191406 80.972656 113.667969 80.804688 113.292969 80.472656 C 112.925781 80.136719 112.75 79.710938 112.75 79.179688 C 112.75 78.878906 112.816406 78.597656 112.957031 78.347656 C 113.09375 78.097656 113.277344 77.898438 113.5 77.742188 C 113.71875 77.589844 113.96875 77.472656 114.25 77.386719 C 114.457031 77.347656 114.769531 77.300781 115.1875 77.242188 C 116.046875 77.148438 116.675781 77.023438 117.082031 76.867188 C 117.082031 76.730469 117.082031 76.636719 117.082031 76.597656 C 117.082031 76.167969 116.984375 75.867188 116.792969 75.699219 C 116.511719 75.449219 116.109375 75.324219 115.582031 75.324219 C 115.082031 75.324219 114.714844 75.417969 114.480469 75.597656 C 114.238281 75.761719 114.066406 76.070312 113.957031 76.511719 L 112.9375 76.386719 C 113.019531 75.945312 113.167969 75.589844 113.375 75.324219 C 113.59375 75.050781 113.90625 74.839844 114.3125 74.699219 C 114.730469 74.550781 115.199219 74.472656 115.730469 74.472656 C 116.269531 74.472656 116.699219 74.535156 117.019531 74.660156 C 117.355469 74.785156 117.59375 74.945312 117.75 75.136719 C 117.917969 75.320312 118.027344 75.554688 118.082031 75.847656 C 118.125 76.027344 118.144531 76.347656 118.144531 76.804688 L 118.144531 78.222656 C 118.144531 79.195312 118.167969 79.816406 118.207031 80.074219 C 118.25 80.339844 118.339844 80.589844 118.480469 80.824219 L 117.375 80.824219 C 117.261719 80.605469 117.191406 80.347656 117.167969 80.054688 Z M 117.082031 77.699219 C 116.691406 77.855469 116.113281 77.988281 115.355469 78.097656 C 114.921875 78.167969 114.613281 78.242188 114.4375 78.324219 C 114.253906 78.398438 114.113281 78.507812 114.019531 78.660156 C 113.921875 78.816406 113.875 78.980469 113.875 79.160156 C 113.875 79.441406 113.980469 79.675781 114.1875 79.867188 C 114.394531 80.050781 114.707031 80.136719 115.125 80.136719 C 115.527344 80.136719 115.886719 80.050781 116.207031 79.867188 C 116.527344 79.691406 116.761719 79.445312 116.917969 79.136719 C 117.027344 78.902344 117.082031 78.554688 117.082031 78.097656 Z M 117.082031 77.699219 "/>
<path style=" stroke:none;fill-rule:nonzero;fill:rgb(0%,0%,0%);fill-opacity:1;" d="M 119.070312 80.824219 L 121.339844 77.597656 L 119.238281 74.597656 L 120.570312 74.597656 L 121.527344 76.054688 C 121.695312 76.335938 121.832031 76.570312 121.945312 76.761719 C 122.121094 76.503906 122.285156 76.273438 122.425781 76.074219 L 123.464844 74.597656 L 124.738281 74.597656 L 122.589844 77.535156 L 124.902344 80.824219 L 123.613281 80.824219 L 122.320312 78.886719 L 121.988281 78.367188 L 120.363281 80.824219 Z M 119.070312 80.824219 "/>
<path style=" stroke:none;fill-rule:nonzero;fill:rgb(0%,0%,0%);fill-opacity:1;" d="M 125.363281 78.242188 L 125.363281 77.179688 L 128.613281 77.179688 L 128.613281 78.242188 Z M 125.363281 78.242188 "/>
<path style=" stroke:none;fill-rule:nonzero;fill:rgb(0%,0%,0%);fill-opacity:1;" d="M 129.773438 83.199219 L 129.773438 74.597656 L 130.734375 74.597656 L 130.734375 75.410156 C 130.953125 75.089844 131.203125 74.855469 131.484375 74.699219 C 131.773438 74.550781 132.128906 74.472656 132.546875 74.472656 C 133.070312 74.472656 133.535156 74.613281 133.941406 74.886719 C 134.34375 75.152344 134.648438 75.535156 134.859375 76.035156 C 135.066406 76.535156 135.171875 77.074219 135.171875 77.660156 C 135.171875 78.300781 135.050781 78.878906 134.816406 79.386719 C 134.59375 79.902344 134.265625 80.300781 133.835938 80.574219 C 133.40625 80.835938 132.945312 80.972656 132.460938 80.972656 C 132.113281 80.972656 131.800781 80.894531 131.523438 80.742188 C 131.242188 80.589844 131.015625 80.402344 130.835938 80.179688 L 130.835938 83.199219 Z M 130.734375 77.742188 C 130.734375 78.550781 130.890625 79.148438 131.210938 79.535156 C 131.546875 79.910156 131.941406 80.097656 132.398438 80.097656 C 132.859375 80.097656 133.253906 79.902344 133.585938 79.511719 C 133.929688 79.113281 134.109375 78.492188 134.109375 77.660156 C 134.109375 76.867188 133.941406 76.277344 133.609375 75.886719 C 133.285156 75.488281 132.898438 75.285156 132.441406 75.285156 C 131.992188 75.285156 131.597656 75.503906 131.253906 75.929688 C 130.90625 76.347656 130.734375 76.949219 130.734375 77.742188 Z M 130.734375 77.742188 "/>
<path style=" stroke:none;fill-rule:nonzero;fill:rgb(0%,0%,0%);fill-opacity:1;" d="M 136.054688 77.722656 C 136.054688 76.570312 136.371094 75.714844 137.011719 75.160156 C 137.554688 74.699219 138.203125 74.472656 138.96875 74.472656 C 139.828125 74.472656 140.53125 74.753906 141.074219 75.304688 C 141.617188 75.863281 141.886719 76.632812 141.886719 77.617188 C 141.886719 78.425781 141.761719 79.054688 141.511719 79.511719 C 141.273438 79.972656 140.929688 80.335938 140.46875 80.597656 C 140.011719 80.847656 139.511719 80.972656 138.96875 80.972656 C 138.09375 80.972656 137.386719 80.695312 136.84375 80.136719 C 136.3125 79.570312 136.054688 78.761719 136.054688 77.722656 Z M 137.136719 77.722656 C 137.136719 78.511719 137.308594 79.113281 137.65625 79.511719 C 138 79.902344 138.4375 80.097656 138.96875 80.097656 C 139.496094 80.097656 139.933594 79.902344 140.28125 79.511719 C 140.625 79.113281 140.804688 78.503906 140.804688 77.679688 C 140.804688 76.917969 140.625 76.335938 140.28125 75.929688 C 139.933594 75.527344 139.496094 75.324219 138.96875 75.324219 C 138.4375 75.324219 138 75.527344 137.65625 75.929688 C 137.308594 76.320312 137.136719 76.917969 137.136719 77.722656 Z M 137.136719 77.722656 "/>
<path style=" stroke:none;fill-rule:nonzero;fill:rgb(0%,0%,0%);fill-opacity:1;" d="M 142.726562 77.722656 C 142.726562 76.570312 143.046875 75.714844 143.6875 75.160156 C 144.226562 74.699219 144.878906 74.472656 145.644531 74.472656 C 146.503906 74.472656 147.207031 74.753906 147.75 75.304688 C 148.289062 75.863281 148.5625 76.632812 148.5625 77.617188 C 148.5625 78.425781 148.4375 79.054688 148.1875 79.511719 C 147.945312 79.972656 147.601562 80.335938 147.144531 80.597656 C 146.6875 80.847656 146.1875 80.972656 145.644531 80.972656 C 144.769531 80.972656 144.0625 80.695312 143.519531 80.136719 C 142.988281 79.570312 142.726562 78.761719 142.726562 77.722656 Z M 143.8125 77.722656 C 143.8125 78.511719 143.984375 79.113281 144.332031 79.511719 C 144.675781 79.902344 145.113281 80.097656 145.644531 80.097656 C 146.171875 80.097656 146.609375 79.902344 146.957031 79.511719 C 147.300781 79.113281 147.476562 78.503906 147.476562 77.679688 C 147.476562 76.917969 147.300781 76.335938 146.957031 75.929688 C 146.609375 75.527344 146.171875 75.324219 145.644531 75.324219 C 145.113281 75.324219 144.675781 75.527344 144.332031 75.929688 C 143.984375 76.320312 143.8125 76.917969 143.8125 77.722656 Z M 143.8125 77.722656 "/>
<path style=" stroke:none;fill-rule:nonzero;fill:rgb(0%,0%,0%);fill-opacity:1;" d="M 149.777344 80.824219 L 149.777344 72.242188 L 150.820312 72.242188 L 150.820312 80.824219 Z M 149.777344 80.824219 "/>
<path style=" stroke:none;fill-rule:nonzero;fill:rgb(0%,0%,0%);fill-opacity:1;" d="M 152.464844 73.449219 L 152.464844 72.242188 L 153.527344 72.242188 L 153.527344 73.449219 Z M 152.464844 80.824219 L 152.464844 74.597656 L 153.527344 74.597656 L 153.527344 80.824219 Z M 152.464844 80.824219 "/>
<path style=" stroke:none;fill-rule:nonzero;fill:rgb(0%,0%,0%);fill-opacity:1;" d="M 155.128906 80.824219 L 155.128906 74.597656 L 156.089844 74.597656 L 156.089844 75.492188 C 156.53125 74.816406 157.191406 74.472656 158.066406 74.472656 C 158.441406 74.472656 158.78125 74.542969 159.089844 74.679688 C 159.40625 74.804688 159.640625 74.980469 159.796875 75.199219 C 159.949219 75.410156 160.058594 75.667969 160.128906 75.972656 C 160.171875 76.167969 160.191406 76.507812 160.191406 76.992188 L 160.191406 80.824219 L 159.128906 80.824219 L 159.128906 77.035156 C 159.128906 76.605469 159.089844 76.285156 159.003906 76.074219 C 158.921875 75.867188 158.777344 75.699219 158.566406 75.574219 C 158.359375 75.441406 158.113281 75.367188 157.839844 75.367188 C 157.390625 75.367188 157.003906 75.511719 156.671875 75.804688 C 156.347656 76.085938 156.191406 76.628906 156.191406 77.429688 L 156.191406 80.824219 Z M 155.128906 80.824219 "/>
<path style=" stroke:none;fill-rule:nonzero;fill:rgb(0%,0%,0%);fill-opacity:1;" d="M 161.617188 81.347656 L 162.636719 81.492188 C 162.679688 81.808594 162.792969 82.039062 162.992188 82.179688 C 163.253906 82.371094 163.617188 82.472656 164.074219 82.472656 C 164.558594 82.472656 164.933594 82.371094 165.199219 82.179688 C 165.460938 81.980469 165.644531 81.710938 165.742188 81.367188 C 165.792969 81.144531 165.816406 80.695312 165.804688 80.011719 C 165.347656 80.554688 164.773438 80.824219 164.097656 80.824219 C 163.230469 80.824219 162.566406 80.523438 162.097656 79.910156 C 161.636719 79.285156 161.410156 78.542969 161.410156 77.679688 C 161.410156 77.085938 161.511719 76.535156 161.722656 76.035156 C 161.941406 75.535156 162.253906 75.152344 162.660156 74.886719 C 163.058594 74.613281 163.539062 74.472656 164.097656 74.472656 C 164.832031 74.472656 165.433594 74.761719 165.910156 75.347656 L 165.910156 74.597656 L 166.886719 74.597656 L 166.886719 79.972656 C 166.886719 80.941406 166.785156 81.628906 166.574219 82.035156 C 166.378906 82.433594 166.066406 82.753906 165.636719 82.992188 C 165.222656 83.226562 164.699219 83.347656 164.074219 83.347656 C 163.324219 83.347656 162.722656 83.179688 162.261719 82.847656 C 161.816406 82.511719 161.601562 82.011719 161.617188 81.347656 Z M 162.492188 77.597656 C 162.492188 78.417969 162.648438 79.011719 162.972656 79.386719 C 163.289062 79.761719 163.691406 79.949219 164.179688 79.949219 C 164.664062 79.949219 165.074219 79.761719 165.410156 79.386719 C 165.742188 79.011719 165.910156 78.429688 165.910156 77.636719 C 165.910156 76.878906 165.730469 76.300781 165.386719 75.910156 C 165.054688 75.523438 164.648438 75.324219 164.179688 75.324219 C 163.707031 75.324219 163.304688 75.523438 162.972656 75.910156 C 162.648438 76.285156 162.492188 76.847656 162.492188 77.597656 Z M 162.492188 77.597656 "/>
<path style=" stroke:none;fill-rule:nonzero;fill:rgb(0%,0%,0%);fill-opacity:1;" d="M 204.570312 13.144531 C 204.570312 11.730469 204.953125 10.621094 205.71875 9.8125 C 206.476562 8.996094 207.46875 8.582031 208.675781 8.582031 C 209.46875 8.582031 210.179688 8.78125 210.820312 9.167969 C 211.457031 9.542969 211.945312 10.074219 212.28125 10.75 C 212.613281 11.433594 212.78125 12.199219 212.78125 13.042969 C 212.78125 13.917969 212.601562 14.703125 212.257812 15.394531 C 211.910156 16.078125 211.410156 16.597656 210.757812 16.957031 C 210.117188 17.308594 209.425781 17.480469 208.675781 17.480469 C 207.867188 17.480469 207.144531 17.285156 206.507812 16.894531 C 205.867188 16.511719 205.382812 15.972656 205.050781 15.292969 C 204.726562 14.613281 204.570312 13.894531 204.570312 13.144531 Z M 205.738281 13.167969 C 205.738281 14.207031 206.015625 15.03125 206.570312 15.625 C 207.125 16.207031 207.828125 16.5 208.675781 16.5 C 209.519531 16.5 210.222656 16.203125 210.78125 15.605469 C 211.332031 15.011719 211.613281 14.15625 211.613281 13.042969 C 211.613281 12.347656 211.492188 11.746094 211.257812 11.230469 C 211.019531 10.703125 210.675781 10.292969 210.21875 10 C 209.757812 9.707031 209.25 9.5625 208.695312 9.5625 C 207.890625 9.5625 207.195312 9.84375 206.613281 10.394531 C 206.03125 10.953125 205.738281 11.875 205.738281 13.167969 Z M 205.738281 13.167969 "/>
<path style=" stroke:none;fill-rule:nonzero;fill:rgb(0%,0%,0%);fill-opacity:1;" d="M 218.195312 17.332031 L 218.195312 16.417969 C 217.707031 17.125 217.050781 17.480469 216.21875 17.480469 C 215.851562 17.480469 215.515625 17.40625 215.195312 17.269531 C 214.875 17.121094 214.632812 16.9375 214.46875 16.730469 C 214.3125 16.519531 214.207031 16.265625 214.15625 15.957031 C 214.113281 15.75 214.09375 15.417969 214.09375 14.957031 L 214.09375 11.105469 L 215.132812 11.105469 L 215.132812 14.5625 C 215.132812 15.121094 215.160156 15.488281 215.21875 15.667969 C 215.269531 15.949219 215.40625 16.167969 215.613281 16.332031 C 215.832031 16.488281 216.101562 16.5625 216.425781 16.5625 C 216.742188 16.5625 217.039062 16.488281 217.320312 16.332031 C 217.597656 16.167969 217.789062 15.949219 217.90625 15.667969 C 218.015625 15.390625 218.070312 14.980469 218.070312 14.4375 L 218.070312 11.105469 L 219.132812 11.105469 L 219.132812 17.332031 Z M 218.195312 17.332031 "/>
<path style=" stroke:none;fill-rule:nonzero;fill:rgb(0%,0%,0%);fill-opacity:1;" d="M 223.09375 16.394531 L 223.242188 17.3125 C 222.933594 17.378906 222.667969 17.417969 222.449219 17.417969 C 222.058594 17.417969 221.761719 17.355469 221.554688 17.230469 C 221.34375 17.105469 221.1875 16.949219 221.09375 16.75 C 221.011719 16.558594 220.96875 16.144531 220.96875 15.519531 L 220.96875 11.9375 L 220.199219 11.9375 L 220.199219 11.105469 L 220.96875 11.105469 L 220.96875 9.5625 L 222.03125 8.9375 L 222.03125 11.105469 L 223.09375 11.105469 L 223.09375 11.9375 L 222.03125 11.9375 L 222.03125 15.5625 C 222.03125 15.871094 222.042969 16.0625 222.074219 16.144531 C 222.117188 16.230469 222.179688 16.300781 222.261719 16.355469 C 222.34375 16.410156 222.460938 16.4375 222.617188 16.4375 C 222.742188 16.4375 222.898438 16.425781 223.09375 16.394531 Z M 223.09375 16.394531 "/>
<path style=" stroke:none;fill-rule:nonzero;fill:rgb(0%,0%,0%);fill-opacity:1;" d="M 224.117188 19.707031 L 224.117188 11.105469 L 225.074219 11.105469 L 225.074219 11.917969 C 225.292969 11.597656 225.542969 11.363281 225.824219 11.207031 C 226.117188 11.058594 226.472656 10.980469 226.886719 10.980469 C 227.414062 10.980469 227.878906 11.121094 228.285156 11.394531 C 228.683594 11.660156 228.992188 12.042969 229.199219 12.542969 C 229.410156 13.042969 229.511719 13.582031 229.511719 14.167969 C 229.511719 14.808594 229.394531 15.386719 229.160156 15.894531 C 228.933594 16.410156 228.605469 16.808594 228.179688 17.082031 C 227.746094 17.34375 227.289062 17.480469 226.804688 17.480469 C 226.457031 17.480469 226.144531 17.402344 225.867188 17.25 C 225.585938 17.097656 225.355469 16.910156 225.179688 16.6875 L 225.179688 19.707031 Z M 225.074219 14.25 C 225.074219 15.058594 225.230469 15.65625 225.554688 16.042969 C 225.886719 16.417969 226.285156 16.605469 226.742188 16.605469 C 227.199219 16.605469 227.597656 16.410156 227.929688 16.019531 C 228.273438 15.621094 228.449219 15 228.449219 14.167969 C 228.449219 13.375 228.285156 12.785156 227.949219 12.394531 C 227.628906 11.996094 227.242188 11.792969 226.785156 11.792969 C 226.335938 11.792969 225.941406 12.011719 225.597656 12.4375 C 225.246094 12.855469 225.074219 13.457031 225.074219 14.25 Z M 225.074219 14.25 "/>
<path style=" stroke:none;fill-rule:nonzero;fill:rgb(0%,0%,0%);fill-opacity:1;" d="M 234.871094 17.332031 L 234.871094 16.417969 C 234.378906 17.125 233.722656 17.480469 232.890625 17.480469 C 232.527344 17.480469 232.1875 17.40625 231.871094 17.269531 C 231.546875 17.121094 231.308594 16.9375 231.140625 16.730469 C 230.984375 16.519531 230.878906 16.265625 230.828125 15.957031 C 230.785156 15.75 230.765625 15.417969 230.765625 14.957031 L 230.765625 11.105469 L 231.808594 11.105469 L 231.808594 14.5625 C 231.808594 15.121094 231.832031 15.488281 231.890625 15.667969 C 231.941406 15.949219 232.078125 16.167969 232.285156 16.332031 C 232.503906 16.488281 232.777344 16.5625 233.097656 16.5625 C 233.417969 16.5625 233.714844 16.488281 233.996094 16.332031 C 234.269531 16.167969 234.464844 15.949219 234.578125 15.667969 C 234.6875 15.390625 234.746094 14.980469 234.746094 14.4375 L 234.746094 11.105469 L 235.808594 11.105469 L 235.808594 17.332031 Z M 234.871094 17.332031 "/>
<path style=" stroke:none;fill-rule:nonzero;fill:rgb(0%,0%,0%);fill-opacity:1;" d="M 239.769531 16.394531 L 239.914062 17.3125 C 239.605469 17.378906 239.339844 17.417969 239.121094 17.417969 C 238.730469 17.417969 238.433594 17.355469 238.226562 17.230469 C 238.019531 17.105469 237.863281 16.949219 237.769531 16.75 C 237.683594 16.558594 237.644531 16.144531 237.644531 15.519531 L 237.644531 11.9375 L 236.871094 11.9375 L 236.871094 11.105469 L 237.644531 11.105469 L 237.644531 9.5625 L 238.707031 8.9375 L 238.707031 11.105469 L 239.769531 11.105469 L 239.769531 11.9375 L 238.707031 11.9375 L 238.707031 15.5625 C 238.707031 15.871094 238.714844 16.0625 238.746094 16.144531 C 238.789062 16.230469 238.851562 16.300781 238.933594 16.355469 C 239.019531 16.410156 239.132812 16.4375 239.289062 16.4375 C 239.414062 16.4375 239.570312 16.425781 239.769531 16.394531 Z M 239.769531 16.394531 "/>
<path style=" stroke:none;fill-rule:nonzero;fill:rgb(0%,0%,0%);fill-opacity:1;" d="M 25.113281 17.332031 L 25.113281 8.75 L 26.238281 8.75 L 26.238281 17.332031 Z M 25.113281 17.332031 "/>
<path style=" stroke:none;fill-rule:nonzero;fill:rgb(0%,0%,0%);fill-opacity:1;" d="M 28.113281 17.332031 L 28.113281 11.105469 L 29.070312 11.105469 L 29.070312 12 C 29.515625 11.324219 30.175781 10.980469 31.050781 10.980469 C 31.425781 10.980469 31.765625 11.050781 32.070312 11.1875 C 32.390625 11.3125 32.625 11.488281 32.78125 11.707031 C 32.929688 11.917969 33.039062 12.175781 33.113281 12.480469 C 33.15625 12.675781 33.175781 13.015625 33.175781 13.5 L 33.175781 17.332031 L 32.113281 17.332031 L 32.113281 13.542969 C 32.113281 13.113281 32.070312 12.792969 31.988281 12.582031 C 31.90625 12.375 31.757812 12.207031 31.550781 12.082031 C 31.34375 11.949219 31.097656 11.875 30.820312 11.875 C 30.375 11.875 29.988281 12.019531 29.65625 12.3125 C 29.332031 12.59375 29.175781 13.136719 29.175781 13.9375 L 29.175781 17.332031 Z M 28.113281 17.332031 "/>
<path style=" stroke:none;fill-rule:nonzero;fill:rgb(0%,0%,0%);fill-opacity:1;" d="M 34.785156 19.707031 L 34.785156 11.105469 L 35.742188 11.105469 L 35.742188 11.917969 C 35.960938 11.597656 36.210938 11.363281 36.492188 11.207031 C 36.785156 11.058594 37.136719 10.980469 37.554688 10.980469 C 38.082031 10.980469 38.542969 11.121094 38.949219 11.394531 C 39.351562 11.660156 39.660156 12.042969 39.867188 12.542969 C 40.074219 13.042969 40.179688 13.582031 40.179688 14.167969 C 40.179688 14.808594 40.058594 15.386719 39.824219 15.894531 C 39.601562 16.410156 39.273438 16.808594 38.847656 17.082031 C 38.414062 17.34375 37.957031 17.480469 37.472656 17.480469 C 37.121094 17.480469 36.808594 17.402344 36.535156 17.25 C 36.253906 17.097656 36.023438 16.910156 35.847656 16.6875 L 35.847656 19.707031 Z M 35.742188 14.25 C 35.742188 15.058594 35.898438 15.65625 36.222656 16.042969 C 36.554688 16.417969 36.949219 16.605469 37.410156 16.605469 C 37.867188 16.605469 38.261719 16.410156 38.597656 16.019531 C 38.941406 15.621094 39.117188 15 39.117188 14.167969 C 39.117188 13.375 38.949219 12.785156 38.617188 12.394531 C 38.292969 11.996094 37.910156 11.792969 37.449219 11.792969 C 37.003906 11.792969 36.605469 12.011719 36.261719 12.4375 C 35.914062 12.855469 35.742188 13.457031 35.742188 14.25 Z M 35.742188 14.25 "/>
<path style=" stroke:none;fill-rule:nonzero;fill:rgb(0%,0%,0%);fill-opacity:1;" d="M 45.535156 17.332031 L 45.535156 16.417969 C 45.046875 17.125 44.390625 17.480469 43.558594 17.480469 C 43.191406 17.480469 42.855469 17.40625 42.535156 17.269531 C 42.214844 17.121094 41.972656 16.9375 41.808594 16.730469 C 41.652344 16.519531 41.546875 16.265625 41.496094 15.957031 C 41.453125 15.75 41.433594 15.417969 41.433594 14.957031 L 41.433594 11.105469 L 42.472656 11.105469 L 42.472656 14.5625 C 42.472656 15.121094 42.5 15.488281 42.558594 15.667969 C 42.609375 15.949219 42.746094 16.167969 42.953125 16.332031 C 43.171875 16.488281 43.441406 16.5625 43.765625 16.5625 C 44.082031 16.5625 44.378906 16.488281 44.660156 16.332031 C 44.9375 16.167969 45.128906 15.949219 45.246094 15.667969 C 45.355469 15.390625 45.410156 14.980469 45.410156 14.4375 L 45.410156 11.105469 L 46.472656 11.105469 L 46.472656 17.332031 Z M 45.535156 17.332031 "/>
<path style=" stroke:none;fill-rule:nonzero;fill:rgb(0%,0%,0%);fill-opacity:1;" d="M 50.433594 16.394531 L 50.582031 17.3125 C 50.273438 17.378906 50.007812 17.417969 49.789062 17.417969 C 49.398438 17.417969 49.101562 17.355469 48.894531 17.230469 C 48.683594 17.105469 48.527344 16.949219 48.433594 16.75 C 48.351562 16.558594 48.308594 16.144531 48.308594 15.519531 L 48.308594 11.9375 L 47.539062 11.9375 L 47.539062 11.105469 L 48.308594 11.105469 L 48.308594 9.5625 L 49.371094 8.9375 L 49.371094 11.105469 L 50.433594 11.105469 L 50.433594 11.9375 L 49.371094 11.9375 L 49.371094 15.5625 C 49.371094 15.871094 49.382812 16.0625 49.414062 16.144531 C 49.457031 16.230469 49.519531 16.300781 49.601562 16.355469 C 49.683594 16.410156 49.800781 16.4375 49.957031 16.4375 C 50.082031 16.4375 50.238281 16.425781 50.433594 16.394531 Z M 50.433594 16.394531 "/>
</g>
</svg>
