<?xml version="1.0" encoding="utf-8" standalone="no"?>
<!DOCTYPE svg PUBLIC "-//W3C//DTD SVG 1.1//EN"
  "http://www.w3.org/Graphics/SVG/1.1/DTD/svg11.dtd">
<svg xmlns:xlink="http://www.w3.org/1999/xlink" width="513.36pt" height="247.248pt" viewBox="0 0 513.36 247.248" xmlns="http://www.w3.org/2000/svg" version="1.1">
 <metadata>
  <rdf:RDF xmlns:dc="http://purl.org/dc/elements/1.1/" xmlns:cc="http://creativecommons.org/ns#" xmlns:rdf="http://www.w3.org/1999/02/22-rdf-syntax-ns#">
   <cc:Work>
    <dc:type rdf:resource="http://purl.org/dc/dcmitype/StillImage"/>
    <dc:date>2026-03-05T18:08:06.043496</dc:date>
    <dc:format>image/svg+xml</dc:format>
    <dc:creator>
     <cc:Agent>
      <dc:title>Matplotlib v3.8.2, https://matplotlib.org/</dc:title>
     </cc:Agent>
    </dc:creator>
   </cc:Work>
  </rdf:RDF>
 </metadata>
 <defs>
  <style type="text/css">*{stroke-linejoin: round; stroke-linecap: butt}</style>
 </defs>
 <g id="figure_1">
  <g id="patch_1">
   <path d="M 0 247.248 
L 513.36 247.248 
L 513.36 0 
L 0 0 
L 0 247.248 
z
" style="fill: none"/>
  </g>
  <g id="axes_1">
   <g id="patch_2">
    <path d="M 106.992 85.3704 
L 141.9192 85.3704 
L 141.9192 50.4432 
L 106.992 50.4432 
z
" clip-path="url(#pae60b4bd75)" style="fill: #e2e8f0; stroke: #94a3b8; stroke-width: 1.5; stroke-linejoin: miter"/>
   </g>
   <g id="patch_3">
    <path d="M 141.9192 85.3704 
L 176.8464 85.3704 
L 176.8464 50.4432 
L 141.9192 50.4432 
z
" clip-path="url(#pae60b4bd75)" style="fill: #e2e8f0; stroke: #94a3b8; stroke-width: 1.5; stroke-linejoin: miter"/>
   </g>
   <g id="patch_4">
    <path d="M 106.992 120.2976 
L 141.9192 120.2976 
L 141.9192 85.3704 
L 106.992 85.3704 
z
" clip-path="url(#pae60b4bd75)" style="fill: #e2e8f0; stroke: #94a3b8; stroke-width: 1.5; stroke-linejoin: miter"/>
   </g>
   <g id="patch_5">
    <path d="M 141.9192 120.2976 
L 176.8464 120.2976 
L 176.8464 85.3704 
L 141.9192 85.3704 
z
" clip-path="url(#pae60b4bd75)" style="fill: #e2e8f0; stroke: #94a3b8; stroke-width: 1.5; stroke-linejoin: miter"/>
   </g>
   <g id="patch_6">
    <path d="M 97.0128 93.6864 
L 131.94 93.6864 
L 131.94 58.7592 
L 97.0128 58.7592 
z
" clip-path="url(#pae60b4bd75)" style="fill: #e2e8f0; stroke: #94a3b8; stroke-width: 1.5; stroke-linejoin: miter"/>
   </g>
   <g id="patch_7">
    <path d="M 131.94 93.6864 
L 166.8672 93.6864 
L 166.8672 58.7592 
L 131.94 58.7592 
z
" clip-path="url(#pae60b4bd75)" style="fill: #e2e8f0; stroke: #94a3b8; stroke-width: 1.5; stroke-linejoin: miter"/>
   </g>
   <g id="patch_8">
    <path d="M 97.0128 128.6136 
L 131.94 128.6136 
L 131.94 93.6864 
L 97.0128 93.6864 
z
" clip-path="url(#pae60b4bd75)" style="fill: #e2e8f0; stroke: #94a3b8; stroke-width: 1.5; stroke-linejoin: miter"/>
   </g>
   <g id="patch_9">
    <path d="M 131.94 128.6136 
L 166.8672 128.6136 
L 166.8672 93.6864 
L 131.94 93.6864 
z
" clip-path="url(#pae60b4bd75)" style="fill: #e2e8f0; stroke: #94a3b8; stroke-width: 1.5; stroke-linejoin: miter"/>
   </g>
   <g id="patch_10">
    <path d="M 87.0336 102.0024 
L 121.9608 102.0024 
L 121.9608 67.0752 
L 87.0336 67.0752 
z
" clip-path="url(#pae60b4bd75)" style="fill: #e2e8f0; stroke: #94a3b8; stroke-width: 1.5; stroke-linejoin: miter"/>
   </g>
   <g id="patch_11">
    <path d="M 121.9608 102.0024 
L 156.888 102.0024 
L 156.888 67.0752 
L 121.9608 67.0752 
z
" clip-path="url(#pae60b4bd75)" style="fill: #e2e8f0; stroke: #94a3b8; stroke-width: 1.5; stroke-linejoin: miter"/>
   </g>
   <g id="patch_12">
    <path d="M 87.0336 136.9296 
L 121.9608 136.9296 
L 121.9608 102.0024 
L 87.0336 102.0024 
z
" clip-path="url(#pae60b4bd75)" style="fill: #e2e8f0; stroke: #94a3b8; stroke-width: 1.5; stroke-linejoin: miter"/>
   </g>
   <g id="patch_13">
    <path d="M 121.9608 136.9296 
L 156.888 136.9296 
L 156.888 102.0024 
L 121.9608 102.0024 
z
" clip-path="url(#pae60b4bd75)" style="fill: #e2e8f0; stroke: #94a3b8; stroke-width: 1.5; stroke-linejoin: miter"/>
   </g>
   <g id="patch_14">
    <path d="M 77.0544 110.3184 
L 111.9816 110.3184 
L 111.9816 75.3912 
L 77.0544 75.3912 
z
" clip-path="url(#pae60b4bd75)" style="fill: #e2e8f0; stroke: #94a3b8; stroke-width: 1.5; stroke-linejoin: miter"/>
   </g>
   <g id="patch_15">
    <path d="M 111.9816 110.3184 
L 146.9088 110.3184 
L 146.9088 75.3912 
L 111.9816 75.3912 
z
" clip-path="url(#pae60b4bd75)" style="fill: #e2e8f0; stroke: #94a3b8; stroke-width: 1.5; stroke-linejoin: miter"/>
   </g>
   <g id="patch_16">
    <path d="M 77.0544 145.2456 
L 111.9816 145.2456 
L 111.9816 110.3184 
L 77.0544 110.3184 
z
" clip-path="url(#pae60b4bd75)" style="fill: #e2e8f0; stroke: #94a3b8; stroke-width: 1.5; stroke-linejoin: miter"/>
   </g>
   <g id="patch_17">
    <path d="M 111.9816 145.2456 
L 146.9088 145.2456 
L 146.9088 110.3184 
L 111.9816 110.3184 
z
" clip-path="url(#pae60b4bd75)" style="fill: #e2e8f0; stroke: #94a3b8; stroke-width: 1.5; stroke-linejoin: miter"/>
   </g>
   <g id="patch_18">
    <path d="M 67.0752 118.6344 
L 102.0024 118.6344 
L 102.0024 83.7072 
L 67.0752 83.7072 
z
" clip-path="url(#pae60b4bd75)" style="fill: #e2e8f0; stroke: #94a3b8; stroke-width: 1.5; stroke-linejoin: miter"/>
   </g>
   <g id="patch_19">
    <path d="M 102.0024 118.6344 
L 136.9296 118.6344 
L 136.9296 83.7072 
L 102.0024 83.7072 
z
" clip-path="url(#pae60b4bd75)" style="fill: #e2e8f0; stroke: #94a3b8; stroke-width: 1.5; stroke-linejoin: miter"/>
   </g>
   <g id="patch_20">
    <path d="M 67.0752 153.5616 
L 102.0024 153.5616 
L 102.0024 118.6344 
L 67.0752 118.6344 
z
" clip-path="url(#pae60b4bd75)" style="fill: #e2e8f0; stroke: #94a3b8; stroke-width: 1.5; stroke-linejoin: miter"/>
   </g>
   <g id="patch_21">
    <path d="M 102.0024 153.5616 
L 136.9296 153.5616 
L 136.9296 118.6344 
L 102.0024 118.6344 
z
" clip-path="url(#pae60b4bd75)" style="fill: #e2e8f0; stroke: #94a3b8; stroke-width: 1.5; stroke-linejoin: miter"/>
   </g>
   <g id="patch_22">
    <path d="M 57.096 126.9504 
L 92.0232 126.9504 
L 92.0232 92.0232 
L 57.096 92.0232 
z
" clip-path="url(#pae60b4bd75)" style="fill: #e2e8f0; stroke: #94a3b8; stroke-width: 1.5; stroke-linejoin: miter"/>
   </g>
   <g id="patch_23">
    <path d="M 92.0232 126.9504 
L 126.9504 126.9504 
L 126.9504 92.0232 
L 92.0232 92.0232 
z
" clip-path="url(#pae60b4bd75)" style="fill: #e2e8f0; stroke: #94a3b8; stroke-width: 1.5; stroke-linejoin: miter"/>
   </g>
   <g id="patch_24">
    <path d="M 57.096 161.8776 
L 92.0232 161.8776 
L 92.0232 126.9504 
L 57.096 126.9504 
z
" clip-path="url(#pae60b4bd75)" style="fill: #e2e8f0; stroke: #94a3b8; stroke-width: 1.5; stroke-linejoin: miter"/>
   </g>
   <g id="patch_25">
    <path d="M 92.0232 161.8776 
L 126.9504 161.8776 
L 126.9504 126.9504 
L 92.0232 126.9504 
z
" clip-path="url(#pae60b4bd75)" style="fill: #e2e8f0; stroke: #94a3b8; stroke-width: 1.5; stroke-linejoin: miter"/>
   </g>
   <g id="patch_26">
    <path d="M 47.1168 135.2664 
L 82.044 135.2664 
L 82.044 100.3392 
L 47.1168 100.3392 
z
" clip-path="url(#pae60b4bd75)" style="fill: #e2e8f0; stroke: #94a3b8; stroke-width: 1.5; stroke-linejoin: miter"/>
   </g>
   <g id="patch_27">
    <path d="M 82.044 135.2664 
L 116.9712 135.2664 
L 116.9712 100.3392 
L 82.044 100.3392 
z
" clip-path="url(#pae60b4bd75)" style="fill: #e2e8f0; stroke: #94a3b8; stroke-width: 1.5; stroke-linejoin: miter"/>
   </g>
   <g id="patch_28">
    <path d="M 47.1168 170.1936 
L 82.044 170.1936 
L 82.044 135.2664 
L 47.1168 135.2664 
z
" clip-path="url(#pae60b4bd75)" style="fill: #e2e8f0; stroke: #94a3b8; stroke-width: 1.5; stroke-linejoin: miter"/>
   </g>
   <g id="patch_29">
    <path d="M 82.044 170.1936 
L 116.9712 170.1936 
L 116.9712 135.2664 
L 82.044 135.2664 
z
" clip-path="url(#pae60b4bd75)" style="fill: #e2e8f0; stroke: #94a3b8; stroke-width: 1.5; stroke-linejoin: miter"/>
   </g>
   <g id="patch_30">
    <path d="M 402.37632 124.28928 
L 455.59872 124.28928 
L 455.59872 71.06688 
L 402.37632 71.06688 
z
" clip-path="url(#pae60b4bd75)" style="fill: #dcfce7; opacity: 0.15; stroke: #94a3b8; stroke-linejoin: miter"/>
   </g>
   <g id="patch_31">
    <path d="M 396.3888 130.2768 
L 449.6112 130.2768 
L 449.6112 77.0544 
L 396.3888 77.0544 
z
" clip-path="url(#pae60b4bd75)" style="fill: #dcfce7; opacity: 0.15; stroke: #94a3b8; stroke-linejoin: miter"/>
   </g>
   <g id="patch_32">
    <path d="M 390.40128 136.26432 
L 443.62368 136.26432 
L 443.62368 83.04192 
L 390.40128 83.04192 
z
" clip-path="url(#pae60b4bd75)" style="fill: #dcfce7; opacity: 0.15; stroke: #94a3b8; stroke-linejoin: miter"/>
   </g>
   <g id="patch_33">
    <path d="M 384.41376 142.25184 
L 437.63616 142.25184 
L 437.63616 89.02944 
L 384.41376 89.02944 
z
" clip-path="url(#pae60b4bd75)" style="fill: #dcfce7; opacity: 0.15; stroke: #94a3b8; stroke-linejoin: miter"/>
   </g>
   <g id="patch_34">
    <path d="M 378.42624 148.23936 
L 431.64864 148.23936 
L 431.64864 95.01696 
L 378.42624 95.01696 
z
" clip-path="url(#pae60b4bd75)" style="fill: #dcfce7; opacity: 0.15; stroke: #94a3b8; stroke-linejoin: miter"/>
   </g>
   <g id="patch_35">
    <path d="M 372.43872 154.22688 
L 425.66112 154.22688 
L 425.66112 101.00448 
L 372.43872 101.00448 
z
" clip-path="url(#pae60b4bd75)" style="fill: #dcfce7; opacity: 0.15; stroke: #94a3b8; stroke-linejoin: miter"/>
   </g>
   <g id="patch_36">
    <path d="M 366.4512 160.2144 
L 419.6736 160.2144 
L 419.6736 106.992 
L 366.4512 106.992 
z
" clip-path="url(#pae60b4bd75)" style="fill: #dcfce7; opacity: 0.9; stroke: #94a3b8; stroke-width: 1.5; stroke-linejoin: miter"/>
   </g>
   <g id="text_1">
    <!-- 2 -->
    <g style="fill: #0f172a" transform="translate(60.7629 121.11405) scale(0.12 -0.12)">
     <defs>
      <path id="DejaVuSans-32" d="M 1228 531 
L 3431 531 
L 3431 0 
L 469 0 
L 469 531 
Q 828 903 1448 1529 
Q 2069 2156 2228 2338 
Q 2531 2678 2651 2914 
Q 2772 3150 2772 3378 
Q 2772 3750 2511 3984 
Q 2250 4219 1831 4219 
Q 1534 4219 1204 4116 
Q 875 4013 500 3803 
L 500 4441 
Q 881 4594 1212 4672 
Q 1544 4750 1819 4750 
Q 2544 4750 2975 4387 
Q 3406 4025 3406 3419 
Q 3406 3131 3298 2873 
Q 3191 2616 2906 2266 
Q 2828 2175 2409 1742 
Q 1991 1309 1228 531 
z
" transform="scale(0.015625)"/>
     </defs>
     <use xlink:href="#DejaVuSans-32"/>
    </g>
   </g>
   <g id="text_2">
    <!-- 4 -->
    <g style="fill: #0f172a" transform="translate(95.6901 121.11405) scale(0.12 -0.12)">
     <defs>
      <path id="DejaVuSans-34" d="M 2419 4116 
L 825 1625 
L 2419 1625 
L 2419 4116 
z
M 2253 4666 
L 3047 4666 
L 3047 1625 
L 3713 1625 
L 3713 1100 
L 3047 1100 
L 3047 0 
L 2419 0 
L 2419 1100 
L 313 1100 
L 313 1709 
L 2253 4666 
z
" transform="scale(0.015625)"/>
     </defs>
     <use xlink:href="#DejaVuSans-34"/>
    </g>
   </g>
   <g id="text_3">
    <!-- 6 -->
    <g style="fill: #0f172a" transform="translate(60.7629 156.04125) scale(0.12 -0.12)">
     <defs>
      <path id="DejaVuSans-36" d="M 2113 2584 
Q 1688 2584 1439 2293 
Q 1191 2003 1191 1497 
Q 1191 994 1439 701 
Q 1688 409 2113 409 
Q 2538 409 2786 701 
Q 3034 994 3034 1497 
Q 3034 2003 2786 2293 
Q 2538 2584 2113 2584 
z
M 3366 4563 
L 3366 3988 
Q 3128 4100 2886 4159 
Q 2644 4219 2406 4219 
Q 1781 4219 1451 3797 
Q 1122 3375 1075 2522 
Q 1259 2794 1537 2939 
Q 1816 3084 2150 3084 
Q 2853 3084 3261 2657 
Q 3669 2231 3669 1497 
Q 3669 778 3244 343 
Q 2819 -91 2113 -91 
Q 1303 -91 875 529 
Q 447 1150 447 2328 
Q 447 3434 972 4092 
Q 1497 4750 2381 4750 
Q 2619 4750 2861 4703 
Q 3103 4656 3366 4563 
z
" transform="scale(0.015625)"/>
     </defs>
     <use xlink:href="#DejaVuSans-36"/>
    </g>
   </g>
   <g id="text_4">
    <!-- 8 -->
    <g style="fill: #0f172a" transform="translate(95.6901 156.04125) scale(0.12 -0.12)">
     <defs>
      <path id="DejaVuSans-38" d="M 2034 2216 
Q 1584 2216 1326 1975 
Q 1069 1734 1069 1313 
Q 1069 891 1326 650 
Q 1584 409 2034 409 
Q 2484 409 2743 651 
Q 3003 894 3003 1313 
Q 3003 1734 2745 1975 
Q 2488 2216 2034 2216 
z
M 1403 2484 
Q 997 2584 770 2862 
Q 544 3141 544 3541 
Q 544 4100 942 4425 
Q 1341 4750 2034 4750 
Q 2731 4750 3128 4425 
Q 3525 4100 3525 3541 
Q 3525 3141 3298 2862 
Q 3072 2584 2669 2484 
Q 3125 2378 3379 2068 
Q 3634 1759 3634 1313 
Q 3634 634 3220 271 
Q 2806 -91 2034 -91 
Q 1263 -91 848 271 
Q 434 634 434 1313 
Q 434 1759 690 2068 
Q 947 2378 1403 2484 
z
M 1172 3481 
Q 1172 3119 1398 2916 
Q 1625 2713 2034 2713 
Q 2441 2713 2670 2916 
Q 2900 3119 2900 3481 
Q 2900 3844 2670 4047 
Q 2441 4250 2034 4250 
Q 1625 4250 1398 4047 
Q 1172 3844 1172 3481 
z
" transform="scale(0.015625)"/>
     </defs>
     <use xlink:href="#DejaVuSans-38"/>
    </g>
   </g>
   <g id="text_5">
    <!-- 2×2×6 -->
    <g style="fill: #0f172a" transform="translate(58.743531 206.682769) scale(0.13 -0.13)">
     <defs>
      <path id="DejaVuSans-d7" d="M 4488 3438 
L 3059 2003 
L 4488 575 
L 4116 197 
L 2681 1631 
L 1247 197 
L 878 575 
L 2303 2003 
L 878 3438 
L 1247 3816 
L 2681 2381 
L 4116 3816 
L 4488 3438 
z
" transform="scale(0.015625)"/>
     </defs>
     <use xlink:href="#DejaVuSans-32"/>
     <use xlink:href="#DejaVuSans-d7" x="63.623047"/>
     <use xlink:href="#DejaVuSans-32" x="147.412109"/>
     <use xlink:href="#DejaVuSans-d7" x="211.035156"/>
     <use xlink:href="#DejaVuSans-36" x="294.824219"/>
    </g>
   </g>
   <g id="text_6">
    <!-- 5.0 -->
    <g style="fill: #0f172a" transform="translate(383.520525 136.91445) scale(0.12 -0.12)">
     <defs>
      <path id="DejaVuSans-35" d="M 691 4666 
L 3169 4666 
L 3169 4134 
L 1269 4134 
L 1269 2991 
Q 1406 3038 1543 3061 
Q 1681 3084 1819 3084 
Q 2600 3084 3056 2656 
Q 3513 2228 3513 1497 
Q 3513 744 3044 326 
Q 2575 -91 1722 -91 
Q 1428 -91 1123 -41 
Q 819 9 494 109 
L 494 744 
Q 775 591 1075 516 
Q 1375 441 1709 441 
Q 2250 441 2565 725 
Q 2881 1009 2881 1497 
Q 2881 1984 2565 2268 
Q 2250 2553 1709 2553 
Q 1456 2553 1204 2497 
Q 953 2441 691 2322 
L 691 4666 
z
" transform="scale(0.015625)"/>
      <path id="DejaVuSans-2e" d="M 684 794 
L 1344 794 
L 1344 0 
L 684 0 
L 684 794 
z
" transform="scale(0.015625)"/>
      <path id="DejaVuSans-30" d="M 2034 4250 
Q 1547 4250 1301 3770 
Q 1056 3291 1056 2328 
Q 1056 1369 1301 889 
Q 1547 409 2034 409 
Q 2525 409 2770 889 
Q 3016 1369 3016 2328 
Q 3016 3291 2770 3770 
Q 2525 4250 2034 4250 
z
M 2034 4750 
Q 2819 4750 3233 4129 
Q 3647 3509 3647 2328 
Q 3647 1150 3233 529 
Q 2819 -91 2034 -91 
Q 1250 -91 836 529 
Q 422 1150 422 2328 
Q 422 3509 836 4129 
Q 1250 4750 2034 4750 
z
" transform="scale(0.015625)"/>
     </defs>
     <use xlink:href="#DejaVuSans-35"/>
     <use xlink:href="#DejaVuSans-2e" x="63.623047"/>
     <use xlink:href="#DejaVuSans-30" x="95.410156"/>
    </g>
   </g>
   <g id="text_7">
    <!-- 1×1×6 -->
    <g style="fill: #0f172a" transform="translate(369.761931 196.703569) scale(0.13 -0.13)">
     <defs>
      <path id="DejaVuSans-31" d="M 794 531 
L 1825 531 
L 1825 4091 
L 703 3866 
L 703 4441 
L 1819 4666 
L 2450 4666 
L 2450 531 
L 3481 531 
L 3481 0 
L 794 0 
L 794 531 
z
" transform="scale(0.015625)"/>
     </defs>
     <use xlink:href="#DejaVuSans-31"/>
     <use xlink:href="#DejaVuSans-d7" x="63.623047"/>
     <use xlink:href="#DejaVuSans-31" x="147.412109"/>
     <use xlink:href="#DejaVuSans-d7" x="211.035156"/>
     <use xlink:href="#DejaVuSans-36" x="294.824219"/>
    </g>
   </g>
   <g id="patch_37">
    <path d="M 205.461175 135.2664 
Q 274.976321 135.2664 342.255398 135.2664 
" style="fill: none; stroke: #0f172a; stroke-width: 2; stroke-linecap: round"/>
    <path d="M 338.255398 133.2664 
L 342.255398 135.2664 
L 338.255398 137.2664 
z
" style="fill: #0f172a; stroke: #0f172a; stroke-width: 2; stroke-linecap: round"/>
   </g>
   <g id="text_8">
    <!-- GAP -->
    <g style="fill: #0f172a" transform="translate(261.573013 127.211187) scale(0.13 -0.13)">
     <defs>
      <path id="DejaVuSans-47" d="M 3809 666 
L 3809 1919 
L 2778 1919 
L 2778 2438 
L 4434 2438 
L 4434 434 
Q 4069 175 3628 42 
Q 3188 -91 2688 -91 
Q 1594 -91 976 548 
Q 359 1188 359 2328 
Q 359 3472 976 4111 
Q 1594 4750 2688 4750 
Q 3144 4750 3555 4637 
Q 3966 4525 4313 4306 
L 4313 3634 
Q 3963 3931 3569 4081 
Q 3175 4231 2741 4231 
Q 1884 4231 1454 3753 
Q 1025 3275 1025 2328 
Q 1025 1384 1454 906 
Q 1884 428 2741 428 
Q 3075 428 3337 486 
Q 3600 544 3809 666 
z
" transform="scale(0.015625)"/>
      <path id="DejaVuSans-41" d="M 2188 4044 
L 1331 1722 
L 3047 1722 
L 2188 4044 
z
M 1831 4666 
L 2547 4666 
L 4325 0 
L 3669 0 
L 3244 1197 
L 1141 1197 
L 716 0 
L 50 0 
L 1831 4666 
z
" transform="scale(0.015625)"/>
      <path id="DejaVuSans-50" d="M 1259 4147 
L 1259 2394 
L 2053 2394 
Q 2494 2394 2734 2622 
Q 2975 2850 2975 3272 
Q 2975 3691 2734 3919 
Q 2494 4147 2053 4147 
L 1259 4147 
z
M 628 4666 
L 2053 4666 
Q 2838 4666 3239 4311 
Q 3641 3956 3641 3272 
Q 3641 2581 3239 2228 
Q 2838 1875 2053 1875 
L 1259 1875 
L 1259 0 
L 628 0 
L 628 4666 
z
" transform="scale(0.015625)"/>
     </defs>
     <use xlink:href="#DejaVuSans-47"/>
     <use xlink:href="#DejaVuSans-41" x="77.490234"/>
     <use xlink:href="#DejaVuSans-50" x="145.898438"/>
    </g>
   </g>
  </g>
 </g>
 <defs>
  <clipPath id="pae60b4bd75">
   <rect x="7.2" y="7.2" width="498.96" height="232.848"/>
  </clipPath>
 </defs>
</svg>
